<?xml version="1.0" encoding="UTF-8" standalone="no"?>
<!-- Created with Inkscape (http://www.inkscape.org/) -->

<svg
   width="210mm"
   height="297mm"
   viewBox="0 0 210 297"
   version="1.1"
   id="svg1"
   xml:space="preserve"
   xmlns="http://www.w3.org/2000/svg"
   xmlns:svg="http://www.w3.org/2000/svg"><defs
     id="defs1"><linearGradient
       id="swatch3"><stop
         style="stop-color:#000000;stop-opacity:1;"
         offset="0"
         id="stop3" /></linearGradient></defs><g
     id="layer1"
     style="mix-blend-mode:normal;opacity:1"><path
       style="opacity:1;fill:#150072;fill-opacity:1;stroke:#000000;stroke-width:3.04845;stroke-linejoin:round;stroke-opacity:1;paint-order:stroke fill markers"
       d="m 41.707377,128.20696 v -27.56333 l 1.417755,-3.791689 1.417751,-3.791691 1.945638,-1.461459 1.945638,-1.461458 h 23.320536 23.32054 l 3.183294,2.806699 3.183321,2.806646 1.43792,3.02257 1.43792,3.022572 -0.23487,6.64947 -0.23488,6.64942 -2.44441,2.89118 c -1.34442,1.59012 -2.44439,3.33446 -2.44439,3.87627 0,0.54177 1.00715,2.24918 2.23814,3.79426 l 2.23812,2.80916 0.86051,4.40799 0.86048,4.40805 -0.86587,4.78154 -0.86588,4.78155 -2.79772,3.03844 c -1.538782,1.67118 -3.635907,3.67943 -4.660312,4.46281 l -1.862558,1.42433 H 67.90583 41.707607 Z m 44.135615,10.02743 1.816273,-2.42305 v -1.72024 -1.72023 l -1.993269,-2.11773 -1.99328,-2.11778 H 72.150876 60.629035 l -0.520386,0.96527 c -0.770611,1.4294 -0.840502,8.72537 -0.100932,10.53719 l 0.64133,1.57121 11.688845,-0.27572 11.688858,-0.27572 z m -2.927356,-21.49206 c 2.560845,-1.25168 4.704206,-4.03396 4.726881,-6.13592 l 0.01675,-1.55251 -1.99328,-2.11778 -1.99328,-2.11773 H 72.976548 62.280311 l -1.154963,1.51131 -1.154956,1.51126 -0.37152,3.02257 -0.37152,3.02257 0.637774,1.94311 0.63777,1.94305 h 10.152879 10.152883 z m 28.849544,15.27919 c 0,-13.06181 0.10589,-23.74877 0.23516,-23.74877 0.1293,0 1.63841,0.77725 3.3535,1.72719 4.58093,2.53728 8.64806,2.01454 12.41914,-1.59622 l 1.3183,-1.26226 v 24.31441 24.31442 h -8.66305 -8.66303 z m 29.80952,22.39172 -1.18375,-1.35711 v -4.62637 -4.62638 l 1.18375,-1.35705 1.18376,-1.3571 h 19.88239 19.88243 l 0.77979,-1.67038 c 0.4289,-0.91874 0.77982,-2.69305 0.77982,-3.94296 0,-1.24987 -0.35092,-3.02418 -0.77982,-3.94297 l -0.77979,-1.67038 -17.86462,-0.0631 -17.86458,-0.0631 -2.25993,-1.51286 c -1.24299,-0.83207 -3.0227,-2.80424 -3.9549,-4.38256 l -1.69493,-2.86965 V 110.27635 99.581429 l 1.03866,-2.84982 1.0387,-2.849873 2.07614,-1.872148 2.07615,-1.872202 h 24.60696 24.60696 l 0.90398,1.036342 0.90397,1.036289 v 4.947136 4.947137 l -1.18376,1.3571 -1.18377,1.35705 h -19.3816 -19.38159 l -0.90396,1.03634 -0.90397,1.03629 v 4.05282 4.05288 l 1.19158,0.52418 c 0.65536,0.28854 8.7796,0.52418 18.05387,0.52418 h 16.8623 l 2.67314,1.46135 2.67317,1.46135 1.4956,2.90598 1.49562,2.90598 v 12.00452 12.00457 l -2.89662,3.4907 -2.89658,3.49076 h -24.5454 -24.54541 z m -24.15969,-48.33067 c -1.243,-0.72381 -2.85317,-2.12462 -3.57822,-3.11293 l -1.31832,-1.79696 v -4.156004 -4.156054 l 1.92867,-2.627643 1.9287,-2.627644 2.51794,-0.541548 2.51794,-0.541494 2.74301,1.492182 2.74301,1.492183 1.1795,2.614873 1.17953,2.614873 -0.39555,3.380841 -0.39556,3.380845 -1.38213,1.77933 c -1.26709,1.63122 -5.41171,4.13917 -6.81944,4.12645 -0.32401,-0.003 -1.60613,-0.59754 -2.84908,-1.3213 z"
       id="path2" /></g><g
     id="layer3" /><g
     id="layer2"><path
       style="fill:none;stroke-width:0.264583"
       d="m 40.827205,77.900188 45.519991,0.156424 v 0 l 5.94419,2.346391 3.441374,3.128523 -3.597801,-3.754225 5.16206,14.547625 -5.631339,4.067077 v 3.597797 l 5.631339,3.5978 -0.312851,10.63698 -8.916286,8.29058 H 34.570164 L 33.788032,83.531526 Z"
       id="path1" /></g></svg>
