<?xml version="1.0" encoding="UTF-8" standalone="no"?>
<!-- Created with Inkscape (http://www.inkscape.org/) -->

<svg
   width="210mm"
   height="297mm"
   viewBox="0 0 210 297"
   version="1.1"
   id="svg1"
   xml:space="preserve"
   xmlns="http://www.w3.org/2000/svg"
   xmlns:svg="http://www.w3.org/2000/svg"><defs
     id="defs1"><linearGradient
       id="swatch1"><stop
         style="stop-color:#000000;stop-opacity:1;"
         offset="0"
         id="stop1" /></linearGradient></defs><g
     id="layer1"><g
       id="g31"
       transform="matrix(1.6083862,0,0,1.6526343,-59.363967,-121.32551)"><path
         style="fill:#388bea"
         d="m 72.768106,146.71917 c -0.12638,-2.17172 0.574933,-4.89612 1.97913,-7.68837 1.746717,-3.47334 5.831217,-8.06429 8.796843,-9.88758 0.906469,-0.55731 1.591445,-1.10499 1.52217,-1.21708 -0.06928,-0.11209 -0.730769,-0.3489 -1.469986,-0.52623 -1.250696,-0.30004 -1.87322,-0.83665 -1.455359,-1.25451 0.190275,-0.19028 4.900831,0.93727 5.262007,1.25954 0.241376,0.21537 -0.991584,4.71823 -1.405184,5.13183 -0.177363,0.17736 -0.355763,0.17486 -0.538165,-0.008 -0.187412,-0.18741 -0.14673,-0.75706 0.129917,-1.81918 0.221522,-0.85048 0.348968,-1.60013 0.283212,-1.66588 -0.250555,-0.25056 -4.502556,3.06103 -6.038525,4.70299 -0.883872,0.94486 -2.18122,2.61299 -2.882995,3.70695 -1.715683,2.67449 -2.761427,5.1864 -3.912249,9.39735 l -0.216926,0.79375 z"
         id="path37" /><path
         style="fill:#439cb4"
         d="m 90.759496,146.42978 c 0,-0.40597 1.66725,-3.1502 1.913898,-3.1502 0.111523,0 0.202768,-0.19133 0.202768,-0.42518 0,-0.2626 0.146609,-0.36892 0.383401,-0.27806 0.231309,0.0888 0.334589,0.0199 0.260355,-0.17352 -0.173584,-0.45235 2.501626,-3.93527 2.854938,-3.71691 0.164928,0.10193 0.211659,0.0552 0.109748,-0.10966 -0.195243,-0.31591 1.077517,-1.81883 1.450509,-1.71281 0.127994,0.0364 0.20295,-0.064 0.16657,-0.22306 -0.03638,-0.15906 0.148125,-0.42695 0.410012,-0.59531 0.404352,-0.25995 0.6238,-0.14567 1.455208,0.7578 0.538477,0.58515 1.276707,1.46721 1.640507,1.96013 0.3638,0.49292 0.80391,1.04107 0.97802,1.21812 0.24717,0.25135 0.17573,0.3219 -0.32591,0.3219 -0.37321,0 -0.5719,-0.11416 -0.47411,-0.27239 0.097,-0.15696 0.0389,-0.19239 -0.13712,-0.0836 -0.168,0.10383 -0.30546,0.36035 -0.30546,0.57004 0,0.23029 -0.26193,0.38126 -0.66146,0.38126 -0.3638,0 -0.66146,0.11907 -0.66146,0.26459 0,0.14552 -0.297654,0.26458 -0.661456,0.26458 -0.47159,0 -0.661458,0.14314 -0.661458,0.49868 0,0.40603 -0.270354,0.53246 -1.455209,0.6805 -1.457987,0.18216 -2.03686,0.6729 -0.79375,0.6729 0.363802,0 0.661459,0.11907 0.661459,0.26459 0,0.14552 -0.582406,0.26458 -1.294234,0.26458 -1.159856,0 -1.311471,0.0687 -1.460249,0.66146 -0.121276,0.4832 -0.342914,0.66146 -0.822433,0.66146 -0.36103,0 -0.656418,0.11906 -0.656418,0.26458 0,0.14552 -0.357187,0.26458 -0.79375,0.26458 -0.617361,0 -0.793749,0.1176 -0.793749,0.52917 0,0.29104 -0.119063,0.52917 -0.264584,0.52917 -0.145521,0 -0.264583,-0.13022 -0.264583,-0.28939 z m 25.432244,-14.23717 c -0.20054,-0.12702 -0.29809,-0.33861 -0.21676,-0.47019 0.0813,-0.13158 -0.0832,-0.25665 -0.36564,-0.27792 -0.28242,-0.0213 -0.70217,-0.22736 -0.93278,-0.45797 -0.2306,-0.2306 -0.76908,-0.60017 -1.19662,-0.82126 -0.44956,-0.23248 -0.70066,-0.52602 -0.59551,-0.69617 0.10334,-0.1672 0.0625,-0.22046 -0.0945,-0.12339 -0.25992,0.16065 -2.5738,-0.96815 -2.82814,-1.37967 -0.0645,-0.10442 -0.0219,-0.34422 0.0947,-0.53289 0.17041,-0.27574 0.37465,-0.25895 1.04087,0.0856 0.45587,0.23574 0.82886,0.52478 0.82886,0.64231 0,0.11753 0.17084,0.21369 0.37963,0.21369 0.48952,0 3.06563,1.77337 4.01384,2.76309 0.40294,0.42058 0.58425,0.76469 0.40292,0.76469 -0.18134,0 -0.25612,0.11906 -0.16618,0.26458 0.19904,0.32206 0.11304,0.32808 -0.36463,0.0255 z"
         id="path36" /><path
         style="fill:#46a3a6"
         d="m 89.222002,151.72734 c -0.09895,-1.92345 0.562242,-4.20383 1.228028,-4.23531 0.250484,-0.0118 0.304993,-0.0765 0.125892,-0.14939 -0.449316,-0.18278 -0.11572,-0.88477 0.337762,-0.71075 0.250465,0.0961 0.374979,-0.0412 0.374979,-0.41358 0,-0.44303 0.162953,-0.55748 0.793749,-0.55748 0.436563,0 0.79375,-0.11906 0.79375,-0.26458 0,-0.14552 0.295388,-0.26458 0.656418,-0.26458 0.479519,0 0.701157,-0.17826 0.822433,-0.66146 0.148778,-0.59278 0.300393,-0.66146 1.460249,-0.66146 0.711828,0 1.294234,-0.11906 1.294234,-0.26458 0,-0.14552 -0.297657,-0.26459 -0.661459,-0.26459 -1.24311,0 -0.664237,-0.49074 0.79375,-0.6729 1.184855,-0.14804 1.455209,-0.27447 1.455209,-0.6805 0,-0.35554 0.189868,-0.49868 0.661458,-0.49868 0.363802,0 0.661456,-0.11906 0.661456,-0.26458 0,-0.14552 0.29766,-0.26459 0.66146,-0.26459 0.39953,0 0.66146,-0.15097 0.66146,-0.38126 0,-0.20969 0.13746,-0.46621 0.30546,-0.57004 0.18926,-0.11697 0.23365,-0.0726 0.11668,0.11667 -0.25192,0.40762 0.17437,0.39031 0.62209,-0.0253 0.28505,-0.26459 0.31897,-0.26459 0.16959,0 -0.10738,0.1902 -0.0396,0.33511 0.15963,0.34105 0.37075,0.011 2.06613,2.16451 2.06613,2.62439 0,0.15164 0.11533,0.2757 0.25628,0.2757 0.14095,0 0.18694,0.18071 0.10219,0.40156 -0.0847,0.22086 -0.28938,0.38535 -0.45472,0.36553 -0.16534,-0.0198 -0.62804,-0.0219 -1.02823,-0.005 -0.90868,0.0392 -0.97021,0.56051 -0.0661,0.56051 1.17549,0 0.70149,0.47401 -0.66146,0.66146 -1.06119,0.14595 -1.32292,0.28173 -1.32292,0.68629 0,0.38398 -0.18941,0.50433 -0.79375,0.50433 -0.43656,0 -0.79375,0.11907 -0.79375,0.26459 0,0.14552 -0.297654,0.26458 -0.661456,0.26458 -0.520644,0 -0.661458,0.13432 -0.661458,0.63097 0,0.56667 -0.155045,0.65302 -1.521355,0.84731 -1.051578,0.14954 -1.296678,0.24608 -0.79375,0.31265 1.143513,0.15135 0.852529,0.52348 -0.561394,0.71795 -0.994413,0.13676 -1.368052,0.32499 -1.634911,0.82362 -0.219808,0.41072 -0.413027,0.53775 -0.530012,0.34847 -0.135592,-0.21939 -0.233877,-0.21734 -0.373019,0.008 -0.134753,0.21803 -0.286343,0.22482 -0.528704,0.0237 -0.516893,-0.42898 -1.160032,-0.0478 -1.251338,0.74171 -0.06069,0.5248 -0.250781,0.7273 -0.743017,0.79154 -0.363802,0.0475 -0.840052,0.31381 -1.058333,0.59184 -0.366352,0.46663 -0.403204,0.38249 -0.479161,-1.09395 z m 30.771288,-16.12499 c -0.0914,-0.14789 -0.26924,-0.20521 -0.39518,-0.12738 -0.12594,0.0778 -0.95019,-0.60483 -1.83168,-1.51704 -1.31897,-1.36494 -1.53483,-1.70908 -1.21933,-1.94398 0.30317,-0.22572 0.31657,-0.36614 0.064,-0.67131 -0.17564,-0.21224 0.39503,0.34737 1.26816,1.24357 1.81757,1.86562 2.34364,2.49129 2.0947,2.49129 -0.0963,0 -0.0269,0.17859 0.15425,0.39688 0.18116,0.21828 0.2623,0.39687 0.18031,0.39687 -0.082,0 -0.22386,-0.121 -0.31526,-0.2689 z"
         id="path35" /><path
         style="fill:#4bac8f"
         d="m 84.002725,164.46226 c 0.08449,-0.13671 -0.07585,-0.23128 -0.356318,-0.21015 -0.781754,0.0589 -2.883402,-1.12552 -3.751446,-2.11417 -0.600206,-0.6836 -0.777131,-1.14225 -0.777131,-2.01462 0,-0.96247 0.145033,-1.26436 0.980669,-2.04131 0.539368,-0.50149 0.820058,-0.70056 0.623755,-0.44239 -0.196303,0.25818 -0.283085,0.54325 -0.192848,0.63348 0.185442,0.18545 2.023408,-0.99499 2.026199,-1.30133 0.0026,-0.28545 -0.630648,-0.24435 -1.004554,0.0652 -0.175144,0.145 -0.137501,0.058 0.08365,-0.19326 0.335512,-0.38124 0.489516,-0.40231 0.930001,-0.12723 0.437407,0.27317 0.650124,0.2496 1.240858,-0.13746 0.392124,-0.25693 0.774745,-0.42845 0.850267,-0.38115 0.07552,0.0473 0.179977,-0.042 0.232122,-0.19844 0.05214,-0.15644 -0.123472,-0.29198 -0.39026,-0.3012 -0.380594,-0.0132 -0.349524,-0.071 0.144254,-0.26864 0.490843,-0.19644 0.710759,-0.14909 0.999399,0.21521 0.349172,0.44069 0.365931,0.43773 0.296717,-0.0525 -0.07923,-0.5612 0.572582,-0.83515 1.31199,-0.55141 0.661221,0.25373 -0.04775,0.78718 -1.782222,1.34098 -3.210457,1.02507 -5.291666,2.487 -5.291666,3.71709 0,0.92643 1.157305,2.09343 2.767262,2.79044 1.143748,0.49517 1.458011,0.75881 1.461556,1.22612 0.0025,0.32742 -0.121574,0.59531 -0.275683,0.59531 -0.154109,0 -0.211067,-0.11185 -0.126573,-0.24857 z m 1.928125,-2.94923 c -0.719597,-0.54444 -0.962562,-1.58966 -0.525115,-2.259 0.369755,-0.56577 2.049368,-1.42039 2.793474,-1.42137 1.005931,-0.001 0.860961,0.77478 -0.217838,1.16621 -0.436562,0.1584 -1.031875,0.43047 -1.322917,0.6046 -0.770147,0.46078 -0.244303,1.1517 1.276436,1.67715 1.305642,0.45113 2.09189,0.99441 0.972523,0.67199 -0.798283,-0.22993 -1.033178,-0.23537 -1.719792,-0.0398 -0.319942,0.0911 -0.81685,-0.0669 -1.256771,-0.39978 z m 5.639838,-3.87051 c -1.008579,-1.21674 -2.040545,-3.31817 -2.245866,-4.57335 -0.0983,-0.60092 -0.07507,-0.74705 0.06616,-0.41622 0.182846,0.42831 0.242834,0.44418 0.375192,0.0993 0.08665,-0.22581 0.524283,-0.46439 0.972516,-0.53018 0.738233,-0.10835 0.838173,-0.0356 1.061414,0.77294 0.42654,1.54481 1.574169,3.20241 2.802054,4.04722 0.65143,0.44819 1.184418,0.89252 1.184418,0.9874 0,0.0949 -0.142875,0.0296 -0.3175,-0.14501 -0.372206,-0.3722 -0.840524,-0.42827 -0.621848,-0.0744 0.08262,0.13368 -0.237776,0.32116 -0.711989,0.41663 -0.474212,0.0955 -1.058451,0.22839 -1.298308,0.2954 -0.27458,0.0767 -0.743572,-0.24911 -1.266246,-0.87965 z m 3.698409,-2.11119 c -0.628043,-0.53758 -1.361234,-1.46032 -1.629313,-2.05052 -0.532731,-1.17287 -0.652473,-2.66683 -0.234455,-2.92518 0.145521,-0.0899 0.267752,-0.008 0.271624,0.18282 0.0039,0.19049 0.205157,0.027 0.4473,-0.36337 0.342825,-0.55264 0.721878,-0.74844 1.712751,-0.88472 1.399775,-0.19252 1.68336,-0.565 0.544887,-0.71568 -0.502928,-0.0666 -0.257828,-0.16311 0.79375,-0.31265 1.36631,-0.19429 1.521355,-0.28064 1.521355,-0.84731 0,-0.49665 0.140814,-0.63097 0.661458,-0.63097 0.363802,0 0.661456,-0.11906 0.661456,-0.26458 0,-0.14552 0.35719,-0.26459 0.79375,-0.26459 0.60434,0 0.79375,-0.12035 0.79375,-0.50433 0,-0.40456 0.26173,-0.54034 1.32292,-0.68629 1.36295,-0.18745 1.83695,-0.66146 0.66146,-0.66146 -0.90407,0 -0.84254,-0.52136 0.0661,-0.56051 0.40019,-0.0172 0.87644,-0.012 1.05834,0.0116 0.1819,0.0236 0.33073,-0.0884 0.33073,-0.24885 0,-0.16048 0.12717,-0.21319 0.28262,-0.11712 0.15544,0.0961 0.21871,0.34122 0.14059,0.54478 -0.0781,0.20356 0.003,0.37023 0.1804,0.37038 0.17734,1.5e-4 0.65554,0.59337 1.06269,1.31828 0.84397,1.50267 1.8784,4.3339 1.49742,4.09844 -0.13932,-0.0861 -0.26168,0.0588 -0.2719,0.32208 -0.0165,0.42553 -0.0425,0.41992 -0.23427,-0.0505 -0.20061,-0.49222 -0.22843,-0.48073 -0.39847,0.16459 -0.15398,0.5844 -0.39856,0.73531 -1.55167,0.95743 -0.87752,0.16903 -1.1077,0.27615 -0.64127,0.29843 1.25502,0.06 0.79299,0.49479 -0.7276,0.68477 -1.31441,0.16423 -1.45521,0.24397 -1.45521,0.82424 0,0.50471 -0.13844,0.64242 -0.64584,0.64242 -0.35522,0 -0.71943,0.11906 -0.80937,0.26458 -0.0899,0.14552 -0.45415,0.26458 -0.80936,0.26458 -0.4565,0 -0.64585,0.14634 -0.64585,0.49913 0,0.39119 -0.266389,0.53907 -1.231927,0.68386 -0.677562,0.10161 -1.400441,0.35325 -1.606399,0.55921 -0.526495,0.5265 -0.631749,0.49331 -1.912487,-0.60295 z m 27.734223,-13.75111 c -0.23772,-0.0633 -0.62419,-0.61773 -0.85882,-1.2321 -0.23462,-0.61436 -1.0961,-2.12292 -1.91438,-3.35236 -0.81828,-1.22943 -1.316,-2.09276 -1.10603,-1.91851 0.26908,0.22332 0.46458,0.23399 0.66241,0.0362 0.19784,-0.19784 0.47728,-0.0203 0.94687,0.60161 1.08476,1.43659 2.58011,4.33635 2.69197,5.22022 0.0572,0.45178 0.0829,0.80762 0.0571,0.79074 -0.0258,-0.0169 -0.24137,-0.0825 -0.47909,-0.14576 z"
         id="path34" /><path
         style="fill:#56c467"
         d="m 85.170173,176.6327 c -0.0802,-0.67946 -0.110048,-0.7761 -0.297656,-0.96371 -0.109141,-0.10914 -0.205984,0.0893 -0.215208,0.44098 l -0.01677,0.63941 -0.248326,-0.61975 c -0.136579,-0.34086 -0.17331,-0.74113 -0.08162,-0.88948 0.09169,-0.14835 0.05072,-0.34571 -0.09104,-0.43858 -0.141758,-0.0929 -0.338612,-0.49922 -0.437454,-0.903 -0.165593,-0.67647 -0.08616,-0.77425 1.011159,-1.24461 0.654979,-0.28076 1.78908,-0.68812 2.520224,-0.90524 1.154018,-0.34271 1.329352,-0.34432 1.329352,-0.0122 0,0.21044 0.0067,0.46432 0.01485,0.56417 0.0082,0.0998 -0.607449,0.36912 -1.368033,0.59837 -1.380253,0.41602 -2.034728,1.05555 -1.116259,1.09076 0.444351,0.017 0.44148,0.0356 -0.0342,0.22163 -0.486734,0.19031 -0.473784,0.23283 0.206695,0.6787 0.399279,0.26162 0.673045,0.52858 0.608369,0.59326 -0.06468,0.0647 -0.429295,-0.0866 -0.810264,-0.33626 -0.866486,-0.56775 -1.081345,-0.37244 -0.722551,0.6568 0.172042,0.49352 0.183794,0.86048 0.03059,0.95516 -0.136829,0.0846 -0.263664,0.0277 -0.281854,-0.12644 z m 8.709297,-10.04992 c -0.685108,-0.0957 -1.320019,-0.24838 -1.410913,-0.33927 -0.0909,-0.0909 0.350585,-0.1007 0.981067,-0.0218 0.790944,0.099 1.064304,0.058 0.881747,-0.13214 -0.145521,-0.15158 -0.56224,-0.31545 -0.926042,-0.36415 -0.363802,-0.0487 1.744069,-0.0981 4.684158,-0.1097 2.940093,-0.0116 5.296813,0.0578 5.237173,0.15432 -0.0597,0.0965 -0.47088,0.12228 -0.91385,0.0573 -0.48604,-0.0713 -0.8054,-0.001 -0.8054,0.1764 0,0.16204 -0.38695,0.31463 -0.85989,0.33909 -0.49795,0.0258 -0.19169,0.11841 0.7276,0.22011 1.1068,0.12244 0.38575,0.17839 -2.38125,0.18475 -2.182812,0.005 -4.529292,-0.0692 -5.2144,-0.16489 z m 4.685234,-3.19486 c 0.09265,-0.14992 -0.158573,-0.28027 -0.579698,-0.30079 -1.335369,-0.065 2.650264,-0.4751 4.416154,-0.45435 0.94589,0.0111 1.89839,-0.0447 2.11667,-0.124 0.98696,-0.35862 3.13706,-0.66874 3.67009,-0.52935 0.39061,0.10214 0.70292,-0.004 0.93208,-0.3177 0.18955,-0.25923 0.48176,-0.38657 0.64936,-0.28299 0.45845,0.28334 0.36618,0.68572 -0.1583,0.69031 -0.35478,0.003 -0.38048,0.0564 -0.10993,0.22788 0.26373,0.16717 0.19676,0.26568 -0.26458,0.38921 -0.87253,0.23362 -1.24688,0.17828 -0.61768,-0.0913 0.39109,-0.16758 0.23553,-0.2145 -0.5962,-0.17985 -0.92645,0.0386 -1.05135,0.10153 -0.70665,0.35597 0.34377,0.25375 0.15808,0.34164 -1.03743,0.491 -0.80088,0.10007 -1.58422,0.10279 -1.74075,0.006 -0.15653,-0.0967 -0.28459,-0.0498 -0.28459,0.1043 0,0.18032 -1.04303,0.2802 -2.92604,0.2802 -1.883309,0 -2.867755,-0.0943 -2.762506,-0.26458 z m 17.885596,-4.86688 c -0.38757,-0.41256 -0.49445,-0.69581 -0.30639,-0.81203 0.15884,-0.0982 0.21085,-0.30462 0.11558,-0.45877 -0.10877,-0.17599 -0.26626,-0.11402 -0.42327,0.16654 -0.21863,0.39067 -0.32208,0.40086 -0.82328,0.0811 -0.31528,-0.20113 -1.04949,-0.55586 -1.63157,-0.7883 -2.48121,-0.99078 -3.05593,-1.28833 -2.91836,-1.51093 0.20547,-0.33246 3.95562,0.73244 5.37698,1.52685 1.0389,0.58065 1.13204,0.70262 0.74993,0.98203 -0.38749,0.28334 -0.39157,0.35615 -0.0365,0.65084 0.32875,0.27284 0.3998,0.25552 0.3998,-0.0975 0,-0.59781 0.35726,-0.53545 0.95118,0.16604 l 0.50403,0.59531 -0.59531,-0.50403 c -0.56901,-0.48176 -0.75169,-0.3541 -0.62664,0.43789 0.0516,0.32689 -0.11016,0.23127 -0.7362,-0.43511 z m 8.05882,-5.16261 c -0.0815,-0.13195 0.0766,-0.18111 0.3514,-0.10925 0.27482,0.0719 0.57966,0.001 0.67744,-0.15696 0.11194,-0.18113 -0.0983,-0.28764 -0.56772,-0.28764 -0.54414,0 -0.99497,-0.29081 -1.66926,-1.07678 -0.50808,-0.59223 -1.12023,-1.2947 -1.36034,-1.56104 -0.31894,-0.35379 -0.35772,-0.5631 -0.14393,-0.77689 0.21379,-0.21379 0.59874,0.008 1.42875,0.82238 l 1.13612,1.11501 0.0264,-1.70873 c 0.0194,-1.25715 0.0824,-1.53393 0.23821,-1.04728 0.1972,0.61575 0.21366,0.6214 0.23821,0.0818 0.0145,-0.31883 0.13028,-0.64392 0.25728,-0.72241 0.127,-0.0785 0.31254,0.68566 0.4123,1.6981 0.0998,1.01244 0.30622,1.91795 0.4588,2.01225 0.18202,0.11249 0.15661,0.2461 -0.0739,0.38857 -0.19322,0.11942 -0.26834,0.3001 -0.16693,0.40151 0.10141,0.10141 0.39562,0.0231 0.65379,-0.17395 0.25818,-0.19708 0.11972,0.0241 -0.30769,0.49146 -0.77971,0.85265 -1.31247,1.05714 -1.58889,0.60989 z"
         id="path33" /><path
         style="fill:#51b872"
         d="m 92.74121,166.30264 c 0.05088,-0.0823 -0.582549,-0.15598 -1.407622,-0.16368 -1.993207,-0.0186 -5.665377,-0.84561 -5.431925,-1.22334 0.106035,-0.17157 0.05358,-0.21021 -0.130737,-0.0963 -0.482365,0.29812 -1.36143,-0.0949 -1.36143,-0.60861 0,-0.44079 0.09777,-0.43962 1.918229,0.0229 1.055026,0.26804 2.930261,0.66824 4.167188,0.88932 3.280988,0.58642 3.697125,0.68539 3.837574,0.91264 0.06981,0.11296 -0.280481,0.25294 -0.778429,0.31107 -0.497948,0.0581 -0.86373,0.0383 -0.812848,-0.044 z m -1.055673,-3.04869 c -2.348933,-0.36731 -4.365624,-0.9463 -4.365624,-1.25337 0,-0.21105 0.480234,-0.31093 0.926041,-0.1926 0.145521,0.0386 0.681302,0.10266 1.190625,0.1423 0.509323,0.0396 2.354792,0.24043 4.101042,0.44619 1.74625,0.20575 3.948906,0.3478 4.894791,0.31565 l 1.719788,-0.0584 -1.455204,0.1917 c -0.821502,0.10822 -1.119152,0.21048 -0.683507,0.23483 0.424435,0.0237 0.687926,0.1269 0.585535,0.22929 -0.323951,0.32395 -4.712033,0.28869 -6.913487,-0.0556 z m 4.630209,-2.69928 c -1.342486,-0.49265 -2.645834,-1.18559 -2.645834,-1.4067 0,-0.14188 -0.178593,-0.25797 -0.396875,-0.25797 -0.843649,0 -0.342909,-0.47016 0.673911,-0.63276 0.597998,-0.0956 0.999981,-0.28579 0.910426,-0.43069 -0.182003,-0.29449 0.215577,-0.35573 0.495051,-0.0763 0.2773,0.2773 1.214682,0.43766 2.683112,0.45902 1.239852,0.018 1.322917,-0.0223 1.322917,-0.64223 0,-0.50941 -0.152044,-0.67848 -0.661458,-0.73553 -1.606451,-0.17989 -1.896934,-0.31575 -1.507591,-0.70509 0.201656,-0.20166 0.921016,-0.44978 1.598578,-0.55139 0.965538,-0.14479 1.231927,-0.29267 1.231927,-0.68386 0,-0.35279 0.18935,-0.49913 0.64585,-0.49913 0.35521,0 0.71942,-0.11906 0.80936,-0.26458 0.0899,-0.14552 0.45415,-0.26458 0.80937,-0.26458 0.5074,0 0.64584,-0.13771 0.64584,-0.64242 0,-0.58027 0.1408,-0.66001 1.45521,-0.82424 1.52059,-0.18998 1.98262,-0.62481 0.7276,-0.68477 -0.46643,-0.0223 -0.23625,-0.1294 0.64127,-0.29843 1.15311,-0.22212 1.39769,-0.37303 1.55167,-0.95743 0.17004,-0.64532 0.19786,-0.65681 0.39847,-0.16459 0.19174,0.47045 0.21773,0.47606 0.23427,0.0505 0.0374,-0.96289 0.44908,-0.17898 0.50846,0.96824 0.12025,2.32308 -1.9845,6.75719 -3.21746,6.77826 -0.26325,0.005 -0.41068,0.11814 -0.32762,0.25253 0.21166,0.34248 -1.37157,1.41834 -1.74636,1.18671 -0.18127,-0.11203 -0.23618,-0.0749 -0.1339,0.0906 0.45454,0.73547 -5.12925,1.51542 -6.706194,0.93674 z m 28.341104,-11.87318 c -0.0169,-0.30316 -0.11616,-0.63668 -0.22062,-0.74114 -0.10446,-0.10446 -0.39298,-1.10657 -0.64117,-2.22691 -0.24818,-1.12034 -0.56524,-2.47617 -0.70459,-3.01296 -0.23395,-0.90124 -0.0604,-1.27298 0.59445,-1.27298 0.10353,0 1.13212,3.39708 1.33426,4.40658 0.0982,0.49051 0.0499,0.90719 -0.11726,1.01047 -0.15642,0.0967 -0.21469,0.28854 -0.1295,0.42638 0.0852,0.13784 0.26572,0.18212 0.40119,0.0984 0.31571,-0.19512 0.3213,0.22342 0.007,0.55369 -0.1314,0.13825 -0.29618,0.48948 -0.36618,0.78052 -0.12293,0.51108 -0.12833,0.51033 -0.15798,-0.0221 z"
         id="path32" /><path
         style="fill:#58ca52"
         d="m 93.91033,177.79342 c -2.582888,-0.46767 -5.624173,-1.56574 -7.053438,-2.54667 -1.271843,-0.87289 -1.350991,-1.01092 -0.579698,-1.01092 0.29963,0 0.479535,0.10558 0.399789,0.23461 -0.254632,0.412 0.584172,0.87771 1.225545,0.68043 0.334405,-0.10286 0.519746,-0.0939 0.411868,0.0199 -0.23589,0.2489 0.271469,0.91876 0.691559,0.91306 0.164083,-0.002 0.123187,-0.11482 -0.09088,-0.2502 -0.633066,-0.40036 -0.144847,-0.57963 0.683247,-0.25088 3.264609,1.29604 8.744908,1.8695 12.549528,1.31319 3.02285,-0.442 6.03292,-1.41817 8.6837,-2.81614 2.33592,-1.23192 2.94669,-1.39794 2.94669,-0.80097 0,0.37555 -2.11732,1.73746 -4.23333,2.72298 -4.27157,1.98946 -10.561195,2.71019 -15.63458,1.79157 z m 6.83719,-11.4219 c 0.47294,-0.0587 0.85989,-0.23175 0.85989,-0.38456 0,-0.15912 0.34418,-0.22734 0.8054,-0.15964 0.44297,0.065 0.86672,0.019 0.94166,-0.10227 0.0749,-0.12125 0.47082,-0.22047 0.87973,-0.22047 1.20804,0 5.29933,-0.75872 7.29509,-1.35287 2.52426,-0.75148 4.47011,-1.73963 5.36743,-2.72572 0.63884,-0.70204 0.7177,-0.94711 0.5335,-1.65796 -0.11888,-0.45878 -0.56066,-1.12404 -0.98172,-1.47834 -0.54001,-0.45439 -0.69656,-0.75318 -0.53134,-1.01413 0.21599,-0.34113 0.35727,-0.14134 0.26702,0.37761 -0.0209,0.12011 0.19327,0.14498 0.47591,0.0553 0.42752,-0.13569 0.49148,-0.0612 0.38057,0.44309 -0.0947,0.43068 -0.0607,0.50397 0.11747,0.25315 0.19625,-0.27627 0.37905,-0.18998 0.8406,0.39679 0.71486,0.9088 0.61173,2.03828 -0.2988,3.27219 -1.35326,1.83389 -6.63348,3.63488 -12.35024,4.21244 -2.57166,0.25981 -6.611691,0.3348 -4.60217,0.0854 z"
         id="path31" /></g></g></svg>
