<?xml version="1.0" encoding="UTF-8" standalone="no"?>
<!-- Created with Inkscape (http://www.inkscape.org/) -->

<svg
   width="210mm"
   height="297mm"
   viewBox="0 0 210 297"
   version="1.1"
   id="svg1"
   xml:space="preserve"
   xmlns="http://www.w3.org/2000/svg"
   xmlns:svg="http://www.w3.org/2000/svg"><defs
     id="defs1"><linearGradient
       id="swatch1"><stop
         style="stop-color:#000000;stop-opacity:1;"
         offset="0"
         id="stop1" /></linearGradient></defs><g
     id="layer1"><g
       id="g129"
       transform="matrix(1.3445236,0,0,1.1657002,-15.198718,17.15691)"><path
         style="fill:#fdf9fd"
         d="m 84.136842,154.59798 c 1.49933,-0.0473 3.88058,-0.0471 5.291667,4.3e-4 1.411087,0.0475 0.184363,0.0861 -2.726053,0.0859 -2.910417,-2.4e-4 -4.064943,-0.0391 -2.565614,-0.0863 z M 79.227976,141.1265 c -0.181901,-0.0734 -0.330729,-0.22197 -0.330729,-0.33016 0,-0.10819 0.357188,-0.14429 0.79375,-0.0802 0.436563,0.0641 0.79375,0.22204 0.79375,0.35105 0,0.129 -0.208359,0.22515 -0.463021,0.21366 -0.254661,-0.0115 -0.611849,-0.0809 -0.79375,-0.15434 z m 10.300295,-2.13987 c -0.02623,-0.76399 -0.166753,-1.38906 -0.312274,-1.38906 -0.14552,0 -0.264583,-0.14458 -0.264583,-0.32128 v -0.32128 l 0.413028,0.41302 0.413027,0.41303 -0.100753,1.29732 -0.100754,1.29731 z m 7.190415,0.68751 c -0.457427,-0.12375 -0.909035,-0.42657 -1.003573,-0.67293 l -0.171888,-0.44793 0.50229,0.45456 c 0.276259,0.25001 0.686058,0.38405 0.910665,0.29786 0.224606,-0.0862 0.491872,-0.0216 0.593924,0.14351 0.102052,0.16513 0.143861,0.33391 0.09291,0.37508 -0.05095,0.0412 -0.466899,-0.0264 -0.924328,-0.15015 z m -7.238492,-4.72313 -0.283589,-0.52989 0.542235,-1.12376 c 0.298229,-0.61806 0.460528,-0.88563 0.360663,-0.59459 -0.09986,0.29104 -0.166838,1.03519 -0.14883,1.65365 0.01801,0.61846 -0.01668,1.12448 -0.07707,1.12448 -0.0604,0 -0.237431,-0.23845 -0.393404,-0.52989 z m -7.043306,-10.31803 c 0,-1.67349 0.04296,-2.3581 0.09547,-1.52135 0.05251,0.83674 0.05251,2.20596 0,3.04271 -0.05251,0.83674 -0.09547,0.15213 -0.09547,-1.52136 z m -33.172975,0.97014 c 0,-0.24253 -0.131801,-0.44097 -0.292891,-0.44097 -0.16109,0 -0.229925,-0.16409 -0.152967,-0.36464 0.07696,-0.20055 0.01979,-0.48476 -0.127038,-0.63159 l -0.266962,-0.26696 0.328518,-0.20304 0.328517,-0.20303 -0.188787,0.30546 c -0.103832,0.16801 -0.07758,0.30546 0.05834,0.30546 0.135919,0 0.322366,0.37621 0.414327,0.83601 0.09196,0.45981 0.106844,0.89637 0.03307,0.97014 -0.07377,0.0738 -0.134129,-0.0643 -0.134129,-0.30684 z m -1.621267,-4.07899 c -0.01857,-0.10914 -0.06107,-0.45014 -0.09444,-0.75778 -0.03337,-0.30763 -0.144265,-0.69458 -0.246431,-0.85989 -0.102167,-0.16531 -0.05967,-0.30056 0.09444,-0.30056 0.154109,0 0.298333,0.20836 0.320498,0.46302 0.02217,0.25466 0.05508,0.58208 0.07314,0.7276 0.01806,0.14552 0.126016,0.41341 0.239898,0.59531 l 0.207059,0.33073 h -0.280198 c -0.154109,0 -0.295393,-0.0893 -0.313966,-0.19843 z m 47.658768,-0.59532 c 0,-0.14552 0.0893,-0.28046 0.198438,-0.29987 0.10914,-0.0194 0.58539,-0.0568 1.058333,-0.0831 0.472943,-0.0263 0.859896,0.064 0.859896,0.20065 0,0.13666 -0.357188,0.17704 -0.79375,0.0897 l -0.79375,-0.15875 v 0.25797 c 0,0.14188 -0.119063,0.25797 -0.264583,0.25797 -0.145521,0 -0.264584,-0.11907 -0.264584,-0.26459 z M 40.476356,110.08066 c -0.04179,-3.20159 0.01331,-5.82097 0.122453,-5.82084 0.10914,1.4e-4 0.198437,2.43129 0.198437,5.40256 0,2.97128 0.07227,5.59065 0.160599,5.82084 0.08833,0.23018 0.03323,0.41851 -0.122453,0.41851 H 40.55234 Z m 91.183724,-0.52893 c 0,-2.83766 0.0389,-3.99852 0.0865,-2.57969 0.0476,1.41883 0.0476,3.74055 0,5.15938 -0.0476,1.41883 -0.0865,0.25797 -0.0865,-2.57969 z m -77.986445,0.88194 c -0.09701,-0.097 -0.167563,-0.84115 -0.156777,-1.65364 0.01079,-0.81249 0.113727,-2.01304 0.228756,-2.66788 l 0.209143,-1.19063 -0.03032,2.84263 c -0.01667,1.56345 -0.04024,2.84337 -0.05237,2.84427 -0.01213,9e-4 -0.101424,-0.0777 -0.198438,-0.17475 z M 79.95558,90.501729 v -0.264584 h 5.969144 5.969143 l -0.08216,-2.999143 -0.08216,-2.999144 0.264583,-2.2e-5 0.264584,-2.1e-5 -0.08375,2.927121 c -0.04606,1.609916 -0.209469,3.078603 -0.363126,3.263748 l -0.279376,0.336628 H 85.744017 79.95558 Z m 17.462501,0 c 0,-0.145521 0.66187,-0.264584 1.470823,-0.264584 h 1.470826 l -0.16352,0.264584 c -0.0899,0.145521 -0.751811,0.264583 -1.470827,0.264583 -0.719016,0 -1.307302,-0.119062 -1.307302,-0.264583 z M 59.582663,90.314347 c 0,-0.0768 0.357188,-0.54645 0.79375,-1.043667 0.436563,-0.497217 0.79375,-0.747808 0.79375,-0.556868 0,0.190939 -0.357187,0.660589 -0.79375,1.043666 -0.436562,0.383077 -0.79375,0.633668 -0.79375,0.556869 z M 79.32243,90.083214 c -0.08833,-0.230183 -0.1606,-1.916902 -0.1606,-3.748264 0,-1.831362 0.08088,-3.248875 0.179722,-3.150028 0.09885,0.09885 0.188143,1.785406 0.198437,3.747911 0.01029,1.962504 0.0017,3.568348 -0.01912,3.568543 -0.02081,1.94e-4 -0.110108,-0.187979 -0.198437,-0.418162 z m -5.76649,-3.047068 c -0.04546,-1.615028 0.0066,-2.991274 0.115786,-3.058323 0.109141,-0.06705 0.198438,1.254338 0.198438,2.936416 0,1.682077 -0.0521,3.058323 -0.115786,3.058323 -0.06368,0 -0.152979,-1.321387 -0.198438,-2.936416 z m 23.200683,-4.632177 c -0.291042,-0.345412 -0.767292,-0.638651 -1.058334,-0.651644 l -0.529166,-0.02362 0.339457,-0.136362 c 0.186702,-0.075 0.543889,-0.0467 0.79375,0.06289 0.249861,0.10959 0.573355,0.170431 0.718876,0.135201 0.145521,-0.03523 0.176319,0.02421 0.06844,0.132089 -0.107878,0.107878 -0.06115,0.358802 0.103849,0.557609 0.164996,0.198807 0.253259,0.404305 0.196142,0.456662 -0.05712,0.05236 -0.341974,-0.187414 -0.633015,-0.532825 z M 83.593601,63.581678 c 1.346068,-0.04802 3.548724,-0.04802 4.894792,0 1.346068,0.04802 0.24474,0.08731 -2.447396,0.08731 -2.692135,0 -3.793463,-0.03929 -2.447396,-0.08731 z"
         id="path145" /><path
         style="fill:#f5fcfb"
         d="m 82.174207,124.89756 c 0,-1.81901 0.04227,-2.56315 0.09394,-1.65364 0.05166,0.9095 0.05166,2.39778 0,3.30729 -0.05166,0.90951 -0.09394,0.16536 -0.09394,-1.65365 z M 73.972965,87.194437 c 4.63e-4,-1.891771 0.04261,-2.63096 0.09365,-1.642643 0.05105,0.988318 0.05067,2.536131 -8.41e-4,3.439584 -0.05151,0.903453 -0.09327,0.09483 -0.09281,-1.796941 z m 5.819041,0 c 5.23e-4,-1.74625 0.04334,-2.426194 0.09516,-1.510986 0.05181,0.915208 0.05138,2.343958 -9.51e-4,3.175 -0.05234,0.831042 -0.09473,0.08224 -0.09421,-1.664014 z"
         id="path144" /><path
         style="fill:#fcf5fa"
         d="m 91.134556,131.47279 -0.303942,-0.30394 0.399793,-0.77312 0.399793,-0.77311 0.380399,0.3157 c 0.209219,0.17364 0.380398,0.37524 0.380398,0.448 0,0.0728 -0.159906,-4.2e-4 -0.355347,-0.16262 l -0.355348,-0.29492 -0.296133,0.64995 -0.296133,0.64994 0.254605,0.15735 c 0.140034,0.0865 0.392065,0.0724 0.56007,-0.0314 l 0.305464,-0.18879 -0.188787,0.30547 c -0.103833,0.168 -0.27701,0.30546 -0.384839,0.30546 -0.107828,0 -0.332825,-0.13677 -0.499993,-0.30394 z"
         id="path143" /><path
         style="fill:#dae9e2"
         d="m 88.771517,139.18507 c 0,-0.94589 0.04802,-1.33284 0.106712,-0.8599 0.05869,0.47294 0.05869,1.24685 0,1.71979 -0.05869,0.47294 -0.106712,0.086 -0.106712,-0.85989 z"
         id="path142" /><path
         style="fill:#d4e7dc"
         d="m 83.739636,154.33349 c 1.426387,-0.0477 3.688574,-0.0475 5.027083,4.6e-4 1.33851,0.0479 0.171466,0.0869 -2.59343,0.0867 -2.764896,-2.5e-4 -3.86004,-0.0395 -2.433653,-0.0871 z M 40.907071,109.28715 c 0,-2.69214 0.03929,-3.79347 0.08731,-2.4474 0.04802,1.34607 0.04802,3.54872 0,4.89479 -0.04802,1.34607 -0.08731,0.24474 -0.08731,-2.44739 z m 90.487969,-0.1323 c 2.5e-4,-2.76489 0.0395,-3.86004 0.0871,-2.43365 0.0477,1.42639 0.0475,3.68858 -4.6e-4,5.02709 -0.0479,1.3385 -0.0869,0.17146 -0.0867,-2.59344 z M 83.725893,63.846393 c 1.273307,-0.0485 3.356901,-0.0485 4.630209,0 1.273307,0.0485 0.23151,0.08819 -2.315105,0.08819 -2.546614,0 -3.588411,-0.03968 -2.315104,-0.08819 z"
         id="path141" /><path
         style="fill:#c6dcd0"
         d="m 70.015831,97.380896 c 0,-3.565261 0.03745,-5.023777 0.08323,-3.241146 0.04577,1.78263 0.04577,4.699662 0,6.48229 -0.04577,1.78263 -0.08323,0.32412 -0.08323,-3.241144 z"
         id="path140" /><path
         style="fill:#aac9b8"
         d="m 82.701471,124.63298 c 0,-1.67349 0.04296,-2.3581 0.09547,-1.52135 0.05251,0.83674 0.05251,2.20596 0,3.04271 -0.05251,0.83674 -0.09547,0.15213 -0.09547,-1.52136 z M 78.998256,87.194437 c 5.23e-4,-1.74625 0.04334,-2.426194 0.09516,-1.510986 0.05181,0.915208 0.05138,2.343958 -9.51e-4,3.175 -0.05234,0.831042 -0.09473,0.08224 -0.09421,-1.664014 z"
         id="path139" /><path
         style="fill:#94b7a5"
         d="m 97.255457,87.326728 c 0,-1.81901 0.04227,-2.563151 0.09394,-1.653645 0.05167,0.909505 0.05167,2.397786 0,3.307291 -0.05166,0.909506 -0.09394,0.165365 -0.09394,-1.653646 z"
         id="path138" /><path
         style="fill:#78a48c"
         d="m 92.491055,87.326728 c 0,-1.673489 0.04296,-2.358099 0.09547,-1.521354 0.05251,0.836745 0.05251,2.205964 0,3.042709 -0.05251,0.836745 -0.09547,0.152135 -0.09547,-1.521355 z"
         id="path137" /><path
         style="fill:#749c87"
         d="m 70.89834,90.839144 c 0.475548,-0.05889 1.189923,-0.05767 1.5875,0.0027 0.397576,0.06037 0.0085,0.10855 -0.864635,0.107065 -0.873125,-0.0015 -1.198414,-0.05088 -0.722865,-0.109765 z m 11.901511,-0.0058 c 1.63711,-0.04642 4.316016,-0.04642 5.953126,0 1.637109,0.04642 0.297656,0.0844 -2.976563,0.0844 -3.274219,0 -4.613672,-0.03798 -2.976563,-0.0844 z m -8.566132,-3.638945 c 5.97e-4,-1.600729 0.04418,-2.22146 0.09684,-1.379402 0.05267,0.842058 0.05218,2.151746 -0.0011,2.910417 -0.05326,0.758671 -0.09635,0.06971 -0.09576,-1.531015 z"
         id="path136" /><path
         style="fill:#3b7353"
         d="m 101.23635,97.248604 c 1.7e-4,-3.4925 0.0378,-4.884656 0.0837,-3.093681 0.0458,1.790976 0.0457,4.648476 -3.1e-4,6.349997 -0.046,1.70153 -0.0835,0.23618 -0.0833,-3.256316 z"
         id="path135" /><path
         style="fill:#346748"
         d="m 84.004219,154.0689 c 1.426387,-0.0477 3.688574,-0.0475 5.027084,4.7e-4 1.338509,0.0479 0.171465,0.0869 -2.593431,0.0867 -2.764896,-2.5e-4 -3.86004,-0.0395 -2.433653,-0.0871 z M 41.172116,109.41944 c 2.55e-4,-2.7649 0.03946,-3.86004 0.08713,-2.43365 0.04767,1.42638 0.04746,3.68857 -4.63e-4,5.02708 -0.04792,1.33851 -0.08692,0.17146 -0.08666,-2.59343 z m 89.959654,-0.39688 c 0,-2.98317 0.0386,-4.20356 0.0857,-2.71198 0.0472,1.49159 0.0472,3.93237 0,5.42396 -0.0472,1.49159 -0.0857,0.2712 -0.0857,-2.71198 z M 83.725893,64.11073 c 1.418828,-0.04757 3.740547,-0.04757 5.159375,0 1.418828,0.04757 0.257969,0.0865 -2.579687,0.0865 -2.837657,0 -3.998516,-0.03892 -2.579688,-0.0865 z"
         id="path134" /><path
         style="fill:#265c38"
         d="m 82.967957,124.89756 c 0,-1.81901 0.04227,-2.56315 0.09394,-1.65364 0.05166,0.9095 0.05166,2.39778 0,3.30729 -0.05166,0.90951 -0.09394,0.16536 -0.09394,-1.65365 z M 78.733672,87.194437 c 5.23e-4,-1.74625 0.04334,-2.426194 0.09516,-1.510986 0.05181,0.915208 0.05139,2.343958 -9.52e-4,3.175 -0.05234,0.831042 -0.09473,0.08224 -0.09421,-1.664014 z"
         id="path133" /><path
         style="fill:#255c35"
         d="m 81.543081,153.75051 v -0.27794 l 4.167187,-0.0144 c 2.291953,-0.008 4.675843,-0.0456 5.297532,-0.0837 l 1.130345,-0.0693 -0.09372,0.28218 -0.09373,0.28218 -5.203808,0.0795 -5.203807,0.0795 z m 15.345833,-7.04338 c 0.218281,-0.0856 0.575469,-0.2271 0.79375,-0.31442 0.218282,-0.0873 0.613172,-0.18108 0.877534,-0.20834 l 0.480658,-0.0496 -0.23891,0.23891 c -0.131401,0.1314 -0.704885,0.2952 -1.274409,0.364 -0.569524,0.0688 -0.856904,0.055 -0.638623,-0.0306 z m -24.738542,-0.90748 c -0.08994,-0.14552 -0.473995,-0.26458 -0.853462,-0.26458 -0.379468,0 -0.600644,-0.0893 -0.491503,-0.19844 0.10914,-0.10914 0.277812,-0.20026 0.374826,-0.20249 0.09701,-0.002 0.343613,-0.10992 0.547998,-0.23932 l 0.37161,-0.23527 -0.188787,0.30547 c -0.103833,0.168 -0.0627,0.30546 0.09141,0.30546 0.154109,0 0.280199,-0.12609 0.280199,-0.2802 0,-0.15411 0.131774,-0.19875 0.292831,-0.0992 l 0.292831,0.18097 -0.326729,0.20193 c -0.1797,0.11106 -0.244916,0.33431 -0.144924,0.4961 0.09999,0.16179 0.122273,0.29416 0.04951,0.29416 -0.07276,0 -0.205876,-0.11906 -0.295813,-0.26458 z m 16.107468,-7.5689 c -0.01766,-1.22138 0.07163,-2.22069 0.198438,-2.22069 0.126804,0 0.230553,0.94548 0.230553,2.10106 0,1.15558 -0.0893,2.15488 -0.198438,2.22068 -0.10914,0.0658 -0.212889,-0.87968 -0.230553,-2.10105 z m -18.356426,-6.93909 c 0,-0.31529 -0.131801,-0.57326 -0.292891,-0.57326 -0.16109,0 -0.224358,0.17859 -0.140596,0.39687 0.08376,0.21828 0.088,0.39688 0.0094,0.39688 -0.07859,0 -0.321481,-0.1786 -0.539762,-0.39688 L 68.54069,130.7184 h 0.415774 c 0.228676,0 0.415774,-0.11906 0.415774,-0.26459 0,-0.14552 0.116794,-0.26458 0.259542,-0.26458 0.142749,0 0.335641,0.3032 0.428651,0.67378 0.09301,0.37058 0.09528,0.74761 0.005,0.83785 -0.09024,0.0902 -0.164067,-0.0939 -0.164067,-0.4092 z m 31.884956,-4.5377 c -0.0914,-0.14789 -0.0255,-0.2689 0.14641,-0.2689 h 0.31259 l -0.31883,-0.38417 -0.31884,-0.38418 0.18307,-0.57682 0.18308,-0.57683 0.2316,0.36569 c 0.12739,0.20113 0.23161,0.48475 0.23161,0.63027 0,0.14552 -0.11541,0.086 -0.25648,-0.13229 l -0.25648,-0.39687 -0.004,0.46302 c -0.002,0.25466 0.11501,0.46302 0.26053,0.46302 0.14552,0 0.26458,0.17156 0.26458,0.38126 0,0.20969 -0.11083,0.44976 -0.2463,0.53348 -0.13546,0.0837 -0.32108,0.0312 -0.41249,-0.11668 z m -13.271673,-2.91473 c 0,-1.23693 0.04558,-1.74294 0.10128,-1.12448 0.0557,0.61847 0.0557,1.6305 0,2.24896 -0.0557,0.61846 -0.10128,0.11245 -0.10128,-1.12448 z m 41.988223,-15.68537 c 0.0146,-2.71718 -0.0591,-5.09181 -0.16377,-5.27696 l -0.19037,-0.33663 0.32323,0.29764 0.32322,0.29764 -0.0272,4.84707 c -0.015,2.6659 -0.0867,4.90659 -0.15946,4.97932 -0.0727,0.0727 -0.12027,-2.0909 -0.10564,-4.80808 z m -59.47447,-1.56624 c -0.02321,-0.30808 -0.196987,-0.67139 -0.386178,-0.80736 l -0.343983,-0.2472 0.446846,0.14274 0.446847,0.14274 0.115382,-0.71309 c 0.06346,-0.3922 0.08742,-0.14439 0.05325,0.55069 -0.03417,0.69509 -0.113393,1.31506 -0.17605,1.37771 -0.06266,0.0627 -0.132909,-0.13814 -0.156117,-0.44623 z m -18.207472,-3.06554 c 0.0081,-0.61183 0.09708,-1.1128 0.197633,-1.11326 0.100552,-4.6e-4 0.25238,0.11171 0.337396,0.24926 0.08501,0.13756 -0.0039,0.63853 -0.197633,1.11327 l -0.352206,0.86316 z m 18.138769,-0.0558 c 0,-0.29104 -0.119063,-0.52916 -0.264583,-0.52916 H 70.43058 V 97.063396 91.189645 L 70.675812,91.441 c 0.134878,0.138244 0.283706,3.01965 0.33073,6.403124 0.04702,3.383476 0.05573,6.151676 0.01935,6.151566 -0.03638,-1.2e-4 -0.06615,-0.23834 -0.06615,-0.52938 z m 30.011033,-6.085414 c 0,-3.274219 0.038,-4.613672 0.0844,-2.976563 0.0464,1.63711 0.0464,4.316016 0,5.953127 -0.0464,1.63711 -0.0844,0.29765 -0.0844,-2.976564 z m -0.52917,-0.264584 c 0,-3.274219 0.038,-4.613672 0.0844,-2.976562 0.0464,1.637109 0.0464,4.316016 0,5.95313 -0.0464,1.6371 -0.0844,0.29765 -0.0844,-2.976568 z m 28.75609,4.447018 -0.34723,-0.55599 -0.23807,0.36959 -0.23807,0.36959 -0.23702,-0.3679 c -0.13037,-0.20234 -0.69591,-0.46475 -1.25677,-0.58313 l -1.01975,-0.21522 1.05833,0.12214 c 0.58209,0.0672 1.27039,0.15893 1.52957,0.20391 0.25918,0.045 0.66881,0.27935 0.91029,0.52083 0.24148,0.24149 0.38211,0.49601 0.3125,0.56562 -0.0696,0.0696 -0.28281,-0.12364 -0.47378,-0.42944 z M 96.215798,90.169883 c -0.07712,-0.200963 -0.101385,-1.607494 -0.05393,-3.125625 l 0.08628,-2.760238 0.108575,3.042708 0.108575,3.042709 0.159033,-3.042709 0.159033,-3.042708 0.05277,2.960948 0.05277,2.960948 -0.266452,0.164676 c -0.146548,0.09057 -0.329547,2.53e-4 -0.406664,-0.200709 z"
         id="path132" /><path
         style="fill:#245934"
         d="m 83.593601,153.27572 c 1.200547,-0.049 3.165079,-0.049 4.365626,0 1.200546,0.049 0.218281,0.0891 -2.182813,0.0891 -2.401094,0 -3.38336,-0.0401 -2.182813,-0.0891 z m 8.532813,-18.8752 c 0,-0.10914 0.124353,-0.23989 0.27634,-0.29055 0.151986,-0.0507 0.296386,-0.35824 0.320887,-0.68351 0.0245,-0.32527 0.151013,-0.5914 0.281135,-0.5914 0.130123,0 0.164317,0.18834 0.07599,0.41852 -0.08833,0.23018 -0.160599,0.62706 -0.160599,0.88194 0,0.25489 -0.178594,0.46343 -0.396875,0.46343 -0.218281,0 -0.396875,-0.0893 -0.396875,-0.19843 z m -18.117415,-4.99445 c -0.07309,-0.11826 0.133668,-0.28645 0.459453,-0.37377 0.325785,-0.0873 0.82054,-0.16039 1.099455,-0.16237 0.278915,-0.002 0.443913,0.0596 0.366662,0.13684 -0.07725,0.0773 -0.512207,0.24707 -0.966571,0.37738 -0.454363,0.13031 -0.885913,0.14017 -0.958999,0.0219 z m 13.711948,-5.56684 c 0,-1.23693 0.04558,-1.74294 0.10128,-1.12448 0.0557,0.61847 0.0557,1.6305 0,2.24896 -0.0557,0.61846 -0.10128,0.11245 -0.10128,-1.12448 z m 32.098523,-13.93472 c -0.097,-0.097 -0.17639,-0.4017 -0.17639,-0.67708 0,-0.27537 0.11141,-0.43182 0.24758,-0.34767 l 0.24758,0.15301 -0.23058,-0.80396 -0.23057,-0.80396 0.22756,0.14064 c 0.12515,0.0774 0.28228,-0.0692 0.34917,-0.32563 0.0669,-0.25644 0.13544,0.27789 0.15232,1.18739 0.0169,0.90951 -0.0685,1.65365 -0.18979,1.65365 -0.12127,0 -0.29987,-0.0794 -0.39688,-0.17639 z M 71.337443,97.380896 c 0,-3.274219 0.03798,-4.613672 0.0844,-2.976563 0.04642,1.63711 0.04642,4.316016 0,5.953127 -0.04642,1.63711 -0.0844,0.29765 -0.0844,-2.976564 z m 28.839217,-0.132292 c 2e-4,-3.201458 0.0384,-4.474781 0.0849,-2.829607 0.0465,1.645175 0.0463,4.26455 -3.6e-4,5.820833 -0.0467,1.55628 -0.0847,0.21023 -0.0845,-2.991226 z m -4.15894,-6.220696 c -0.07127,-0.272546 -0.07136,-0.55376 -2.04e-4,-0.62492 0.07116,-0.07116 0.296336,-0.06532 0.50039,0.01299 0.204055,0.0783 0.371008,0.295486 0.371008,0.482629 0,0.187143 -0.166862,0.404291 -0.370804,0.482551 l -0.370804,0.142291 z m 0.972203,-3.833471 c 5.23e-4,-1.74625 0.04334,-2.426194 0.09516,-1.510986 0.05181,0.915208 0.05138,2.343958 -9.51e-4,3.175 -0.05234,0.831042 -0.09473,0.08224 -0.09421,-1.664014 z m 15.283927,1.455208 c -0.0122,-0.218281 0.13792,-0.608008 0.33372,-0.866059 l 0.35599,-0.469185 0.15426,0.589922 c 0.0849,0.324457 0.093,0.651204 0.0181,0.726105 -0.0749,0.0749 -0.23671,-0.02648 -0.35959,-0.225286 l -0.2234,-0.361471 -0.12839,0.501425 -0.1284,0.501424 z"
         id="path131" /><path
         style="fill:#245932"
         d="m 91.392254,153.70139 0.0727,-0.33968 -0.661459,-0.0526 c -0.363802,-0.0289 -3.127141,-0.0804 -6.140754,-0.11446 l -5.479295,-0.0619 0.263084,-0.49157 c 0.144696,-0.27037 0.325452,-0.49158 0.401681,-0.49158 0.07623,0 0.06501,0.11906 -0.02492,0.26458 -0.08994,0.14552 -0.03743,0.26459 0.116677,0.26459 0.154109,0 0.280198,-0.1786 0.280198,-0.39688 v -0.39687 h -0.608542 c -0.334698,0 -0.721651,0.11367 -0.859896,0.25261 l -0.251354,0.25262 0.08705,-1.97241 c 0.04788,-1.08482 -0.01761,-1.97241 -0.145521,-1.97241 -0.127913,0 -0.382499,0.14883 -0.565745,0.33073 l -0.333175,0.33073 0.176274,-0.46302 c 0.09695,-0.25466 0.34213,-0.46302 0.544842,-0.46302 0.202712,0 0.368568,-0.17176 0.368568,-0.38168 v -0.38169 l -0.505584,0.0974 c -0.278071,0.0536 -0.724556,-0.0812 -0.992188,-0.2994 -0.267632,-0.21822 -0.337775,-0.32137 -0.155874,-0.22923 l 0.330729,0.16753 v -0.54479 c 0,-0.29963 -0.126089,-0.54478 -0.280198,-0.54478 -0.154109,0 -0.199272,0.13094 -0.100363,0.29098 l 0.179836,0.29098 -0.563467,-0.30156 c -0.309907,-0.16585 -1.038651,-0.27352 -1.61943,-0.23925 -0.580779,0.0343 -1.057785,0.18786 -1.060013,0.34131 -0.0022,0.15345 -0.109274,0.11282 -0.23788,-0.0903 -0.128606,-0.20311 -0.424439,-0.29614 -0.657407,-0.20674 -0.232968,0.0894 -0.423578,0.0571 -0.423578,-0.0717 0,-0.12883 0.140143,-0.28095 0.311428,-0.33804 0.171285,-0.0571 0.224186,-0.24497 0.117556,-0.4175 -0.106629,-0.17253 -0.443419,-0.44725 -0.748422,-0.61048 l -0.55455,-0.29679 0.152615,0.39771 0.152615,0.39771 -0.506395,-0.13243 c -0.278518,-0.0728 -0.453725,-0.21764 -0.389351,-0.3218 0.06438,-0.10416 -0.113133,-0.17243 -0.394461,-0.1517 -0.281328,0.0207 -0.585341,0.11152 -0.675584,0.20176 -0.09024,0.0902 -0.449857,0.0339 -0.79914,-0.12527 -0.349284,-0.15915 -0.649168,-0.41907 -0.66641,-0.57762 -0.01724,-0.15854 -0.01202,-0.43708 0.0116,-0.61899 l 0.04295,-0.33072 h -0.7833 c -0.430815,0 -0.843353,-0.14883 -0.916752,-0.33073 l -0.133452,-0.33073 -0.02089,0.33073 c -0.01149,0.1819 -0.146978,0.33073 -0.301087,0.33073 -0.154109,0 -0.197067,-0.13451 -0.09546,-0.29891 l 0.184736,-0.29891 -0.367558,0.13294 c -0.202157,0.0731 -0.626635,-0.10251 -0.943284,-0.39027 -0.31665,-0.28777 -0.709384,-0.44061 -0.872744,-0.33964 l -0.297017,0.18356 0.275135,0.33152 c 0.151325,0.18234 0.196794,0.40986 0.101042,0.50561 -0.09575,0.0958 -0.500902,0.1741 -0.900334,0.1741 h -0.726242 l 0.0749,0.46302 c 0.0412,0.25466 -0.03551,0.60228 -0.170452,0.77248 -0.134944,0.17021 -0.664751,0.27049 -1.17735,0.22285 -0.512598,-0.0476 -1.295443,0.0176 -1.739656,0.14501 l -0.80766,0.23163 -0.744497,-0.58677 c -0.409473,-0.32272 -0.751085,-0.74833 -0.759136,-0.9458 -0.0081,-0.19747 -0.173389,-0.29812 -0.367417,-0.22367 -0.194028,0.0745 -0.352778,-0.0266 -0.352778,-0.22463 0,-0.19801 0.09922,-0.29869 0.220486,-0.22375 0.121267,0.075 0.220486,-0.0967 0.220486,-0.38138 v -0.51764 l -0.859896,0.039 -0.859896,0.039 0.03675,-0.46302 c 0.02021,-0.25466 -0.06909,-0.46302 -0.198437,-0.46302 -0.129352,0 -0.235186,-0.11533 -0.235186,-0.25628 0,-0.14095 0.198126,-0.18025 0.440279,-0.0873 l 0.440279,0.16895 -0.191311,-0.30955 c -0.10522,-0.17025 -0.429435,-0.30954 -0.720476,-0.30954 H 54.52435 l 0.188787,0.30546 0.188787,0.30547 -0.305464,-0.18879 c -0.168005,-0.10383 -0.305464,-0.54807 -0.305464,-0.98719 v -0.79841 l -0.992187,0.0855 c -0.545703,0.047 -1.002471,-0.0332 -1.015039,-0.17817 -0.01257,-0.145 -0.111718,-0.46448 -0.220334,-0.70996 -0.108615,-0.24547 -0.367573,-0.38104 -0.575462,-0.30127 l -0.377979,0.14505 0.180255,-0.46974 0.180256,-0.46974 -0.265449,0.16406 c -0.145997,0.0902 -0.26545,-0.004 -0.26545,-0.20954 0,-0.20548 0.114665,-0.30273 0.254812,-0.21612 0.140146,0.0866 0.200273,-0.008 0.133616,-0.21008 -0.06666,-0.20215 -0.37976,-0.4056 -0.695784,-0.4521 l -0.574588,-0.0845 v -0.62465 -0.62466 l 0.595313,-0.0846 0.595312,-0.0845 0.07941,-1.37277 0.07941,-1.37277 0.714342,-0.0824 0.714342,-0.0824 0.082,-0.84767 c 0.0451,-0.46622 -0.04452,-1.08407 -0.199153,-1.37301 l -0.281151,-0.52533 0.241733,-0.1494 c 0.132954,-0.0822 0.201917,-0.35729 0.153251,-0.61137 -0.04866,-0.25408 -0.09759,-0.53142 -0.108726,-0.61631 -0.01113,-0.0849 -0.198837,-0.15434 -0.417119,-0.15434 -0.218281,0 -0.400495,0.12898 -0.40492,0.28663 -0.0044,0.15765 -0.127993,0.0808 -0.274595,-0.17079 -0.146602,-0.25158 -0.254116,-0.53031 -0.23892,-0.6194 0.0152,-0.0891 -0.188657,-0.33946 -0.453009,-0.55637 l -0.480639,-0.39438 0.463021,0.14559 0.463021,0.14558 v -0.8163 -0.81631 l -0.528903,0.13831 c -0.290897,0.0761 -0.606795,0.0123 -0.701995,-0.14175 -0.0952,-0.15404 -0.152663,-0.85724 -0.127695,-1.56266 0.02497,-0.70543 -0.05204,-1.2826 -0.171131,-1.2826 -0.119089,0 -0.376868,0.14883 -0.572842,0.33073 l -0.356315,0.33073 0.186722,-0.33073 0.186722,-0.33073 h -0.41249 -0.41249 l -0.02804,-1.52135 c -0.01542,-0.83675 -0.005,-1.86222 0.02307,-2.27883 l 0.05111,-0.75748 -0.278978,0.17241 c -0.153438,0.0948 -1.116322,0.20361 -2.139741,0.24174 l -1.860763,0.0693 v -0.87331 -0.87332 h -0.798791 -0.798791 l 0.166015,-0.66146 0.166016,-0.66146 H 42.148843 41.32641 v -5.53461 c 0,-3.04403 0.0761,-5.73292 0.169112,-5.97531 l 0.169112,-0.4407 0.20106,0.32533 c 0.110583,0.17892 0.399216,0.24928 0.641408,0.15634 0.242191,-0.0929 0.367764,-0.28642 0.279051,-0.42996 -0.08871,-0.14354 -0.03254,-0.50157 0.12483,-0.79562 0.157371,-0.29405 0.450611,-0.53463 0.651646,-0.53463 0.201034,0 0.42557,-0.14883 0.498969,-0.33073 l 0.133452,-0.33073 0.02089,0.46302 c 0.01149,0.25466 0.206509,0.46302 0.433378,0.46302 h 0.41249 l -0.198695,-0.33073 -0.198696,-0.33073 0.410778,0.33251 0.410777,0.33252 1.425949,-0.0782 1.425949,-0.0782 v -1.917459 -1.917456 l 0.372882,-0.230587 c 0.205085,-0.126823 0.516859,-0.175337 0.692832,-0.10781 0.175973,0.06753 0.393504,-0.151848 0.483402,-0.487501 0.0899,-0.335652 0.165076,-0.699573 0.167063,-0.808714 0.002,-0.10914 -0.08568,-0.184338 -0.194824,-0.167105 -0.109141,0.01723 -0.3175,0.01541 -0.463021,-0.0041 -0.145521,-0.01946 -0.100831,-0.139107 0.09931,-0.265881 0.200142,-0.126774 0.410062,-0.690498 0.466489,-1.25272 0.05643,-0.562221 0.238041,-1.286048 0.403587,-1.608504 0.165545,-0.322455 0.409235,-0.519384 0.541531,-0.43762 0.132297,0.08176 0.04735,0.289925 -0.188771,0.462581 l -0.42931,0.31392 0.545769,0.04111 0.54577,0.04111 V 91.67591 90.237145 h 0.645843 c 0.355214,0 0.727655,-0.132374 0.827647,-0.294164 0.09999,-0.161791 0.01772,-0.40898 -0.182822,-0.54931 l -0.364627,-0.255145 0.302642,-0.124835 c 0.166453,-0.06866 0.238553,-0.387016 0.160223,-0.707461 -0.07833,-0.320445 -0.27405,-0.75431 -0.434933,-0.964145 l -0.292515,-0.381518 0.31168,0.186923 0.31168,0.186922 0.168419,-0.530641 c 0.09263,-0.291852 0.09418,-0.650769 0.0034,-0.797592 -0.09074,-0.146823 -0.389056,-0.266951 -0.662921,-0.266951 -0.273866,0 -0.572722,0.121005 -0.664126,0.2689 -0.0914,0.147894 -0.289019,0.192985 -0.439145,0.100203 -0.150126,-0.09278 -0.204619,-0.510381 -0.121097,-0.927996 0.08352,-0.417614 0.06575,-0.746262 -0.03949,-0.730329 -0.105243,0.01593 -0.348087,0.01487 -0.539654,-0.0024 l -0.348303,-0.03133 0.08372,-0.727605 0.08372,-0.727604 0.595312,0.08278 0.595313,0.08278 v -0.927481 -0.927481 l 0.513905,0.09897 0.513905,0.09897 -0.144754,-0.377224 c -0.07961,-0.207474 -0.243114,-0.316435 -0.363332,-0.242137 -0.120217,0.0743 -0.304731,-0.0043 -0.410031,-0.174692 l -0.191454,-0.309779 0.305464,0.188787 0.305463,0.188787 0.0041,-0.346345 0.0041,-0.346344 0.250085,0.395587 0.250085,0.395586 0.367184,-0.502154 c 0.201951,-0.276185 0.484464,-0.42967 0.627808,-0.341079 0.143343,0.08859 0.260624,-0.01401 0.260624,-0.227995 v -0.389071 l -0.511189,0.162246 -0.511189,0.162245 0.489141,-0.500165 c 0.269027,-0.275091 0.533043,-0.393262 0.586701,-0.262603 0.05366,0.13066 0.355107,-0.221567 0.669885,-0.782725 l 0.572323,-1.020289 0.83386,0.01239 c 0.458623,0.0068 0.775504,-0.08204 0.704178,-0.197443 -0.07133,-0.115406 -0.171806,-0.428559 -0.22329,-0.695894 l -0.09361,-0.486064 h 0.347965 0.347966 l -0.127044,0.418923 -0.127043,0.418924 0.29888,-0.465117 c 0.164385,-0.255814 0.210051,-0.613001 0.10148,-0.79375 l -0.1974,-0.328633 0.447664,0.363126 c 0.246215,0.199719 0.447664,0.274437 0.447664,0.16604 0,-0.108397 0.178594,-0.04886 0.396875,0.132292 l 0.396875,0.329377 v -0.29698 c 0,-0.163339 -0.09631,-0.29698 -0.214014,-0.29698 -0.117707,0 -0.445129,-0.187423 -0.727604,-0.416496 -0.282475,-0.229073 -0.374931,-0.347394 -0.205459,-0.262935 0.169472,0.08446 0.358182,0.004 0.419355,-0.178817 l 0.111225,-0.332377 h 1.035852 1.035853 l 0.08455,-0.595313 0.08455,-0.595312 h 0.804031 0.804031 l -0.166016,0.661458 -0.166015,0.661458 h 0.549822 0.549823 l -0.186722,-0.330729 -0.186722,-0.330729 0.28304,0.264583 c 0.155671,0.145521 0.321967,0.612589 0.369544,1.037929 0.04758,0.42534 0.221513,0.817609 0.386524,0.871708 0.16501,0.0541 0.492432,-0.09405 0.727604,-0.329224 l 0.427585,-0.427585 7.79e-4,0.349628 7.79e-4,0.349628 0.925263,0.01985 c 0.508894,0.01092 0.925263,-0.09296 0.925263,-0.230834 0,-0.137877 0.159783,-0.118077 0.355073,0.044 0.19529,0.162076 0.433415,0.216342 0.529167,0.120591 0.09575,-0.09575 0.175022,-0.42214 0.176157,-0.725309 l 0.0021,-0.551215 0.659216,-0.305752 0.659216,-0.305752 0.148084,0.239606 c 0.08145,0.131784 0.438715,0.239606 0.793928,0.239606 0.355214,0 0.645844,-0.09525 0.645844,-0.211666 0,-0.116417 -0.148828,-0.372009 -0.330729,-0.567983 l -0.330729,-0.356315 0.330729,0.186722 c 0.181901,0.102697 0.330729,0.06063 0.330729,-0.09348 0,-0.154109 0.333375,-0.280198 0.740833,-0.280198 0.407459,0 0.883709,-0.142875 1.058334,-0.3175 0.174625,-0.174625 0.318173,-0.204391 0.318996,-0.06615 8.24e-4,0.138245 0.477074,0.269224 1.058334,0.291066 l 1.056836,0.03971 v -0.767317 c 0,-0.422024 0.148828,-0.78877 0.330729,-0.814992 0.181902,-0.02622 1.092612,-0.05599 2.023802,-0.06614 l 1.693072,-0.01847 0.08917,-0.581981 c 0.04904,-0.32009 -0.02823,-0.654538 -0.171718,-0.743219 -0.143489,-0.08868 -0.249021,-0.422102 -0.234515,-0.740936 l 0.02637,-0.579698 0.211836,0.661459 0.211836,0.661458 0.02637,-1.499306 0.02637,-1.499305 -0.330729,-0.133452 -0.33073,-0.133453 0.33073,-0.02089 c 0.181901,-0.01149 0.330729,-0.199482 0.330729,-0.417763 0,-0.218281 0.119062,-0.411758 0.264583,-0.429948 0.145521,-0.01819 0.383646,-0.06284 0.529167,-0.09922 0.145521,-0.03638 0.39113,-0.08103 0.545798,-0.09922 0.154668,-0.01819 0.243965,-0.300964 0.198437,-0.628386 l -0.08278,-0.595312 5.754688,-0.07131 5.754687,-0.07131 v 0.819933 0.819932 l 0.749588,-0.164637 0.749588,-0.164637 -0.118159,0.805073 -0.11816,0.805073 h 0.82378 0.82378 l 0.02564,0.463021 c 0.0141,0.254661 0.007,0.879739 -0.01575,1.389062 -0.02276,0.509323 -0.07641,1.24392 -0.119216,1.632438 l -0.07783,0.706397 1.506785,0.0072 c 0.828731,0.004 1.671679,0.04327 1.873218,0.08735 0.201538,0.04408 0.518096,0.220471 0.703462,0.391978 0.185366,0.171506 0.337029,0.484217 0.337029,0.694913 v 0.383082 l 0.992187,0.0091 c 0.545708,0.005 1.200548,0.01972 1.455208,0.03269 l 0.46302,0.02358 v 0.681442 0.681442 l 1.21561,-0.07475 1.2156,-0.07475 0.25275,0.451645 c 0.13902,0.248404 0.17273,0.451644 0.0749,0.451644 -0.0978,0 -0.0284,0.180062 0.15425,0.400138 l 0.33208,0.400138 0.36177,-0.300243 0.36177,-0.300243 v 0.329377 0.329377 l 0.33961,-0.281845 0.3396,-0.281846 0.388,0.245397 c 0.2134,0.134969 0.65589,0.247221 0.98332,0.249449 l 0.59531,0.0041 0.004,-0.46302 0.004,-0.463021 0.25648,0.396875 0.25648,0.396875 0.004,-0.727604 0.004,-0.727605 h 1.45521 1.45521 v -0.661458 -0.661458 h 0.64306 0.64305 l 0.0845,0.595312 0.0846,0.595313 0.83679,-0.0365 0.83679,-0.0365 0.18401,0.565666 c 0.10121,0.311116 0.17521,0.642752 0.16444,0.736968 -0.0108,0.09422 0.20699,0.112056 0.48389,0.03965 l 0.50346,-0.131657 -0.11814,0.952542 -0.11815,0.952543 h 0.66398 0.66397 v 0.645844 c 0,0.355214 0.11906,0.719428 0.26458,0.809365 0.14553,0.08994 0.26641,0.0077 0.26864,-0.182823 l 0.004,-0.346344 0.2285,0.360667 0.22851,0.360668 0.14769,-0.360668 0.14769,-0.360667 0.61024,0.79375 c 0.33563,0.436562 0.90865,1.091501 1.2734,1.45542 0.36474,0.363918 0.55005,0.572277 0.41181,0.46302 -0.13825,-0.109256 -0.34661,-0.198648 -0.46303,-0.198648 -0.11641,0 -0.21166,0.187567 -0.21166,0.416815 v 0.416816 l 0.85989,-0.08559 0.8599,-0.08559 -0.019,0.528671 c -0.0105,0.29077 -0.10815,0.991113 -0.21708,1.55632 l -0.19804,1.027648 0.46683,-0.179138 0.46683,-0.179139 -0.51433,0.568331 c -0.28289,0.312582 -0.45481,0.645127 -0.38205,0.73899 0.0728,0.09386 -0.18224,0.20709 -0.56666,0.251616 l -0.69897,0.08096 0.12927,0.494314 0.12927,0.494315 -0.80968,0.418699 -0.80967,0.418699 0.024,1.194031 c 0.0132,0.656717 0.1331,1.261477 0.26648,1.343912 0.13339,0.08244 0.4159,0.006 0.6278,-0.169876 l 0.38529,-0.319758 v 0.958439 0.958438 h 0.63557 0.63558 l 0.27125,0.778107 0.27125,0.778107 -0.28331,0.09444 -0.28331,0.09444 0.3158,0.590076 0.3158,0.590076 0.30334,-0.187476 c 0.16684,-0.103112 0.0406,0.181489 -0.28049,0.632446 l -0.58384,0.819923 0.79639,0.174916 0.79638,0.174915 0.0208,0.441998 c 0.0115,0.2431 0.003,1.201696 -0.0195,2.130214 l -0.0403,1.688217 0.66769,-0.12764 0.66769,-0.12763 0.13819,0.3601 c 0.076,0.19806 0.23079,0.32924 0.34398,0.29151 0.11319,-0.0377 0.22776,0.0505 0.2546,0.19598 0.0268,0.14552 -0.13394,0.22686 -0.35729,0.18074 -0.22334,-0.0461 -0.33728,0.0275 -0.25321,0.1635 0.0841,0.13604 0.80641,0.26241 1.60519,0.28082 l 1.45233,0.0335 -0.17477,-0.46156 -0.17477,-0.46156 0.47609,0.472 0.4761,0.472 0.46849,-0.14869 0.46848,-0.14869 0.14026,0.53632 c 0.0771,0.29498 0.0324,0.603 -0.0995,0.68449 -0.13186,0.0815 -0.23974,0.25723 -0.23974,0.39053 0,0.13329 0.34237,0.17388 0.76083,0.0902 l 0.76083,-0.15216 0.0176,5.78117 c 0.01,3.17965 0.0263,5.84071 0.037,5.91347 0.0106,0.0728 0.13479,-0.0463 0.27585,-0.26458 l 0.25648,-0.39687 0.004,0.31183 c 0.002,0.1715 -0.17454,0.49042 -0.39282,0.7087 -0.21828,0.21828 -0.39687,0.57695 -0.39687,0.79703 0,0.22009 -0.13746,0.48512 -0.30547,0.58895 l -0.30546,0.18879 0.18878,-0.30547 0.18879,-0.30546 h -0.54478 -0.54478 v 0.41249 c 0,0.22687 0.1177,0.33975 0.26155,0.25084 l 0.26155,-0.16165 -0.14971,0.39016 c -0.0824,0.21459 -0.30895,0.45126 -0.50356,0.52594 -0.19461,0.0747 -1.00926,0.11076 -1.81034,0.0802 -0.80107,-0.0306 -1.39657,0.0413 -1.32333,0.15987 0.0732,0.11851 -0.18314,0.13608 -0.56975,0.0391 l -0.70292,-0.17642 0.0506,0.36425 c 0.0279,0.20034 0.0365,0.50018 0.0193,0.66631 -0.0172,0.16612 -0.32157,0.37488 -0.6763,0.46391 l -0.64494,0.16187 0.0403,0.53479 0.0403,0.53478 0.32842,-0.12603 0.32843,-0.12603 -0.0545,0.78045 c -0.03,0.42925 -0.13387,0.78069 -0.23089,0.78097 -0.097,2.9e-4 -0.24107,-0.1483 -0.32012,-0.3302 -0.0791,-0.1819 -0.10684,0.17529 -0.0617,0.79375 l 0.082,1.12448 h -0.80463 -0.80463 l 0.51359,0.39753 0.51359,0.39752 -0.46302,-0.16125 -0.46302,-0.16125 v 0.55748 c 0,0.30661 0.14883,0.55929 0.33073,0.56152 l 0.33073,0.004 -0.28389,0.19439 c -0.15613,0.10691 -0.36075,0.40275 -0.45471,0.65741 l -0.17084,0.46302 h -0.64792 -0.64792 l 0.0443,1.44404 0.0443,1.44405 -0.66146,0.0773 -0.66146,0.0773 -0.0247,1.38906 -0.0247,1.38906 h 0.60244 0.60244 l 0.0837,0.72761 0.0837,0.7276 h 0.39687 c 0.21829,0 0.36416,-0.15768 0.32418,-0.3504 -0.04,-0.19271 0.0513,-0.27378 0.20275,-0.18015 0.1515,0.0936 0.2078,0.27971 0.12511,0.41351 -0.0827,0.1338 0.0188,0.17837 0.22549,0.099 l 0.37585,-0.14422 0.14239,0.5445 c 0.0783,0.29947 0.0469,0.48548 -0.0698,0.41335 -0.1167,-0.0721 -0.291,0.0743 -0.38734,0.32532 -0.0963,0.25105 -0.0553,0.49643 0.0913,0.54528 l 0.26648,0.0888 -0.25053,0.65895 -0.25054,0.65895 0.26379,-0.16303 c 0.14508,-0.0897 0.26378,-0.0369 0.26378,0.11717 0,0.15411 -0.30468,0.2802 -0.67707,0.2802 -0.37239,0 -0.61575,-0.0992 -0.54081,-0.22048 0.075,-0.12127 -0.0282,-0.22049 -0.2292,-0.22049 -0.20101,0 -0.34965,0.21003 -0.33031,0.46674 0.0193,0.25671 0.15927,0.3926 0.31096,0.30199 0.15169,-0.0906 0.11349,0.0354 -0.0849,0.28 -0.19839,0.24461 -0.46628,0.3795 -0.59531,0.29976 -0.12904,-0.0798 -0.23461,0.0369 -0.23461,0.25919 v 0.40418 l 0.42912,-0.16466 0.42911,-0.16467 -0.48791,0.56985 c -0.26836,0.31341 -0.64005,0.56984 -0.82599,0.56984 -0.18595,0 -0.33808,0.24515 -0.33808,0.54478 0,0.29963 -0.11386,0.47441 -0.25303,0.38841 -0.13916,-0.086 -0.19357,-0.31132 -0.1209,-0.50069 0.0727,-0.18937 -0.0452,-0.3443 -0.26185,-0.3443 h -0.39397 l 0.25101,0.46901 0.25101,0.46901 -0.2653,0.16396 c -0.14592,0.0902 -0.2653,0.0379 -0.2653,-0.11623 0,-0.15411 -0.24609,-0.0341 -0.54687,0.26667 l -0.54687,0.54687 -0.37917,-0.31468 -0.37918,-0.31469 v 0.27916 c 0,0.15353 0.23205,0.3528 0.51567,0.44281 l 0.51567,0.16367 -0.15562,0.40551 -0.15561,0.40552 -0.17809,-0.28816 -0.17809,-0.28817 -0.44227,0.92744 c -0.24324,0.51009 -0.57028,0.92744 -0.72674,0.92744 -0.15646,0 -0.21089,-0.11907 -0.12096,-0.26459 0.0899,-0.14552 0.0374,-0.26458 -0.11667,-0.26458 -0.15411,0 -0.28931,0.14883 -0.30045,0.33073 -0.0111,0.1819 -0.0617,0.55 -0.11243,0.81799 -0.0507,0.268 -0.17963,0.56565 -0.2865,0.66146 -0.10687,0.0958 -0.11954,-0.0342 -0.0282,-0.28883 0.0914,-0.25466 0.0508,-0.46302 -0.0901,-0.46302 -0.14096,0 -0.25628,0.0904 -0.25628,0.20094 0,0.11052 -0.26789,0.36837 -0.59531,0.57301 -0.32743,0.20464 -1.14878,0.40134 -1.82524,0.43711 l -1.22992,0.065 0.0715,-0.43961 c 0.0393,-0.24178 -0.0621,-0.61129 -0.22528,-0.82112 l -0.29675,-0.38152 0.37161,0.22396 0.37161,0.22396 -0.18879,-0.30546 c -0.10383,-0.16801 -0.47568,-0.30546 -0.82633,-0.30546 h -0.63754 l 0.16615,0.46302 c 0.0914,0.25466 0.0636,0.36951 -0.0618,0.25523 -0.12534,-0.11428 -0.20183,-0.59481 -0.16997,-1.06784 l 0.0579,-0.86005 -0.57582,-0.0434 c -0.3167,-0.0239 -0.79497,0.0739 -1.06281,0.21725 -0.26784,0.14334 -0.48698,0.15722 -0.48698,0.0308 0,-0.12639 -0.18868,-0.2298 -0.41929,-0.2298 h -0.41929 l 0.11106,0.58098 0.11106,0.58097 -0.48193,0.30097 c -0.26506,0.16554 -0.60964,0.30097 -0.76572,0.30097 -0.15608,0 -0.2102,-0.11906 -0.12027,-0.26458 l 0.16352,-0.26458 h -0.94165 -0.94166 v 0.79375 c 0,0.43656 -0.1357,0.79375 -0.30156,0.79375 -0.16586,0 -0.46381,0.20835 -0.66211,0.46302 l -0.36054,0.46302 0.14412,-0.41839 0.14412,-0.41839 -0.87108,0.0215 -0.87107,0.0215 -0.13489,0.66146 c -0.07419,0.3638 -0.25279,0.66328 -0.396882,0.66551 -0.144092,0.002 -0.429209,0.10992 -0.633595,0.23931 l -0.371609,0.23527 0.188787,-0.30546 0.188787,-0.30547 h -0.941657 -0.941656 v 0.3175 0.3175 l -0.3175,-0.3175 c -0.174625,-0.17462 -0.472282,-0.3175 -0.661459,-0.3175 h -0.343958 v 0.66146 c 0,0.3638 -0.148828,0.67557 -0.330729,0.69281 -0.181901,0.0172 -0.495783,0.008 -0.697516,-0.0199 l -0.366786,-0.0512 0.140261,0.53636 c 0.07714,0.295 0.03911,0.57183 -0.08452,0.61519 -0.12363,0.0434 -0.123529,0.52532 2.24e-4,1.07102 l 0.225005,0.99219 h -0.2336 c -0.12848,0 -0.205239,0.26789 -0.170574,0.59531 l 0.06303,0.59531 -0.727605,0.0837 -0.727604,0.0837 v 0.73949 0.73949 l -0.700782,-0.13397 -0.700782,-0.13396 0.175931,0.28466 c 0.09676,0.15657 0.05198,0.36127 -0.09952,0.45491 -0.1515,0.0936 -0.242739,0.0174 -0.202754,-0.16944 z m -3.931222,-10.61372 -0.198696,-0.33073 0.381518,0.28274 c 0.209835,0.15551 0.738706,0.30122 1.175268,0.3238 l 0.79375,0.041 -0.458908,-0.34995 c -0.252399,-0.19248 -0.381384,-0.42749 -0.286632,-0.52224 0.09475,-0.0948 0.457116,-0.17227 0.805253,-0.17227 h 0.632976 l -0.166189,0.26889 c -0.0914,0.1479 -0.30679,0.18996 -0.478636,0.0935 l -0.312447,-0.17542 0.272852,0.29844 c 0.150068,0.16414 0.672256,0.37831 1.160418,0.47595 l 0.887567,0.17751 -0.122407,-0.83401 -0.122407,-0.83401 1.210947,-0.0387 c 0.666021,-0.0213 2.030296,-0.0343 3.031724,-0.029 l 1.820777,0.01 -0.365569,-0.23153 -0.365568,-0.23154 0.330729,-0.004 c 0.181901,-0.002 0.330729,-0.17845 0.330729,-0.39161 0,-0.21317 0.230899,-0.51114 0.513109,-0.66218 l 0.51311,-0.27461 0.167937,0.27173 c 0.09237,0.14945 0.427012,0.23698 0.743661,0.19451 0.316649,-0.0425 0.854622,-0.27264 1.195492,-0.51148 l 0.61976,-0.43427 -0.48747,-0.12571 -0.48747,-0.12571 0.59531,-0.0307 c 0.32742,-0.0169 0.59531,0.0739 0.59531,0.20162 0,0.12777 -0.26789,0.41283 -0.59531,0.63348 l -0.59531,0.40116 0.70607,-0.0382 0.70607,-0.0382 -0.0253,-0.52917 c -0.0139,-0.29104 -0.13785,-0.67799 -0.27545,-0.85989 l -0.25017,-0.33073 0.49542,-0.0305 c 0.27248,-0.0168 0.69391,-0.0109 0.93651,0.0129 0.2426,0.0239 0.51852,-0.20056 0.61314,-0.4987 l 0.17205,-0.54208 h 0.52696 c 0.28982,0 0.46173,-0.10553 0.38202,-0.23451 -0.0797,-0.12897 0.12162,-0.30453 0.4474,-0.39012 0.32579,-0.0856 0.63203,-0.0396 0.68053,0.10221 0.0485,0.14181 0.21025,0.25783 0.35942,0.25783 h 0.27121 l -0.15172,-0.60451 -0.15172,-0.60452 0.67584,-0.0559 c 0.37171,-0.0308 0.79238,-0.12796 0.93483,-0.21599 0.14244,-0.088 0.19334,-0.33112 0.11311,-0.54019 l -0.14586,-0.38013 0.45856,-0.17362 c 0.2522,-0.0955 0.60738,-0.3206 0.78929,-0.50025 0.1819,-0.17965 0.33072,-0.4542 0.33072,-0.61012 0,-0.15591 0.1786,-0.29836 0.39688,-0.31655 0.21828,-0.0182 0.5457,-0.048 0.7276,-0.0662 0.1819,-0.0182 0.34562,-0.1819 0.36381,-0.3638 0.0182,-0.1819 0.048,-0.50932 0.0661,-0.7276 l 0.0331,-0.39688 0.72761,-0.004 0.7276,-0.004 -0.39687,-0.25648 -0.39688,-0.25648 0.34635,-0.004 c 0.19049,-0.002 0.29034,-0.0947 0.2219,-0.20541 -0.0684,-0.11075 0.0436,-0.43116 0.24897,-0.71203 0.20537,-0.28087 0.37341,-0.37625 0.37341,-0.21196 0,0.16429 0.21124,0.2828 0.46943,0.26335 l 0.46942,-0.0354 -0.006,-0.66958 -0.006,-0.66958 0.66146,-0.13851 0.66146,-0.13852 0.0563,-1.18735 c 0.031,-0.65305 0.18055,-1.22876 0.33238,-1.27937 0.15182,-0.0506 0.20086,-0.21366 0.10897,-0.36235 l -0.16708,-0.27033 0.56257,0.17855 0.56256,0.17855 -0.25474,-0.67 -0.25473,-0.67001 0.25447,-0.15727 c 0.13996,-0.0865 0.37108,-0.0852 0.51359,0.003 0.14251,0.0881 0.49809,0.0323 0.79017,-0.12407 l 0.53106,-0.28422 -0.0541,-0.65406 c -0.0298,-0.35973 -0.1402,-0.65406 -0.24539,-0.65406 -0.10519,0 -0.26485,0.11906 -0.35478,0.26458 -0.0899,0.14552 -0.0374,0.26458 0.11667,0.26458 0.15411,0 0.2802,0.20241 0.2802,0.4498 v 0.44979 l -0.29682,-0.29683 c -0.16326,-0.16325 -0.49068,-0.22349 -0.72761,-0.13386 l -0.43078,0.16295 0.46546,-0.46954 c 0.25599,-0.25825 0.3978,-0.57901 0.31511,-0.7128 -0.0827,-0.13379 0.0948,-0.24326 0.39444,-0.24326 h 0.54478 v -0.54478 c 0,-0.29963 -0.10792,-0.47808 -0.23984,-0.39655 -0.13191,0.0815 -0.10215,-0.14864 0.0662,-0.51149 0.16829,-0.36284 0.48458,-0.67474 0.70286,-0.69311 0.21828,-0.0184 0.45641,-0.0293 0.52917,-0.0242 0.0728,0.005 0.1506,-0.29676 0.17297,-0.67068 l 0.0407,-0.67986 -0.23506,0.37129 -0.23507,0.37129 -0.004,-0.46302 c -0.002,-0.25466 0.11151,-0.46302 0.25276,-0.46302 0.14125,0 0.24277,-0.62508 0.2256,-1.38907 -0.0172,-0.76398 -0.0137,-1.71648 0.008,-2.11666 l 0.039,-0.72761 h 0.74332 0.74332 l 0.0652,-4.65497 0.0652,-4.65497 -0.25679,0.15871 c -0.14123,0.0873 -0.32508,0.009 -0.40855,-0.17368 -0.0835,-0.18281 -0.0951,0.0843 -0.0257,0.59366 l 0.12607,0.92604 -0.29788,-0.77067 -0.29788,-0.77068 0.48386,-0.3538 0.48385,-0.3538 h -0.38286 c -0.21057,0 -0.54346,-0.36282 -0.73975,-0.80627 -0.19628,-0.44345 -0.37418,-1.30665 -0.39531,-1.91823 -0.0211,-0.61158 -0.15749,-1.19944 -0.30301,-1.30635 l -0.26459,-0.19438 0.33073,-0.004 0.33073,-0.004 v -0.793747 -0.79375 l -0.33073,-0.02089 -0.33073,-0.02089 0.33073,-0.133452 c 0.1819,-0.0734 0.33073,-0.295097 0.33073,-0.492664 0,-0.197566 -0.10946,-0.426863 -0.24325,-0.509549 -0.13379,-0.08269 -0.43145,0.03785 -0.66146,0.267867 l -0.41821,0.418205 -0.0293,-0.349628 c -0.0161,-0.192295 -0.008,-0.617518 0.0189,-0.94494 0.0265,-0.327422 -0.0836,-0.595313 -0.2446,-0.595313 h -0.29283 l 0.29427,-0.549841 c 0.16184,-0.302413 0.2293,-0.719132 0.1499,-0.926042 -0.0794,-0.20691 -0.44575,-0.3762 -0.81412,-0.3762 h -0.66977 l -0.0385,-0.463021 c -0.0212,-0.254661 -0.051,-0.87974 -0.0662,-1.389063 l -0.0276,-0.926041 -0.68828,-0.07993 -0.68828,-0.07992 0.12382,-0.647679 0.12381,-0.647679 -0.29543,-0.03307 c -0.16249,-0.01819 -0.40448,-0.04796 -0.53776,-0.06614 -0.13328,-0.01819 -0.49046,-0.319182 -0.79375,-0.66887 -0.30328,-0.349688 -0.55142,-0.67711 -0.55142,-0.727604 0,-0.05049 0.14883,-0.06204 0.33073,-0.02566 l 0.33073,0.06615 -0.0727,-0.649892 c -0.04,-0.357441 -0.21216,-0.736087 -0.38262,-0.841435 -0.17045,-0.105348 -0.53906,-0.06891 -0.81912,0.08098 l -0.50921,0.272519 0.18913,-0.306018 c 0.10402,-0.16831 0.11612,-0.596908 0.0269,-0.952439 l -0.16224,-0.646421 h -0.50208 c -0.27614,0 -0.56213,0.148829 -0.63553,0.33073 l -0.13345,0.330729 -0.0209,-0.478636 -0.0209,-0.478636 -0.30546,0.188787 -0.30547,0.188787 0.19146,-0.309779 c 0.1053,-0.170379 0.30229,-0.24128 0.43775,-0.157558 0.13547,0.08372 0.2463,0.02613 0.2463,-0.127975 0,-0.154109 -0.20835,-0.282022 -0.46302,-0.28425 l -0.46302,-0.0041 0.39688,-0.268569 0.39687,-0.268569 -0.7276,0.169012 -0.72761,0.169012 v -0.441173 c 0,-0.242645 -0.10658,-0.375299 -0.23685,-0.294786 -0.13028,0.08051 -0.30281,-0.02546 -0.3834,-0.235494 l -0.14655,-0.381881 0.3834,0.147125 c 0.21087,0.08092 0.3834,0.01159 0.3834,-0.15407 0,-0.165657 -0.19061,-0.374339 -0.42357,-0.463737 -0.23297,-0.0894 -0.504,-0.03242 -0.6023,0.126629 l -0.17872,0.289171 -0.38989,-0.246565 -0.38989,-0.246565 0.33073,-0.0041 c 0.1819,-0.0022 0.33073,-0.301708 0.33073,-0.66551 v -0.661458 h -1.09073 -1.09073 l 0.36312,0.4507 0.36313,0.4507 -0.71929,-0.516846 -0.71929,-0.516846 -0.008,-0.712412 -0.008,-0.712413 -0.46302,0.09201 c -0.25466,0.05061 -0.64161,0.133066 -0.8599,0.183246 l -0.39687,0.09124 0.0332,-0.441476 0.0331,-0.441476 -0.51973,0.100091 -0.51973,0.100091 0.31812,-0.383306 c 0.17496,-0.210819 0.45345,-0.307619 0.61886,-0.215112 l 0.30075,0.168194 -0.31951,-0.345102 -0.31952,-0.345102 -0.40472,0.335887 -0.40472,0.335886 -0.46639,-0.212916 c -0.25651,-0.117104 -0.58545,-0.235753 -0.73097,-0.263664 -0.14552,-0.02791 -0.592006,-0.06448 -0.992188,-0.08127 l -0.727604,-0.03052 v -0.79375 c 0,-0.436563 -0.03055,-0.79375 -0.06789,-0.79375 -0.03734,0 -0.441816,0.10724 -0.898835,0.238311 L 96.943328,77.4846 95.725496,77.224862 c -0.669807,-0.142856 -1.217832,-0.369159 -1.217832,-0.502895 0,-0.133736 -0.20135,-0.243156 -0.447445,-0.243156 h -0.447444 l 0.51359,-0.390206 0.513591,-0.390205 -1.455209,0.04612 c -0.800364,0.02537 -1.542682,0.171195 -1.649594,0.32406 l -0.194386,0.277935 -0.0041,-0.330729 c -0.0022,-0.181901 -0.249204,-0.330729 -0.548833,-0.330729 -0.29963,0 -0.489649,0.0893 -0.422265,0.198438 0.06739,0.10914 -0.162926,0.215558 -0.511801,0.236485 -0.348875,0.02093 -0.585676,-0.04066 -0.526226,-0.13685 0.05945,-0.09619 -1.578447,-0.172845 -3.639772,-0.170339 l -3.747863,0.0046 -0.194386,0.264583 -0.194386,0.264583 -0.0041,-0.340038 -0.0041,-0.340038 -0.529167,0.283201 -0.529167,0.283202 -0.531307,-0.284347 C 79.661074,75.792146 78.881197,75.69866 78.220233,75.74079 l -1.201754,0.0766 0.113132,0.433732 c 0.06222,0.238552 0.02248,0.580407 -0.08831,0.759676 -0.110795,0.179269 -0.780811,0.349069 -1.488925,0.377334 -0.708114,0.02826 -1.590714,-0.03045 -1.961333,-0.130478 l -0.673852,-0.181869 -0.04168,0.553275 c -0.02292,0.304302 0.101718,0.644418 0.276977,0.755814 l 0.318655,0.202538 -0.612707,0.0041 c -0.336989,0.0022 -0.835779,0.123436 -1.108422,0.269351 l -0.495715,0.265299 -0.163964,-0.265299 c -0.09018,-0.145915 -0.404522,-0.265299 -0.698538,-0.265299 h -0.534575 l 0.166989,0.760292 0.166988,0.760291 -0.667126,0.12753 c -0.366919,0.07014 -0.612832,0.03968 -0.546473,-0.06769 0.06636,-0.107371 -0.264666,-0.162755 -0.735611,-0.123077 -0.470945,0.03968 -0.922618,0.08519 -1.003718,0.101148 -0.0811,0.01595 -0.123584,0.373802 -0.09441,0.79522 l 0.05305,0.766215 -0.765487,-0.120643 -0.765488,-0.120642 v 0.412761 c 0,0.227019 0.133641,0.412762 0.29698,0.412762 h 0.29698 l -0.33937,0.408916 c -0.186653,0.224904 -0.495442,0.349025 -0.686198,0.275825 -0.190756,-0.0732 -0.528868,0.04895 -0.75136,0.271441 -0.222493,0.222493 -0.404532,0.574621 -0.404532,0.782508 0,0.207887 -0.148828,0.392083 -0.330729,0.409325 -0.181901,0.01724 -0.479557,0.01202 -0.661458,-0.0116 -0.181902,-0.02362 -0.33073,0.196292 -0.33073,0.488695 0,0.292404 -0.383037,0.922702 -0.851194,1.400662 -0.468156,0.47796 -0.944406,0.839252 -1.058333,0.802872 -0.113927,-0.03638 -0.208963,0.08268 -0.211191,0.264583 l -0.0041,0.33073 -0.256481,-0.396876 -0.25648,-0.396875 -0.03538,0.661459 c -0.01946,0.363802 -0.02128,0.750755 -0.0041,0.859896 0.01723,0.10914 -0.246481,0.198437 -0.586029,0.198437 -0.339549,0 -0.695703,0.07834 -0.791455,0.174094 -0.09575,0.09575 -0.04581,0.32866 0.110973,0.517576 0.156786,0.188916 0.22125,0.446739 0.143254,0.572939 -0.078,0.126201 -0.564617,0.208368 -1.08138,0.182594 l -0.939568,-0.04686 0.297248,0.358163 c 0.163487,0.19699 0.183506,0.358163 0.04449,0.358163 -0.13902,0 -0.235399,0.2357 -0.214176,0.523777 0.02122,0.288077 0.120388,0.605577 0.220367,0.705555 0.09998,0.09998 0.181779,0.04287 0.181779,-0.126901 0,-0.169775 0.121807,-0.308681 0.270682,-0.308681 0.148876,0 0.07565,0.297656 -0.162721,0.661458 -0.238372,0.363803 -0.605331,0.661459 -0.815464,0.661459 -0.210134,0 -0.309059,0.118119 -0.219834,0.262488 0.08922,0.144368 0.0532,0.457314 -0.08006,0.695435 l -0.24229,0.432947 -0.18452,-0.29856 c -0.101486,-0.164208 -0.04851,-0.29856 0.117727,-0.29856 0.166235,0 0.259582,-0.127992 0.207437,-0.284427 -0.05215,-0.156435 -0.210895,-0.272809 -0.352777,-0.258608 -0.141883,0.0142 -0.270879,0.291021 -0.286658,0.615157 -0.01578,0.324135 -0.04555,0.916758 -0.06615,1.31694 l -0.03746,0.727605 h -0.529167 c -0.291041,0 -0.529166,0.126089 -0.529166,0.280198 0,0.154109 -0.119063,0.206614 -0.264584,0.116677 -0.14552,-0.08994 -0.264583,0.01359 -0.264583,0.230069 0,0.216475 0.172574,0.566166 0.383498,0.77709 l 0.383498,0.383498 -0.339967,0.464933 c -0.186982,0.255713 -0.288173,0.73588 -0.224868,1.067038 0.0633,0.331157 -0.01219,0.821071 -0.167777,1.088705 -0.155582,0.26762 -0.286496,0.33776 -0.290922,0.15586 -0.0044,-0.1819 -0.226652,-0.33073 -0.493838,-0.33073 h -0.485792 l -0.04147,1.05833 c -0.02281,0.58209 0.07674,1.05834 0.221209,1.05834 0.144474,0 0.262679,-0.12609 0.262679,-0.2802 0,-0.15411 0.113863,-0.20983 0.253028,-0.12382 0.139165,0.086 0.188843,0.32364 0.110395,0.52807 -0.07845,0.20444 -0.285615,0.31683 -0.460371,0.24977 l -0.317737,-0.12192 0.01857,4.70271 c 0.01021,2.5865 0.100067,4.83459 0.199676,4.99576 0.09961,0.16117 0.06473,0.69694 -0.0775,1.1906 l -0.258611,0.89757 0.39866,0.29382 c 0.219262,0.1616 0.372649,0.60808 0.34086,0.99218 -0.03179,0.38411 -0.153161,0.69837 -0.269715,0.69837 -0.116555,0 -0.14047,-0.28466 -0.05315,-0.63259 0.08732,-0.34793 0.04512,-0.70284 -0.0938,-0.78869 l -0.252568,-0.1561 -0.02459,1.22517 c -0.01353,0.67385 0.04792,1.3425 0.136545,1.4859 0.08863,0.14339 0.330224,-0.0233 0.536886,-0.37034 l 0.37575,-0.63105 -0.120786,0.58262 c -0.06643,0.32045 -0.0092,0.61981 0.127113,0.66526 0.136344,0.0454 0.294095,0.43811 0.350558,0.87258 0.05646,0.43448 0.110862,1.3555 0.120889,2.04672 0.01003,0.69123 0.107526,1.24267 0.216667,1.22544 0.109141,-0.0172 0.406797,-0.0172 0.661458,0 l 0.463021,0.0313 v 1.19893 1.19893 l 0.395356,0.15171 c 0.217445,0.0834 0.32828,0.26024 0.246301,0.39289 -0.08198,0.13265 -0.259097,0.17317 -0.393594,0.09 -0.134497,-0.0831 -0.220393,0.14063 -0.19088,0.49723 l 0.05366,0.64837 0.59667,-0.22686 0.59667,-0.22685 0.182538,0.29535 0.182539,0.29536 -0.287181,-0.17749 c -0.15795,-0.0976 -0.361967,-0.0565 -0.453371,0.0914 -0.0914,0.1479 0.01155,0.2689 0.22878,0.2689 h 0.394969 l -0.125681,0.69309 -0.125681,0.69309 0.804661,-0.1181 0.80466,-0.1181 v 1.57475 1.57475 l 0.755165,-0.15103 0.755165,-0.15104 0.303168,0.30317 c 0.166743,0.16675 0.303169,0.39842 0.303169,0.51484 0,0.11641 -0.12609,0.21166 -0.280199,0.21166 -0.154109,0 -0.206613,-0.11906 -0.116676,-0.26458 0.08994,-0.14552 0.03743,-0.26458 -0.116677,-0.26458 -0.154109,0 -0.280198,0.15875 -0.280198,0.35278 0,0.19402 0.07519,0.42796 0.167079,0.51985 0.09189,0.0919 0.359785,0.0647 0.595313,-0.0605 l 0.428233,-0.22755 0.475373,0.63373 c 0.261455,0.34855 0.350752,0.63373 0.198437,0.63373 -0.152314,0 -0.276935,0.11906 -0.276935,0.26458 0,0.14553 0.342619,0.26459 0.761375,0.26459 h 0.761376 l -0.06191,0.7276 -0.06191,0.72761 h 0.626381 0.62638 l -0.132186,-0.34447 -0.132186,-0.34448 0.275253,0.17012 c 0.151389,0.0936 0.239322,0.5427 0.195407,0.99807 l -0.07985,0.82796 0.478476,0.0964 c 0.263162,0.053 0.651365,0.03 0.862673,-0.0511 0.211309,-0.0811 0.472244,-0.13878 0.579857,-0.12821 0.107613,0.0106 0.162945,0.13522 0.122959,0.27701 -0.03999,0.14179 0.05239,0.18048 0.205283,0.086 l 0.277984,-0.17181 0.280926,0.80587 c 0.15451,0.44323 0.359789,0.79524 0.456176,0.78226 0.09639,-0.013 0.383609,-0.01 0.63827,0.008 l 0.463021,0.0313 v 0.51397 0.51397 l 0.523603,-0.10083 c 0.287981,-0.0555 0.592664,0.0109 0.677073,0.14748 0.08441,0.13658 0.485512,0.24832 0.891341,0.24832 h 0.737871 l 0.0227,-0.79851 0.0227,-0.79851 -0.287903,0.17793 -0.287903,0.17794 0.188172,-0.30447 c 0.103495,-0.16746 0.234118,-0.54304 0.290272,-0.83463 l 0.1021,-0.53017 H 70.81202 70.165754 v -0.94165 -0.94166 l -0.330729,0.1987 -0.330729,0.19869 0.293599,-0.38152 c 0.161479,-0.20983 0.316164,-1.11501 0.343744,-2.0115 l 0.05015,-1.62999 -0.295201,-0.18244 c -0.162361,-0.10035 -0.363778,-0.11387 -0.447594,-0.0301 -0.08382,0.0838 -0.0018,0.33387 0.182292,0.55567 0.184076,0.22179 0.260573,0.40326 0.169995,0.40326 -0.09058,0 -0.419582,-0.25489 -0.731118,-0.56642 l -0.566428,-0.56643 -0.02888,-1.85167 -0.02888,-1.85167 1.266527,-0.3216 c 0.69659,-0.17689 1.338122,-0.34907 1.425627,-0.38263 0.08751,-0.0336 0.261709,0.098 0.387119,0.29231 l 0.228019,0.35332 0.198437,-0.27137 c 0.109141,-0.14926 0.734219,-0.25023 1.389063,-0.22438 0.654844,0.0258 1.756172,0.0738 2.447396,0.10649 l 1.256771,0.0595 v 0.35501 0.35502 l 0.463021,-0.14397 0.46302,-0.14396 -0.468585,0.30082 c -0.257722,0.16545 -0.399524,0.41257 -0.315115,0.54915 0.08441,0.13657 0.652461,0.24649 1.262336,0.24427 l 1.108864,-0.004 -0.396875,-0.25648 c -0.218281,-0.14106 -0.29975,-0.2583 -0.181043,-0.26053 0.118707,-0.002 0.455364,0.12414 0.748125,0.28083 0.292762,0.15668 0.470605,0.44563 0.395208,0.64211 -0.0754,0.19648 0.04351,0.50712 0.264228,0.6903 l 0.401313,0.33306 0.240367,-0.37986 0.240366,-0.37986 0.0041,0.31183 c 0.0022,0.1715 0.211347,0.51912 0.46471,0.77249 l 0.460658,0.46065 -0.328367,0.10946 c -0.180601,0.0602 -0.328366,0.2186 -0.328366,0.35199 0,0.13339 0.284917,0.24253 0.63315,0.24253 0.348233,0 0.705421,-0.18833 0.79375,-0.41851 0.08833,-0.23018 0.1606,-2.25425 0.1606,-4.49792 v -4.0794 l -0.33073,-0.0209 -0.330729,-0.0209 0.330729,-0.13345 c 0.181901,-0.0734 0.33073,-0.30212 0.33073,-0.50828 0,-0.20615 -0.178594,-0.39268 -0.396875,-0.41451 -0.218282,-0.0218 -0.545704,-0.0516 -0.727605,-0.0662 -0.181901,-0.0145 -0.539088,-0.25303 -0.79375,-0.52996 -0.254661,-0.27693 -0.463021,-0.54108 -0.463021,-0.58701 0,-0.0459 0.178594,-0.015 0.396876,0.0688 0.218281,0.0838 0.396875,0.0205 0.396875,-0.14059 0,-0.16109 -0.119063,-0.29289 -0.264584,-0.29289 -0.145521,0 -0.334957,0.0298 -0.42097,0.0661 -0.08601,0.0364 -0.329419,-0.2641 -0.540904,-0.66773 -0.211484,-0.40363 -0.317762,-0.84189 -0.236172,-0.9739 0.08159,-0.13202 0.02156,-0.31839 -0.133402,-0.41416 l -0.281747,-0.17413 0.265608,-0.32004 0.265609,-0.32004 -0.980365,-0.051 -0.980365,-0.051 0.661458,0.38525 c 0.363802,0.21189 0.560766,0.38948 0.437698,0.39463 -0.123068,0.005 -0.539787,-0.15987 -0.926041,-0.36674 -0.386255,-0.20687 -0.940407,-0.45885 -1.231449,-0.55997 l -0.529166,-0.18385 0.330729,-0.12354 c 0.181901,-0.0679 0.330729,-0.30073 0.330729,-0.5173 v -0.39376 l -0.727604,0.0851 -0.727604,0.0851 -0.08855,-0.66146 c -0.0487,-0.36381 -0.205546,-0.78052 -0.348541,-0.92604 l -0.259991,-0.26459 -0.379064,0.51359 -0.379063,0.51359 v -0.45575 c 0,-0.25066 -0.169388,-0.52074 -0.376417,-0.60019 -0.20703,-0.0794 -0.452209,-0.3436 -0.544843,-0.58701 l -0.168424,-0.44256 0.333176,0.33073 c 0.183246,0.1819 0.424688,0.33073 0.536538,0.33073 0.111849,0 0.13483,-0.1786 0.05107,-0.39688 -0.08376,-0.21828 -0.359228,-0.39687 -0.612147,-0.39687 -0.252919,0 -0.638789,-0.20836 -0.85749,-0.46302 -0.218701,-0.25467 -0.485611,-0.64162 -0.593133,-0.8599 -0.107523,-0.21828 0.02551,-0.1266 0.295619,0.20374 l 0.491115,0.60061 -0.0051,-1.17379 c -0.0028,-0.64558 -0.04243,-1.13652 -0.08802,-1.09099 -0.04559,0.0455 -0.392438,1e-5 -0.77078,-0.10118 l -0.687896,-0.18397 -0.0092,-8.45377 -0.0092,-8.45378 -0.08531,5.53564 c -0.04692,3.04461 -0.195134,5.66797 -0.329364,5.82971 l -0.244054,0.29407 0.245397,0.388 c 0.134969,0.2134 0.24722,0.79877 0.249449,1.30081 l 0.0041,0.91282 -0.314091,-0.3141 c -0.172751,-0.17275 -0.359126,-0.8514 -0.414168,-1.50812 l -0.100076,-1.19403 h 0.276716 0.276716 l 0.07131,-5.754696 0.07131,-5.754688 h 1.124821 c 0.618652,0 1.124667,-0.0893 1.124479,-0.198437 -1.88e-4,-0.109141 0.237783,-0.198438 0.528825,-0.198438 h 0.529166 V 87.7238 84.416508 h 0.661459 0.661458 v -0.633151 c 0,-0.348233 0.188332,-0.705421 0.418515,-0.79375 0.230183,-0.08833 0.527839,-0.160599 0.661458,-0.160599 0.133619,0 0.242944,0.233935 0.242944,0.519857 0,0.285922 0.240585,0.648615 0.534634,0.805986 0.29405,0.15737 0.651237,0.214064 0.79375,0.125986 l 0.259116,-0.160143 v 3.719782 3.719782 h 0.544781 c 0.29963,0 0.489588,-0.0893 0.422129,-0.198437 -0.06746,-0.109141 2.787469,-0.172946 6.344284,-0.141789 3.556816,0.03116 6.580182,0.126638 6.718591,0.212179 l 0.251654,0.155531 -0.174224,-0.454021 -0.174224,-0.45402 0.265449,0.164056 c 0.145997,0.09023 0.265449,-0.0093 0.265449,-0.221179 0,-0.21188 -0.09922,-0.385237 -0.220486,-0.385237 -0.121267,0 -0.220486,-1.309687 -0.220486,-2.910417 v -2.910416 h 0.295442 0.295442 l -0.135836,-0.519439 c -0.07471,-0.285691 0.02983,-0.656931 0.232315,-0.824977 0.202483,-0.168047 0.602533,-0.244247 0.888999,-0.169334 0.286467,0.07491 0.658867,-0.0301 0.827557,-0.233356 0.168689,-0.203259 0.433948,-0.369561 0.589464,-0.369561 0.155516,0 0.05164,0.184759 -0.230834,0.410575 l -0.513591,0.410575 0.555138,-0.151071 0.555139,-0.15107 -0.02597,4.380196 -0.02597,4.380196 1.852083,-0.162064 c 1.018646,-0.08914 1.971146,-0.19745 2.116667,-0.240698 l 0.264582,-0.07863 -0.0802,5.919748 -0.0802,5.919752 h 0.2735 0.27349 l 0.0828,-5.6224 0.0828,-5.622396 0.032,5.820833 c 0.0176,3.201463 0.094,5.999423 0.1698,6.217713 0.0758,0.21828 0.11573,0.78522 0.0888,1.25986 l -0.049,0.86299 -0.32625,-0.4444 -0.32625,-0.44441 0.26467,-0.3189 c 0.14556,-0.1754 0.19034,-0.51259 0.0995,-0.74932 -0.0908,-0.23672 -0.25237,-0.43041 -0.35896,-0.43041 -0.10658,0 -0.16827,1.19063 -0.13708,2.64584 l 0.0567,2.64583 h -0.760653 -0.760654 v 0.34396 c 0,0.18918 0.147832,0.49179 0.328517,0.67247 l 0.328518,0.32852 -0.342484,0.21167 c -0.188366,0.11641 -0.3221,0.31982 -0.297186,0.452 0.02491,0.13219 0.0312,0.38917 0.01397,0.57107 -0.01723,0.1819 -0.315102,0.33073 -0.661932,0.33073 h -0.6306 l -0.13838,0.52916 c -0.07611,0.29105 -0.03046,0.52917 0.101433,0.52917 0.131897,0 0.239813,-0.13891 0.239813,-0.30868 0,-0.16977 0.0765,-0.23218 0.169995,-0.13869 0.0935,0.0935 0.03623,0.33118 -0.127269,0.52818 l -0.297265,0.35818 -0.798772,-0.11723 -0.798772,-0.11724 v 0.54359 c 0,0.29897 0.121005,0.61836 0.268899,0.70977 0.147895,0.0914 0.198141,0.28067 0.111659,0.4206 -0.08648,0.13993 -0.564674,0.17799 -1.062649,0.0846 l -0.905409,-0.16986 v 0.32234 c 0,0.17728 0.174781,0.25527 0.388402,0.17329 0.213621,-0.082 0.470142,-0.0168 0.570047,0.14487 l 0.181645,0.2939 -0.292189,-0.18058 c -0.160704,-0.0993 -0.412313,0.0439 -0.559131,0.31821 l -0.266943,0.49878 -1.313201,-0.12618 -1.313201,-0.12618 -0.08678,0.75928 -0.08678,0.75929 -0.350396,-0.0727 c -0.192717,-0.04 -0.274988,0.0493 -0.182822,0.19843 0.09217,0.14913 -0.04781,0.27127 -0.311063,0.27142 l -0.478636,2.8e-4 -0.02678,1.2039 c -0.01473,0.66214 -0.181024,1.34663 -0.369544,1.52107 l -0.342764,0.31718 0.221896,-0.39687 0.221896,-0.39688 -0.447664,0.36313 c -0.246215,0.19972 -0.461751,0.25925 -0.478968,0.13229 -0.01722,-0.12696 -0.122193,0.12635 -0.233279,0.56292 -0.111087,0.43656 -0.216062,1.79059 -0.23328,3.00896 l -0.0313,2.2152 0.37332,-0.30982 0.37332,-0.30983 0.179402,0.29028 0.179402,0.29028 0.365596,-0.30342 c 0.201078,-0.16688 0.339306,-0.55962 0.307174,-0.87274 l -0.05842,-0.56933 0.70934,0.0733 0.70934,0.0733 0.08441,-0.73475 0.08441,-0.73476 0.330729,0.0662 c 0.181901,0.0364 0.330729,-0.0675 0.330729,-0.23084 v -0.29698 l 0.343512,0.28509 c 0.188932,0.1568 0.827624,0.26579 1.419317,0.24219 l 1.075804,-0.0429 -0.380533,-0.38053 c -0.209293,-0.20929 -0.282438,-0.45391 -0.162545,-0.5436 0.119893,-0.0897 0.326254,-0.28074 0.458581,-0.42457 l 0.240593,-0.26151 -0.141296,0.39827 c -0.07771,0.21905 0.04037,0.56797 0.262405,0.77538 l 0.403701,0.37711 -0.135579,-0.70923 c -0.07457,-0.39008 -0.06279,-0.71687 0.02617,-0.7262 0.08896,-0.009 1.268186,-0.0358 2.620501,-0.0587 l 2.458753,-0.0417 -0.47438,-0.21131 -0.474376,-0.21131 0.661456,0.14802 c 0.3638,0.0814 1.03716,0.21667 1.49635,0.30057 l 0.8349,0.15256 0.12024,0.62903 c 0.0661,0.34596 -0.0417,0.94113 -0.23958,1.3226 -0.1979,0.38146 -0.36923,0.88831 -0.38071,1.12634 l -0.0209,0.43278 -0.13345,-0.33073 c -0.0734,-0.1819 -0.2426,-0.33073 -0.37599,-0.33073 -0.1334,0 -0.24254,0.45244 -0.24254,1.00542 0,0.55298 0.13783,1.14324 0.30629,1.3117 l 0.30629,0.30629 -0.29265,0.35261 -0.29264,0.35262 0.049,2.26803 0.049,2.26803 -0.39334,0.48406 -0.39333,0.48407 0.39687,-0.2219 0.39688,-0.22189 -0.36381,0.36954 -0.3638,0.36955 -0.12127,-0.33073 c -0.0667,-0.1819 -0.28696,-0.33073 -0.48947,-0.33073 h -0.36822 l 0.16763,0.83815 0.16764,0.83816 -0.438832,-0.16839 -0.438829,-0.1684 -0.0041,0.45472 -0.0041,0.45472 -0.246299,-0.38946 -0.246299,-0.38946 -0.181657,0.47339 c -0.09991,0.26036 -0.04678,0.60826 0.118059,0.7731 l 0.299715,0.29972 v -0.3175 c 0,-0.17463 0.142875,-0.3175 0.3175,-0.3175 h 0.3175 l -0.318911,0.31891 c -0.175402,0.1754 -0.64516,0.32423 -1.043908,0.33073 -0.398749,0.007 -0.725535,0.15072 -0.726193,0.3205 -6.58e-4,0.16977 -0.109582,0.4079 -0.242053,0.52916 l -0.240857,0.22049 0.190326,-0.33073 0.190326,-0.33073 -0.346344,-0.004 -0.346344,-0.004 0.396875,-0.26385 0.396875,-0.26385 -0.992188,0.0574 -0.992187,0.0574 v 0.60738 0.60738 h -1.55081 -1.55081 l 0.126446,-0.66146 0.126446,-0.66146 H 92.28955 c -0.380766,0 -0.706013,-0.14882 -0.722771,-0.33072 -0.01676,-0.18191 -0.01,-0.56886 0.01507,-0.8599 0.02505,-0.29104 0.166062,-0.91312 0.313367,-1.38239 l 0.267827,-0.85321 0.338535,0.31624 c 0.186194,0.17393 0.283128,0.52811 0.215409,0.78707 -0.06772,0.25896 -0.228302,0.47083 -0.35685,0.47083 -0.128549,0 -0.233725,0.11906 -0.233725,0.26458 0,0.14553 0.178594,0.26459 0.396875,0.26459 h 0.396875 l 0.03937,-0.72761 c 0.02166,-0.40018 0.05142,-1.28298 0.06615,-1.96179 0.01472,-0.6788 0.124472,-1.33213 0.243883,-1.45183 0.119412,-0.11971 0.417068,-0.21917 0.661459,-0.22102 l 0.444347,-0.003 0.09002,-0.79289 c 0.04951,-0.43609 0.228105,-0.88075 0.396875,-0.98813 0.168771,-0.10739 0.403179,-0.19707 0.520908,-0.1993 0.117729,-0.002 0.129098,0.13341 0.02527,0.30141 l -0.188787,0.30547 0.326903,-0.20204 0.326902,-0.20204 -0.144489,-0.57569 -0.14449,-0.57569 0.89097,0.0296 0.89097,0.0296 -0.111635,-0.61564 -0.111635,-0.61563 0.335903,-0.0313 c 0.184747,-0.0172 0.425201,-0.0172 0.534341,0 0.109141,0.0172 0.198438,-0.0948 0.198438,-0.24887 0,-0.15411 0.119062,-0.20661 0.264583,-0.11667 l 0.264584,0.16352 v -0.68115 -0.68115 l -1.475033,0.0617 -1.475033,0.0617 0.115426,0.60381 0.115426,0.60381 -0.426331,0.0417 c -0.234482,0.0229 -0.575159,0.0362 -0.75706,0.0294 -0.181901,-0.007 -0.330729,0.0936 -0.330729,0.2229 0,0.12935 -0.126089,0.23518 -0.280198,0.23518 -0.154109,0 -0.219162,-0.0988 -0.144563,-0.21946 0.0746,-0.1207 -0.120687,-0.20058 -0.43397,-0.1775 l -0.569605,0.042 -0.1936,0.72389 -0.1936,0.7239 0.378602,-0.31421 0.378601,-0.31421 v 0.26867 c 0,0.14777 -0.193685,0.343 -0.430411,0.43384 -0.236725,0.0908 -0.59679,0.0271 -0.800144,-0.14169 -0.203353,-0.16877 -0.452705,-0.22388 -0.554114,-0.12247 -0.10141,0.10141 -0.0092,0.29515 0.204831,0.43053 l 0.389213,0.24614 -0.359037,0.004 -0.359036,0.004 0.152295,0.39688 0.152295,0.39687 h -0.917738 c -0.504756,0 -0.917738,0.11907 -0.917738,0.26459 0,0.14552 0.178594,0.26458 0.396875,0.26458 0.218282,0 0.396875,0.12609 0.396875,0.2802 0,0.15411 -0.119062,0.20661 -0.264583,0.11668 -0.145521,-0.0899 -0.264583,0.006 -0.264583,0.21426 v 0.37778 l -0.859896,-0.0779 c -0.472943,-0.0428 -0.697596,-0.0128 -0.499229,0.0667 l 0.360668,0.14461 -0.330332,0.20416 -0.330332,0.20415 0.175859,0.70068 c 0.09672,0.38537 0.290067,0.6301 0.429654,0.54383 l 0.253796,-0.15686 -0.156985,0.4091 c -0.08634,0.225 -0.241643,0.35677 -0.345113,0.29283 -0.10347,-0.0639 -0.205819,0.61993 -0.227442,1.51973 -0.02162,0.8998 -0.16452,1.67774 -0.317549,1.72875 l -0.278235,0.0928 0.171464,2.05599 0.171464,2.056 -0.299521,0.18512 -0.299521,0.18511 -0.04894,-1.53697 -0.04894,-1.53697 -0.09717,1.38907 c -0.05345,0.76398 -0.186265,1.38906 -0.295152,1.38906 -0.108886,0 -0.211103,0.71437 -0.227148,1.5875 -0.01604,0.87312 0.08629,1.5875 0.227418,1.5875 0.141125,0 0.167177,-0.14883 0.0579,-0.33073 z M 67.789344,128.73402 c 0.03099,-0.29104 0.04081,-0.64823 0.02182,-0.79375 -0.01898,-0.14552 -0.149935,-0.086 -0.291,0.13229 l -0.25648,0.39688 -0.0041,-0.44519 c -0.0022,-0.24486 -0.257908,-0.52576 -0.568177,-0.62424 l -0.564126,-0.17905 0.358705,-0.22169 0.358705,-0.22169 0.174508,0.28236 0.174509,0.28236 0.308129,-0.49476 0.308129,-0.49477 -0.18309,0.65939 -0.18309,0.65938 0.386204,-0.32052 0.386205,-0.32052 -0.0751,0.95365 c -0.04131,0.52451 -0.150036,1.02687 -0.24162,1.11635 -0.09158,0.0895 -0.141163,-0.0754 -0.110176,-0.36648 z m 51.513566,-16.01141 c 0.0767,-0.29331 0.23593,-0.59291 0.35383,-0.66578 0.1179,-0.0729 0.29237,-0.006 0.38771,0.14801 0.0953,0.15427 0.0295,0.45387 -0.1464,0.66577 -0.17587,0.21191 -0.4131,0.38529 -0.52718,0.38529 -0.11408,0 -0.14466,-0.23998 -0.068,-0.53329 z m 0.0942,-4.95682 0.0186,-0.99219 0.22739,0.52917 c 0.12507,0.29104 0.23576,0.73753 0.24599,0.99219 0.0102,0.25466 -0.10047,0.46302 -0.24599,0.46302 -0.14552,0 -0.25621,-0.44648 -0.24599,-0.99219 z m -35.208176,35.09925 0.396875,-0.28068 -0.360668,-0.14417 -0.360667,-0.14418 0.360667,-0.2285 0.360668,-0.22851 -0.330729,-0.004 c -0.181901,-0.002 -0.330729,-0.18265 -0.330729,-0.40093 0,-0.21828 0.115325,-0.39687 0.256279,-0.39687 0.140954,0 0.186404,-0.18209 0.101,-0.40465 l -0.155279,-0.40465 -0.385204,0.47079 c -0.211863,0.25894 -0.316102,0.33214 -0.231644,0.16267 0.08446,-0.16947 0.03323,-0.34824 -0.113844,-0.39727 -0.147073,-0.049 -0.296642,-0.62474 -0.332377,-1.27937 -0.03573,-0.65462 -0.184036,-1.2777 -0.329556,-1.38462 l -0.264584,-0.19438 0.340038,-0.004 0.340039,-0.004 -0.264584,-0.49438 c -0.145521,-0.27191 -0.191844,-0.56712 -0.10294,-0.65602 0.0889,-0.0889 0.189934,-0.52128 0.224512,-0.96083 l 0.06287,-0.79919 h -0.879664 c -0.483815,0 -0.964618,-0.13746 -1.068451,-0.30547 l -0.188787,-0.30546 0.305464,0.18879 0.305464,0.18878 v -0.67707 -0.67707 h -0.41249 -0.41249 l 0.198695,0.33073 0.198696,0.33073 -0.447664,-0.36313 c -0.246215,-0.19972 -0.447664,-0.58965 -0.447664,-0.86651 v -0.50338 l -0.79375,-0.15875 -0.79375,-0.15875 v -0.58429 c 0,-0.32136 -0.07834,-0.66263 -0.174094,-0.75838 -0.09575,-0.0958 -0.339902,-0.0365 -0.542558,0.1317 l -0.368465,0.3058 -0.142722,-0.54577 c -0.0785,-0.30017 -0.28083,-0.52476 -0.449629,-0.49909 -0.168799,0.0257 -0.464525,0.14508 -0.657169,0.26536 l -0.350262,0.21868 0.331274,-0.53045 0.331273,-0.53045 0.415864,0.14483 0.415863,0.14483 -0.319516,-0.34522 -0.319516,-0.34523 -0.341942,0.26521 c -0.188069,0.14587 -0.580068,0.34352 -0.87111,0.43923 l -0.529166,0.17401 0.51359,-0.39752 0.513591,-0.39753 h -1.108903 -1.108903 v 0.29698 0.29698 l -0.396875,-0.32937 -0.396875,-0.32938 -0.0041,0.36313 -0.0041,0.36312 -0.202539,-0.31865 c -0.111395,-0.17526 -0.46676,-0.29875 -0.789698,-0.27443 l -0.58716,0.0442 v 0.72362 0.72362 l 1.389062,0.08 1.389063,0.08 -0.02101,0.59531 -0.02101,0.59531 h 0.748613 0.748612 v 0.81158 0.81158 l 0.491893,-0.15612 c 0.270541,-0.0859 0.680462,-0.0838 0.910935,0.005 l 0.419041,0.1608 -0.242927,0.63895 -0.242928,0.63895 h 0.903878 c 0.497133,0 0.977463,0.11906 1.0674,0.26458 0.08994,0.14552 0.03743,0.26458 -0.116677,0.26458 -0.154109,0 -0.280198,0.16586 -0.280198,0.36857 0,0.20271 0.184777,0.43948 0.410617,0.52614 l 0.410617,0.15757 -0.161649,-0.26156 c -0.08891,-0.14385 -0.04259,-0.26155 0.102935,-0.26155 0.145521,0 0.343631,0.1279 0.440246,0.28423 0.09661,0.15632 0.195198,0.8707 0.219076,1.5875 l 0.04341,1.30327 h -0.518615 -0.518615 l 0.513591,0.41848 0.51359,0.41847 -0.48466,-0.15389 c -0.266564,-0.0846 -0.601012,-0.15389 -0.743219,-0.15389 -0.142208,0 -0.184974,-0.11906 -0.09504,-0.26458 0.08994,-0.14553 0.103098,-0.26459 0.02925,-0.26459 -0.07385,0 -0.455451,0.29766 -0.848,0.66146 l -0.713725,0.66146 H 76.47728 75.722165 v 0.79375 c 0,0.43656 0.126089,0.79375 0.280198,0.79375 0.154109,0 0.190786,-0.14883 0.0815,-0.33073 l -0.198696,-0.33073 0.497203,0.39688 0.497202,0.39687 -0.173563,-0.46312 -0.173563,-0.46311 0.910631,0.38048 c 0.500848,0.20927 1.39974,0.37374 1.997539,0.36549 0.597799,-0.008 1.220139,0.11823 1.382977,0.28107 0.162838,0.16283 0.752243,0.29607 1.30979,0.29607 h 1.01372 l 0.152296,0.39687 c 0.08376,0.21828 0.228853,0.39505 0.322425,0.39282 0.09357,-0.002 0.348724,-0.13035 0.567005,-0.28472 z m -31.281506,-4.8706 0.05474,-0.66146 h -0.393911 c -0.216651,0 -0.393911,0.15478 -0.393911,0.34396 0,0.18918 0.142875,0.48683 0.3175,0.66146 0.174625,0.17462 0.32725,0.3175 0.339167,0.3175 0.01192,0 0.0463,-0.29766 0.07641,-0.66146 z m 34.914819,-15.27969 c -0.0557,-0.61846 -0.10128,-0.11245 -0.10128,1.12448 0,1.23693 0.04558,1.74294 0.10128,1.12448 0.0557,-0.61846 0.0557,-1.63049 0,-2.24896 z M 98.211831,72.815651 c 0,-0.122967 -0.238125,-0.439076 -0.529167,-0.702465 l -0.529166,-0.478889 v 0.384965 c 0,0.211731 0.142875,0.527841 0.3175,0.702466 0.174625,0.174625 0.41275,0.3175 0.529166,0.3175 0.116417,0 0.211667,-0.10061 0.211667,-0.223577 z m 32.596549,40.704829 c -0.0362,-0.0728 -0.0926,-2.18019 -0.12544,-4.68317 -0.0328,-2.50298 0.0326,-4.45858 0.14539,-4.34579 0.11278,0.1128 0.16923,2.22023 0.12545,4.68317 -0.0438,2.46295 -0.10921,4.41855 -0.1454,4.34579 z"
         id="path130" /><path
         style="fill:#235532"
         d="m 77.881257,149.86694 c -0.02329,-0.45512 0.112274,-0.95582 0.301251,-1.11265 l 0.343593,-0.28516 0.02836,0.98036 0.02836,0.98037 -0.197287,-0.79375 -0.197288,-0.79375 -0.132319,0.92604 -0.13232,0.92604 z M 70.279109,97.380896 c 0,-3.274219 0.03798,-4.613672 0.0844,-2.976563 0.04642,1.63711 0.04642,4.316016 0,5.953127 -0.04642,1.63711 -0.0844,0.29765 -0.0844,-2.976564 z m 12.388451,-6.283 c 1.70987,-0.04609 4.507838,-0.04609 6.217708,0 1.70987,0.04609 0.310886,0.08379 -3.108854,0.08379 -3.41974,0 -4.818724,-0.03771 -3.108854,-0.08379 z m 13.791159,-3.903459 c 5.97e-4,-1.600729 0.04418,-2.22146 0.09684,-1.379402 0.05267,0.842058 0.05218,2.151746 -0.0011,2.910417 -0.05326,0.758671 -0.09635,0.06971 -0.09575,-1.531015 z"
         id="path129" /></g></g></svg>
