<?xml version="1.0" encoding="UTF-8" standalone="no"?>
<!-- Created with Inkscape (http://www.inkscape.org/) -->

<svg
   width="210mm"
   height="297mm"
   viewBox="0 0 210 297"
   version="1.1"
   id="svg1"
   xml:space="preserve"
   xmlns="http://www.w3.org/2000/svg"
   xmlns:svg="http://www.w3.org/2000/svg"><defs
     id="defs1"><linearGradient
       id="swatch1"><stop
         style="stop-color:#000000;stop-opacity:1;"
         offset="0"
         id="stop1" /></linearGradient></defs><g
     id="layer1"><g
       id="g38"
       transform="matrix(1.0864666,0,0,1.356657,-18.05997,-48.091259)"><path
         style="fill:#d9f9e9"
         d="m 125.76768,180.63842 c 6.87586,-0.0393 18.12726,-0.0393 25.00312,0 6.87586,0.0393 1.25016,0.0714 -12.50156,0.0714 -13.75172,0 -19.37742,-0.0321 -12.50156,-0.0714 z m -0.2899,-13.22923 c -0.0675,-0.10914 5.61073,-0.19844 12.61824,-0.19844 h 12.74093 v -24.64714 c 0,-13.55593 0.0893,-24.59195 0.19844,-24.52449 0.10914,0.0675 0.19843,11.1051 0.19843,24.52808 0,18.62922 -0.0751,24.48057 -0.3175,24.72293 -0.23798,0.23798 -3.44787,0.3175 -12.81667,0.3175 -6.87455,0 -12.55439,-0.0893 -12.62187,-0.19844 z m 29.6366,0.0221 c -0.097,-0.097 -0.14784,-11.37818 -0.11294,-25.06927 l 0.0634,-24.89288 0.13838,24.87083 c 0.0761,13.67896 0.16662,24.89733 0.20113,24.92972 0.0345,0.0324 1.7594,0.0954 3.83307,0.14016 l 3.77031,0.0813 -3.8585,0.0583 c -2.12218,0.032 -3.93789,-0.0211 -4.0349,-0.11811 z m -22.9967,-49.76342 c 3.09232,-0.0423 8.15247,-0.0423 11.24479,0 3.09232,0.0423 0.56224,0.0769 -5.62239,0.0769 -6.18464,0 -8.71472,-0.0346 -5.6224,-0.0769 z m -1.05833,-3.96882 c 3.52888,-0.0417 9.30341,-0.0417 12.83229,0 3.52888,0.0417 0.64161,0.0758 -6.41615,0.0758 -7.05776,0 -9.94502,-0.0341 -6.41614,-0.0758 z"
         id="path49" /><path
         style="fill:#c6e9d5"
         d="m 77.538274,158.74409 c 4.3e-5,-7.71261 0.03383,-10.82962 0.07509,-6.9267 0.04126,3.90292 0.04122,10.21324 -7.8e-5,14.02292 -0.0413,3.80968 -0.07505,0.61638 -0.07501,-7.09622 z m 47.628646,-16.13958 c -1e-5,-13.38792 0.0322,-18.90356 0.0715,-12.25698 0.0394,6.64658 0.0394,17.60033 3e-5,24.34166 -0.0393,6.74134 -0.0715,1.30323 -0.0715,-12.08468 z"
         id="path48" /><path
         style="fill:#b6dac6"
         d="m 92.35655,155.4368 c 0,-9.53162 0.03308,-13.43091 0.0735,-8.66511 0.04043,4.76581 0.04043,12.5644 0,17.33021 -0.04043,4.76581 -0.0735,0.86651 -0.0735,-8.6651 z m 34.20488,15.94121 c 6.4393,-0.0394 16.97633,-0.0394 23.41562,0 6.4393,0.0395 1.17079,0.0717 -11.70781,0.0717 -12.87859,0 -18.14711,-0.0323 -11.70781,-0.0717 z"
         id="path47" /><path
         style="fill:#a5cfb7"
         d="m 128.56554,176.66968 c 5.94083,-0.0397 15.58489,-0.0397 21.43125,3e-5 5.84636,0.0397 0.98568,0.0722 -10.80151,0.0722 -11.78718,-2e-5 -16.57057,-0.0325 -10.62974,-0.0722 z"
         id="path46" /><path
         style="fill:#87b19a"
         d="m 88.652488,155.17221 c 0,-9.67713 0.03303,-13.63596 0.0734,-8.79739 0.04037,4.83857 0.04037,12.75622 0,17.59479 -0.04037,4.83857 -0.0734,0.87974 -0.0734,-8.7974 z"
         id="path45" /><path
         style="fill:#70a287"
         d="m 81.242519,158.6118 c 0,-7.78537 0.03374,-10.97029 0.07497,-7.07761 0.04124,3.89268 0.04124,10.26253 0,14.15521 -0.04124,3.89268 -0.07497,0.70776 -0.07497,-7.0776 z m 40.220291,-16.00729 c 2e-5,-13.53344 0.0322,-19.03107 0.0715,-12.21696 0.0393,6.81411 0.0393,17.88692 -3e-5,24.60625 -0.0393,6.71932 -0.0715,1.14414 -0.0715,-12.38929 z m 29.89775,-0.26459 c 1e-5,-13.09687 0.0323,-18.41594 0.0717,-11.82015 0.0394,6.5958 0.0394,17.31142 -3e-5,23.8125 -0.0394,6.50108 -0.0716,1.10453 -0.0716,-11.99235 z M 132.51455,117.4032 c 3.3106,-0.042 8.72795,-0.042 12.03855,0 3.31059,0.042 0.60192,0.0763 -6.01927,0.0763 -6.6212,0 -9.32987,-0.0344 -6.01928,-0.0763 z"
         id="path44" /><path
         style="fill:#558c6d"
         d="m 77.803011,158.74409 c 4.2e-5,-7.85813 0.03377,-11.03465 0.07494,-7.05893 0.04118,3.97571 0.04114,10.40509 -7.6e-5,14.2875 -0.04122,3.88241 -0.07491,0.62955 -0.07487,-7.22857 z"
         id="path43" /><path
         style="fill:#4a7c61"
         d="m 127.24282,180.37383 c 6.52302,-0.0394 17.11958,-0.0394 23.54792,3e-5 6.42833,0.0394 1.09131,0.0717 -11.86004,0.0717 -12.95135,-2e-5 -18.2109,-0.0323 -11.68788,-0.0717 z M 92.091635,155.4368 c 0,-9.09506 0.03322,-12.81576 0.07382,-8.26823 0.0406,4.54752 0.0406,11.98893 0,16.53646 -0.0406,4.54752 -0.07382,0.82682 -0.07382,-8.26823 z m 34.866665,15.67663 c 6.36654,-0.0395 16.78451,-0.0395 23.15105,0 6.36653,0.0395 1.15755,0.0718 -11.57552,0.0718 -12.73308,0 -17.94206,-0.0323 -11.57553,-0.0718 z m 27.84169,-28.11205 c 0,-12.73307 0.0323,-17.94206 0.0718,-11.57552 0.0395,6.36654 0.0395,16.7845 0,23.15104 -0.0395,6.36654 -0.0718,1.15755 -0.0718,-11.57552 z m -29.89776,-0.92604 c 1e-5,-13.09688 0.0322,-18.41594 0.0716,-11.82015 0.0394,6.59579 0.0394,17.31142 -3e-5,23.8125 -0.0394,6.50108 -0.0716,1.10452 -0.0716,-11.99235 z m 7.08316,-28.11175 c 3.45612,-0.0418 9.11159,-0.0418 12.56771,0 3.45612,0.0418 0.62838,0.076 -6.28386,0.076 -6.91224,0 -9.73997,-0.0342 -6.28385,-0.076 z"
         id="path42" /><path
         style="fill:#46795c"
         d="m 126.42914,176.93426 c 6.51206,-0.0394 17.16815,-0.0394 23.68021,0 6.51205,0.0394 1.18401,0.0717 -11.84011,0.0717 -13.02411,0 -18.35216,-0.0322 -11.8401,-0.0717 z m 6.50043,-9.26029 c 3.39334,-0.0419 8.87022,-0.0419 12.17084,1.1e-4 3.30062,0.0419 0.52425,0.0762 -6.16971,0.0762 -6.69396,-5e-5 -9.39446,-0.0344 -6.00113,-0.0763 z"
         id="path41" /><path
         style="fill:#2e7242"
         d="m 112.48284,179.00274 c -0.28528,-0.42581 -0.61134,-0.71694 -0.72457,-0.64695 -0.11324,0.07 -0.13498,-0.0575 -0.0483,-0.28338 0.0867,-0.22584 0.0555,-0.41075 -0.0692,-0.41092 -0.21533,-2.8e-4 -0.25271,-2.21129 -0.10399,-6.15126 0.0371,-0.98226 0.18048,-1.78593 0.31867,-1.78593 0.1382,0 0.19272,-0.0947 0.12118,-0.21049 -0.20918,-0.33846 1.03791,-0.2181 1.47172,0.14204 0.21759,0.18064 0.49153,0.24017 0.60877,0.1323 0.11724,-0.10788 0.1472,0.0717 0.0666,0.39917 -0.0806,0.32742 -0.0944,0.59531 -0.0305,0.59531 0.0638,0 0.22373,-0.26789 0.35534,-0.59531 0.16344,-0.40663 0.2446,-0.45814 0.25606,-0.16254 0.0225,0.58172 -0.65262,1.85236 -0.86918,1.63579 -0.28266,-0.28266 -0.19544,0.43668 0.1257,1.03674 0.23916,0.44689 0.21302,0.61917 -0.1323,0.87167 -0.31834,0.23277 -0.43037,0.74719 -0.43037,1.97615 0,1.25068 -0.10991,1.74182 -0.44456,1.98652 -0.40777,0.29817 -0.39682,0.35062 0.13229,0.63379 0.52831,0.28274 0.57719,0.24671 0.5809,-0.42819 0.002,-0.4053 0.11947,-0.91551 0.26054,-1.13379 0.21746,-0.3365 0.25709,-0.32406 0.26053,0.0818 0.002,0.26325 0.12311,0.40505 0.26863,0.31512 0.14552,-0.0899 0.26459,-0.046 0.26459,0.0977 0,0.16967 7.93,0.27105 22.62382,0.28925 12.44311,0.0154 22.80181,0.0963 23.01934,0.17979 0.21754,0.0835 0.67674,0.0812 1.02045,-0.005 0.50625,-0.12707 0.60458,-0.29579 0.51771,-0.88843 l -0.10723,-0.73159 0.41174,0.79375 c 0.22645,0.43657 0.3504,0.57566 0.27545,0.30909 -0.075,-0.26656 -0.13629,-1.19632 -0.13629,-2.06613 0,-0.98694 -0.0995,-1.52 -0.26458,-1.41796 -0.40171,0.24827 -0.31612,-0.11855 0.13229,-0.56696 0.30565,-0.30565 0.39781,-0.31651 0.40093,-0.0472 0.003,0.25823 0.0711,0.24588 0.26053,-0.0472 0.21746,-0.3365 0.2571,-0.32406 0.26053,0.0818 0.002,0.26325 0.12312,0.40505 0.26864,0.31511 0.38357,-0.23706 0.30795,-1.21982 -0.15271,-1.98437 l -0.39853,-0.66146 0.17172,0.66146 c 0.16326,0.62885 0.14845,0.63911 -0.30047,0.20821 -0.38483,-0.3694 -0.4184,-0.57132 -0.18141,-1.09145 0.25422,-0.55794 0.21139,-0.67438 -0.3405,-0.92584 -0.46402,-0.21142 -0.68126,-0.20679 -0.81987,0.0175 -0.10373,0.16783 -0.0485,0.35185 0.12284,0.40895 0.7151,0.23836 0.23378,0.54377 -0.74691,0.47392 -0.58208,-0.0415 -1.05833,0.027 -1.05833,0.15208 0,0.1251 -9.53203,0.22746 -21.18228,0.22746 -14.05415,0 -21.12725,-0.089 -21.01876,-0.26458 0.0899,-0.14552 -0.0291,-0.26459 -0.26458,-0.26459 -0.23546,0 -0.35452,0.11907 -0.26459,0.26459 0.0975,0.15776 -0.22294,0.26458 -0.79375,0.26458 -0.5708,0 -0.89125,-0.10682 -0.79375,-0.26458 0.0899,-0.14552 0.0374,-0.26459 -0.11667,-0.26459 -0.15411,0 -0.28023,-0.0893 -0.28027,-0.19843 -3e-5,-0.10915 9.97145,-0.1635 22.15886,-0.12079 12.1874,0.0427 22.45657,-7e-4 22.82037,-0.0965 0.62252,-0.16387 0.63031,-0.18682 0.1323,-0.38979 -0.29105,-0.11862 -1.39237,-0.22404 -2.4474,-0.23426 -1.52044,-0.0147 -1.91823,-0.1009 -1.91823,-0.41548 0,-0.40957 1.08148,-0.50908 5.68854,-0.5234 1.72413,-0.005 1.90206,0.0491 2.57546,0.78799 0.39786,0.43656 0.72528,0.9496 0.72761,1.14009 0.002,0.19049 0.11218,0.27962 0.24413,0.19807 0.13195,-0.0816 0.1776,0.09 0.10144,0.38126 -0.21068,0.80563 -0.56078,0.63279 -0.66917,-0.33036 -0.0532,-0.47294 -0.12237,1.00704 -0.15365,3.28884 -0.0313,2.28181 0.0345,4.20544 0.14616,4.27474 0.11166,0.0693 0.19316,-1.32138 0.1811,-3.0904 l -0.0219,-3.21641 0.16715,3.04271 0.16714,3.04271 0.10579,-2.24896 0.10579,-2.24896 0.0923,1.96544 c 0.0899,1.91617 -0.28823,3.59714 -0.74566,3.31443 -0.12224,-0.0755 -0.41977,0.16409 -0.66118,0.53253 l -0.43893,0.66989 -25.17113,-7.6e-4 -25.17114,-7.6e-4 z m 51.23433,-1.73176 c -0.26883,-0.52639 -0.51801,-0.7546 -0.62986,-0.57684 -0.10177,0.16176 -0.0125,0.4848 0.19844,0.71786 0.73335,0.81035 0.45713,0.96456 -1.23857,0.69148 -1.17567,-0.18934 -1.75718,-0.17684 -2.11307,0.0454 -0.36026,0.22499 -6.56907,0.32372 -23.31492,0.37075 l -22.82391,0.0641 24.73855,0.13433 c 27.35546,0.14855 26.03694,0.22432 25.18334,-1.4471 z m -80.48126,1.77988 c 0,-0.1819 -0.208359,-0.33943 -0.463021,-0.35007 -0.689316,-0.0288 -2.044395,-0.89364 -2.075271,-1.3245 -0.08133,-1.13491 -0.132717,-1.30199 -0.400432,-1.30199 -0.16109,0 -0.221985,0.18477 -0.135322,0.41061 0.09035,0.23546 0.046,0.34166 -0.103984,0.24897 -0.143854,-0.0889 -0.261553,-0.47503 -0.261553,-0.85806 0,-0.67104 -0.01448,-0.6777 -0.397524,-0.18282 -0.385398,0.49792 -0.392097,0.49814 -0.219621,0.007 0.114546,-0.32607 0.07771,-0.4445 -0.103418,-0.33255 -0.338816,0.2094 -0.669032,-0.92836 -0.441518,-1.52125 0.0882,-0.22984 0.02856,-0.4179 -0.132528,-0.4179 -0.411313,0 -0.414038,-26.53134 -0.0028,-27.29973 0.178477,-0.33349 0.216874,-1.01394 0.0998,-1.76855 -0.151775,-0.97827 -0.233499,-1.11941 -0.403783,-0.69734 -0.139151,0.3449 -0.219625,0.39097 -0.231101,0.13229 -0.0097,-0.21828 0.21148,-0.77258 0.491476,-1.23177 0.279996,-0.45919 0.438301,-0.90567 0.351789,-0.99219 -0.246033,-0.24603 -1.127434,-0.18428 -1.127434,0.079 0,0.45813 -0.889438,0.57517 -1.294295,0.17032 -0.239162,-0.23916 -0.283375,-0.4066 -0.107366,-0.4066 0.164577,0 0.34327,0.13212 0.397096,0.2936 0.06441,0.19323 0.204116,0.16557 0.408682,-0.0809 0.266346,-0.32093 -0.62296,-0.3847 -6.215727,-0.44574 -3.589599,-0.0392 -6.726773,-0.17839 -6.971499,-0.30937 -0.607666,-0.32521 -0.799151,-2.03411 -0.251939,-2.24843 0.447026,-0.17508 11.498805,-0.0911 12.249111,0.0931 0.584331,0.14343 0.595012,0.67194 0.02312,1.14402 -0.342951,0.2831 -0.464435,0.29024 -0.551215,0.0324 -0.141496,-0.42041 -11.179716,-0.48572 -11.179716,-0.0661 0,0.16117 1.318544,0.27495 3.373437,0.2911 3.37167,0.0265 8.048531,0.3029 8.797396,0.51993 0.272704,0.079 0.423068,-0.11263 0.480595,-0.61259 0.0617,-0.53622 0.229887,-0.72761 0.63941,-0.72761 0.305629,0 0.481984,0.0737 0.3919,0.16379 -0.09009,0.0901 0.0148,0.34239 0.233085,0.56067 0.218281,0.21828 0.470832,0.32292 0.561224,0.23252 0.183338,-0.18333 1.400261,1.8344 1.393901,2.31118 -0.0022,0.16704 -0.119468,0.12512 -0.260532,-0.0932 -0.141064,-0.21828 -0.258303,-0.27186 -0.260532,-0.11906 -0.0022,0.1528 0.138824,0.42069 0.313449,0.59531 0.174625,0.17463 0.201978,0.3175 0.06078,0.3175 -0.147484,0 -0.220563,0.69997 -0.171749,1.64506 0.100449,1.94482 0.311484,2.37665 0.349005,0.71414 0.01451,-0.64271 0.1217,-1.46623 0.23821,-1.83003 l 0.211836,-0.66146 0.0491,0.66146 c 0.02701,0.3638 0.02962,7.09276 0.0058,14.95324 -0.02381,7.86048 0.03819,14.61645 0.137789,15.01327 0.0996,0.39683 0.295408,0.65084 0.435138,0.56448 0.139731,-0.0864 0.231986,0.004 0.205011,0.20027 -0.105987,0.77211 0.02666,1.07036 0.410528,0.92306 0.243593,-0.0935 0.396875,3.1e-4 0.396875,0.24282 0,0.35023 0.26406,0.50276 1.844668,1.06557 0.342891,0.12209 0.342891,0.16812 0,0.38497 -0.281008,0.17771 -0.113169,0.24743 0.602728,0.25035 0.678121,0.003 0.992187,-0.11373 0.992187,-0.36805 0,-0.25293 -0.19066,-0.32516 -0.595312,-0.22552 -0.848323,0.20889 -0.491881,-0.0632 0.538227,-0.41083 0.499344,-0.16852 0.80219,-0.18522 0.711989,-0.0393 -0.08633,0.13969 0.0055,0.25398 0.20412,0.25398 0.516203,0 2.113089,-1.22986 2.499274,-1.92485 0.250729,-0.45122 0.329307,-4.88585 0.336493,-18.99046 0.007,-13.71243 0.08846,-18.48085 0.319699,-18.71209 0.233141,-0.23314 0.235991,-0.47347 0.01146,-0.96626 -0.23256,-0.51041 -0.226009,-0.62798 0.02953,-0.52992 0.198846,0.0763 0.492052,-0.32011 0.74325,-1.00489 0.341817,-0.9318 0.519983,-1.11547 1.011984,-1.04322 0.372953,0.0548 0.531446,-0.0186 0.422173,-0.19541 -0.111171,-0.17988 -0.0094,-0.21957 0.279065,-0.10886 0.302486,0.11607 0.39182,0.0736 0.267659,-0.12732 -0.114606,-0.18543 0.161866,-0.44703 0.718047,-0.67942 0.497425,-0.20784 0.978591,-0.49792 1.06926,-0.64462 0.110445,-0.17871 0.46109,-0.17582 1.062474,0.009 0.977977,0.30015 2.394795,0.0797 2.139771,-0.33293 -0.0873,-0.14126 0.02689,-0.25683 0.253763,-0.25683 0.236101,0 0.412489,-0.22628 0.412489,-0.52917 0,-0.40921 0.176389,-0.52916 0.778136,-0.52916 0.998349,0 1.270203,-0.42254 0.410661,-0.63828 -1.223627,-0.30711 -0.671407,-0.60409 1.226312,-0.6595 1.70685,-0.0498 1.84684,-0.016 1.47411,0.35677 -0.22651,0.22651 -0.55925,0.41184 -0.73942,0.41184 -0.65717,0 -0.0463,0.25867 0.89565,0.37927 0.53234,0.0682 1.19344,0.24464 1.46914,0.39218 0.27568,0.14755 0.57787,0.19164 0.67153,0.098 0.31536,-0.31536 4.3135,-0.48954 4.58425,-0.19971 0.45627,0.48844 -0.25139,0.78854 -1.90682,0.80862 -0.87313,0.0106 -1.82563,0.08 -2.11667,0.15429 -0.71387,0.18218 -0.79947,1.06929 -0.26664,2.7633 0.24316,0.77306 0.36583,1.52897 0.27261,1.67981 -0.21716,0.35137 -2.43562,0.35945 -2.6518,0.01 -0.0899,-0.14552 -0.46118,-0.26459 -0.82498,-0.26459 -0.41627,0 -0.59435,0.10859 -0.48042,0.29293 0.12314,0.19925 -0.0199,0.23601 -0.44741,0.11496 -0.484597,-0.13723 -0.537603,-0.11436 -0.23157,0.0999 0.21828,0.15282 1.05767,0.27968 1.86532,0.28191 1.44838,0.004 2.10343,0.31013 2.10343,0.98301 0,0.4034 -0.95165,0.46604 -1.19122,0.0784 -0.0903,-0.14606 -0.45601,-0.1923 -0.81276,-0.10276 -1.0571,0.26531 -3.023105,-0.129 -3.023105,-0.60634 0,-0.33717 0.07292,-0.35254 0.396875,-0.0837 0.254224,0.21098 0.396875,0.22735 0.396875,0.0455 0,-0.15611 -0.20836,-0.40519 -0.463021,-0.55352 -0.285721,-0.16641 -0.330399,-0.27276 -0.116677,-0.27773 0.190489,-0.004 0.267226,-0.13606 0.170525,-0.29252 -0.113376,-0.18345 -0.385163,-0.0878 -0.765268,0.26927 -0.531727,0.49953 -0.589847,0.50796 -0.593526,0.0861 -0.0022,-0.25725 0.108289,-0.54127 0.245627,-0.63116 0.137338,-0.0899 -0.05927,-0.24099 -0.436894,-0.33577 -0.37763,-0.0948 -0.688423,-0.31889 -0.690651,-0.49802 -0.0026,-0.21042 -0.09482,-0.18523 -0.260532,0.0712 -0.18637,0.28839 -0.257588,0.3022 -0.260532,0.0505 -0.0022,-0.19049 -0.0949,-0.29019 -0.205948,-0.22156 -0.333124,0.20588 -3.370209,0.47994 -3.176948,0.28668 0.204043,-0.20404 -0.422107,-0.9094 -0.807282,-0.9094 -0.619593,0 -0.536293,0.82336 0.11324,1.1193 0.621172,0.28303 0.640491,0.33775 0.226183,0.6407 -0.263945,0.193 -0.385205,0.50792 -0.290554,0.75457 0.09984,0.26019 0.05479,0.35679 -0.116915,0.25068 -0.153648,-0.095 -0.344765,0.0775 -0.424703,0.38313 -0.07994,0.30568 -0.234007,0.55579 -0.342376,0.55579 -0.108369,0 -0.140134,0.29765 -0.07059,0.66146 0.07381,0.38611 0.0035,0.66145 -0.168982,0.66145 -0.162486,0 -0.295428,-0.1389 -0.295428,-0.30868 0,-0.16977 -0.06905,-0.23963 -0.153433,-0.15524 -0.08439,0.0844 0.03238,0.43701 0.259473,0.7836 0.362812,0.55372 0.414856,2.67818 0.428979,17.51128 0.0088,9.28461 -0.08081,17.01832 -0.19923,17.18602 -0.118416,0.16769 -0.212646,0.73997 -0.2094,1.27173 0.0032,0.53175 -0.08339,0.91168 -0.192535,0.84428 -0.10914,-0.0674 -0.198437,0.0181 -0.198437,0.19004 0,0.23075 -0.105595,0.22496 -0.403269,-0.0221 -0.221798,-0.18408 -0.479767,-0.25819 -0.573264,-0.16469 -0.0935,0.0935 -0.0013,0.17754 0.204831,0.18676 0.206155,0.009 0.106936,0.12445 -0.220486,0.25606 -0.386469,0.15534 -0.595312,0.46296 -0.595312,0.87687 0,0.62219 -0.574635,1.36247 -0.846537,1.09057 -0.07501,-0.075 -0.286997,0.0451 -0.471073,0.26688 -0.372711,0.44909 -1.06364,0.54457 -1.06364,0.14699 0,-0.14095 0.198125,-0.18025 0.440278,-0.0873 0.282749,0.1085 0.376041,0.065 0.260742,-0.12155 -0.160236,-0.25926 0.751609,-0.7649 1.184136,-0.65662 0.09095,0.0228 0.165365,-0.24843 0.165365,-0.60267 v -0.64407 l -0.515443,0.65528 c -0.398634,0.50678 -0.675946,0.6204 -1.223698,0.5014 -0.54828,-0.11912 -0.618612,-0.0902 -0.31138,0.12805 0.309876,0.22013 0.179379,0.28282 -0.595313,0.28599 -1.122977,0.005 -1.331021,0.43809 -0.330729,0.68915 1.312132,0.32932 0.706378,0.77011 -1.058333,0.77011 -1.199445,0 -1.719792,-0.10007 -1.719792,-0.33073 z M 79.401923,147.0167 c -0.07412,-0.0741 -0.188831,-0.0807 -0.254915,-0.0146 -0.06608,0.0661 -0.155381,5.85651 -0.198437,12.86761 -0.04306,7.0111 0.0026,12.54305 0.101556,12.29322 0.119112,-0.30086 0.207612,-0.0969 0.26208,0.60408 0.04523,0.58209 0.114243,-4.94329 0.153359,-12.2786 0.03912,-7.33532 0.01048,-13.39758 -0.06364,-13.4717 z m 11.831742,8.93303 c -0.05753,-13.1138 -0.14437,-16.59041 -0.431225,-17.26413 -0.316646,-0.74368 -0.383714,-0.78422 -0.566265,-0.34231 -0.141791,0.34324 -0.0684,0.60268 0.232787,0.82292 0.401928,0.29389 0.439865,1.73964 0.439865,16.76278 0,9.04262 0.0893,16.44117 0.198437,16.4412 0.109141,3e-5 0.166021,-7.38918 0.126401,-16.42046 z m 30.102245,13.49092 c 0,-0.19299 -1.26862,-0.25641 -3.96912,-0.19844 -2.18302,0.0469 -3.96895,-0.004 -3.96875,-0.11323 2e-4,-0.10914 -0.20204,-0.19843 -0.44942,-0.19843 -0.28204,0 -0.35605,-0.0924 -0.19844,-0.24773 0.13824,-0.13625 2.23605,-0.28508 4.66179,-0.33073 4.26162,-0.0802 5.2583,-0.24682 4.45311,-0.74446 -0.20986,-0.1297 -0.30988,-0.30749 -0.22228,-0.39509 0.0876,-0.0876 0.34354,0.025 0.56875,0.2502 0.56913,0.56912 0.785,0.51135 0.44728,-0.11969 -0.15577,-0.29105 -0.48738,-0.53099 -0.73692,-0.53322 -0.33419,-0.003 -0.3646,-0.0606 -0.11543,-0.21872 0.27155,-0.17232 0.32375,-5.05119 0.26459,-24.73162 -0.0584,-19.42412 -0.005,-24.5433 0.25703,-24.64381 0.1819,-0.0698 0.3289,-0.27942 0.32667,-0.46589 -0.003,-0.23959 -0.0846,-0.22262 -0.2788,0.0578 -0.23218,0.33537 -0.2623,0.32296 -0.19439,-0.0801 0.0442,-0.26235 0.17868,-0.46289 0.29885,-0.44564 0.12016,0.0172 0.4299,-0.21243 0.68832,-0.51038 0.25841,-0.29795 0.54705,-0.46453 0.64142,-0.37016 0.0944,0.0944 0.17157,0.0518 0.17157,-0.0946 0,-0.7838 1.47657,-0.88019 13.30776,-0.8688 6.57797,0.006 12.45935,0.10821 13.06973,0.22637 0.7318,0.14167 1.21024,0.11522 1.40474,-0.0777 0.21641,-0.21462 0.24358,-0.15766 0.10203,0.21391 -0.12722,0.33393 -0.0956,0.44629 0.0927,0.32987 0.35758,-0.221 1.12717,0.0575 1.12717,0.40794 0,0.14387 0.24565,0.60657 0.5459,1.02822 0.30024,0.42166 0.47181,0.88652 0.38126,1.03304 -0.0906,0.14651 -0.0914,0.38488 -0.002,0.52972 0.20022,0.32397 0.32193,48.1397 0.12221,48.01636 -0.0787,-0.0486 -0.0939,0.33317 -0.0338,0.84845 0.0602,0.51527 0.19058,0.80546 0.28982,0.64488 0.10313,-0.16687 0.4279,0.21735 0.75794,0.89667 l 0.57748,1.18864 h -0.79031 c -0.43467,0 -0.79031,-0.13005 -0.79031,-0.289 0,-0.15895 -0.22542,-0.57558 -0.50094,-0.92584 -0.41852,-0.53206 -0.52735,-0.56801 -0.66145,-0.21853 -0.0883,0.23007 -0.16053,0.6467 -0.16053,0.92584 0,0.56156 -0.67927,0.69946 -0.87092,0.1768 -0.097,-0.26459 -0.19138,-0.26459 -0.47184,0 -0.19281,0.1819 -0.61449,0.33073 -0.93706,0.33073 -0.32257,0 -0.64039,-0.14883 -0.70627,-0.33073 -0.0946,-0.2612 -0.24484,-0.25664 -0.7147,0.0217 -0.42671,0.2528 -0.67588,0.2715 -0.88123,0.0661 -0.38295,-0.38296 -22.93464,-0.40432 -22.93464,-0.0217 0,0.15287 -0.83785,0.26459 -1.98438,0.26459 -1.23543,0 -1.98437,-0.10706 -1.98437,-0.28365 z m 30.08244,-1.57149 c 0.45794,-0.35294 0.51413,-0.52081 0.26459,-0.79051 -0.2471,-0.26705 -0.24431,-0.30148 0.0127,-0.15643 0.26199,0.14787 0.32671,-4.90778 0.31581,-24.67105 l -0.0137,-24.85703 -0.5804,0.1495 c -0.53586,0.13803 -0.54995,0.11173 -0.18353,-0.34279 0.35978,-0.44628 0.3536,-0.47607 -0.0661,-0.31877 -0.25466,0.0954 -0.46302,0.0582 -0.46302,-0.0828 0,-0.14096 -0.20836,-0.25446 -0.46302,-0.25223 -0.39664,0.003 -0.40612,0.0416 -0.0661,0.26604 0.26456,0.17465 -3.87792,0.25497 -12.42508,0.24093 -12.18105,-0.02 -12.83055,0.003 -12.99411,0.46156 -0.0947,0.26544 -0.10887,0.65099 -0.0315,0.85676 0.0894,0.23776 0.0278,0.3044 -0.16891,0.18282 -0.18578,-0.11482 -0.30954,-0.0264 -0.30954,0.22118 0,0.22687 0.12608,0.41249 0.28019,0.41249 0.15411,0 0.21467,0.10604 0.13457,0.23565 -0.23548,0.381 -0.30335,48.18317 -0.0684,48.18313 0.11773,-1e-5 0.14047,0.11903 0.0505,0.26455 -0.0899,0.14552 -0.12673,0.29028 -0.0818,0.32168 0.16063,0.11217 25.22767,0.33763 25.74634,0.23157 0.29104,-0.0595 0.7908,-0.30985 1.11057,-0.5563 z m -13.92197,-18.59954 c -0.0115,-0.26325 -0.13995,-0.40505 -0.28547,-0.31512 -0.15269,0.0944 -0.26287,-0.15078 -0.26053,-0.57969 0.003,-0.57709 0.0614,-0.65451 0.26053,-0.34635 0.19463,0.30117 0.25746,0.1895 0.26053,-0.46302 0.003,-0.73146 0.0994,-0.85989 0.64253,-0.85989 0.60173,0 0.62226,-0.0495 0.35676,-0.8599 -0.15494,-0.47294 -0.32285,-1.01757 -0.37313,-1.21028 -0.17196,-0.6591 -0.88669,0.39009 -0.88669,1.30163 0,1.41504 -0.24186,0.72458 -0.36474,-1.04124 -0.0631,-0.90635 -0.24143,-1.80065 -0.39635,-1.98732 -0.15976,-0.19249 -0.31719,-1.93508 -0.36372,-4.02584 l -0.082,-3.68643 -0.058,4.01928 c -0.0389,2.69544 -0.15865,4.08147 -0.3635,4.20807 -0.18232,0.11268 -0.23391,0.073 -0.12798,-0.0984 0.0976,-0.15795 0.0565,-0.36197 -0.0914,-0.45337 -0.14789,-0.0914 -0.2689,-0.0449 -0.2689,0.10335 0,0.14825 -0.35552,0.24458 -0.79006,0.21406 l -0.79006,-0.0555 0.0625,-3.96875 c 0.0473,-3.00777 0.14254,-3.95273 0.39318,-3.9026 0.1819,0.0364 0.33073,-0.17901 0.33073,-0.47864 0,-0.32187 -0.11663,-0.4727 -0.28503,-0.36862 -0.2828,0.17478 -0.13984,-1.70518 0.22227,-2.92305 0.28985,-0.97486 0.49257,0.89587 0.35838,3.30729 -0.0974,1.74974 -0.17143,2.07276 -0.33364,1.45521 -0.17874,-0.68051 -0.14742,0.34777 0.17135,5.62696 0.0287,0.47546 0.12161,0.93388 0.20645,1.01871 0.14204,0.14205 0.28807,-4.35808 0.31185,-9.6104 0.009,-2.09406 0.0333,-2.17653 0.67129,-2.32767 0.3638,-0.0862 0.89958,-0.21837 1.19062,-0.29375 0.4304,-0.11148 0.4551,-0.0852 0.1323,0.1408 -0.34256,0.23984 -0.33393,0.27842 0.063,0.28192 0.2751,0.002 0.44431,0.1901 0.4211,0.46707 -0.0213,0.25466 -0.0199,1.14763 0.003,1.98438 0.0333,1.20776 0.13014,1.52135 0.46988,1.52135 0.37003,0 0.40565,-0.25968 0.26316,-1.91823 -0.1724,-2.00674 0.0125,-2.56195 0.97347,-2.92271 0.40997,-0.15391 0.46355,-0.0445 0.39687,0.81015 -0.0424,0.54345 -0.17887,1.06236 -0.30328,1.15315 -0.12441,0.0908 -0.2299,0.86469 -0.23441,1.71979 -0.007,1.29376 -0.0451,1.42149 -0.22786,0.76098 -0.18567,-0.67095 -0.2058,-0.60955 -0.13014,0.39687 0.0492,0.65484 0.002,1.48828 -0.10601,1.85208 -0.19189,0.64919 -0.2036,0.64305 -0.63119,-0.33073 -0.23962,-0.5457 -0.48262,-0.99218 -0.54001,-0.99218 -0.0574,0 -0.0915,0.83343 -0.0758,1.85208 0.0208,1.35131 0.12378,1.85208 0.38078,1.85208 0.19373,0 0.42077,-0.17859 0.50453,-0.39687 0.17987,-0.46874 0.65473,-0.53888 0.5587,-0.0825 -0.0377,0.17913 0.38908,0.39474 0.99219,0.50127 1.15893,0.20469 1.52451,0.0865 0.91838,-0.29678 -0.30996,-0.19603 -0.2724,-0.24698 0.18446,-0.2502 1.45413,-0.0103 1.76482,0.60375 0.91443,1.80719 -0.27295,0.38626 -0.58494,1.11902 -0.69332,1.62834 -0.26913,1.26476 -0.84029,2.32257 -1.46456,2.71243 -0.5976,0.37321 -0.70752,0.8554 -0.14587,0.63987 0.29695,-0.11395 0.28319,0.0175 -0.0661,0.63148 -0.24262,0.42646 -0.53745,0.77613 -0.65518,0.77705 -0.11773,9.2e-4 -0.13997,0.12155 -0.0494,0.26806 0.0906,0.14651 -0.064,0.593 -0.34353,0.99219 -0.2795,0.39919 -0.57528,0.90439 -0.6573,1.12267 -0.11571,0.30793 -0.15381,0.28961 -0.17002,-0.0818 z m 15.58953,-6.41088 c 0,-16.76934 0.0796,-22.85854 0.29969,-22.93191 0.18626,-0.0621 0.22638,-0.33088 0.10601,-0.71014 -0.14601,-0.46004 -0.26862,-0.53533 -0.49813,-0.30588 -0.46166,0.46153 -0.69956,47.4374 -0.2383,47.05449 0.25991,-0.21576 0.33073,-5.16377 0.33073,-23.10656 z m -29.69661,0.0324 c -0.0381,-12.77614 0.0326,-23.10927 0.15809,-23.08489 0.296,0.0575 0.44469,-3.49014 0.15382,-3.6699 -0.12214,-0.0755 -0.34233,0.0874 -0.48929,0.36202 -0.37465,0.70004 -0.4005,49.52179 -0.0262,49.52179 0.18554,0 0.25057,-7.38743 0.2036,-23.12902 z m 29.16744,-26.23467 c 0,-0.44966 -0.73188,-0.83051 -1.14823,-0.59751 -0.31628,0.177 -0.42878,0.15859 -0.37851,-0.062 0.0393,-0.1726 -0.0773,-0.36839 -0.2592,-0.43509 -0.1819,-0.0667 -0.33073,-0.0136 -0.33073,0.11793 0,0.13729 -0.5918,0.15492 -1.38906,0.0414 -0.76398,-0.10881 -6.36775,-0.20653 -12.45281,-0.21715 -6.22441,-0.0109 -11.26363,-0.12629 -11.52072,-0.26388 -0.3537,-0.1893 -0.46535,-0.13349 -0.494,0.24693 -0.0613,0.81401 0.61282,1.19028 1.44954,0.80904 0.49973,-0.22769 0.74132,-0.23882 0.80851,-0.0373 0.0527,0.15811 0.18757,0.23077 0.29971,0.16147 0.24918,-0.154 21.33167,-0.17247 23.12742,-0.0202 0.70609,0.0598 1.35101,0.17603 1.43316,0.25818 0.19492,0.19491 0.85492,0.1935 0.85492,-0.002 z"
         id="path40" /><path
         style="fill:#2e6d42"
         d="m 112.22662,179.41649 c -0.51968,-0.49012 -0.94092,-1.1152 -0.93607,-1.38906 0.008,-0.43715 0.0761,-0.41719 0.55978,0.16353 0.30304,0.3638 0.69648,0.86873 0.87431,1.12206 0.30335,0.43215 1.8746,0.46106 25.43505,0.46813 l 25.11173,0.008 0.48655,-0.66793 c 0.26761,-0.36736 0.58277,-0.60847 0.70036,-0.5358 0.35448,0.21909 0.40523,-0.37979 0.31974,-3.77337 -0.0605,-2.40216 -0.16378,-3.20601 -0.39688,-3.08923 -0.17329,0.0868 -0.10127,-0.0169 0.16005,-0.23051 0.60045,-0.49082 0.40212,-1.40795 -0.51939,-2.40175 -0.85809,-0.92541 -0.65177,-1.18029 0.23644,-0.29209 0.89304,0.89305 0.97593,1.46971 0.8481,5.90024 -0.11685,4.05025 -0.32079,4.7094 -1.64804,5.32671 -0.41751,0.19419 -8.38344,0.28268 -25.4473,0.28268 H 113.1715 Z M 81.682657,178.7211 c -1.167075,-0.6515 -2.150913,-1.58785 -2.150913,-2.04708 0,-0.2015 -0.10998,-0.2984 -0.244399,-0.21532 -0.134419,0.0831 -0.491606,-0.50968 -0.79375,-1.31723 -0.531621,-1.42089 -0.549351,-1.93789 -0.549351,-16.01893 0,-11.94639 -0.067,-14.71102 -0.374358,-15.44662 -0.205896,-0.49278 -0.295193,-0.99497 -0.198437,-1.11598 0.09676,-0.12101 0.0703,-0.13424 -0.0588,-0.0294 -0.129094,0.10484 -0.563096,-0.0432 -0.964448,-0.32899 -0.401352,-0.28579 -1.010104,-0.6422 -1.352783,-0.79202 -0.564233,-0.24669 -0.548119,-0.25739 0.170699,-0.11341 0.436562,0.0874 0.992205,0.3378 1.234761,0.55634 0.33851,0.30499 0.565384,0.33078 0.97613,0.11096 0.399408,-0.21376 0.589071,-0.20233 0.747854,0.0451 0.278002,0.43313 0.302031,1.52455 0.02986,1.35634 -0.115765,-0.0716 -0.210482,0.0428 -0.210482,0.2541 0,0.2113 0.191479,0.45766 0.425508,0.54746 0.339344,0.13022 0.385002,0.36366 0.225473,1.15279 -0.11002,0.54423 -0.2442,6.94263 -0.298179,14.21867 -0.09752,13.14567 0.05475,16.2772 0.769992,15.83516 0.191285,-0.11822 0.229471,-0.007 0.112144,0.32716 -0.172476,0.49098 -0.165777,0.49076 0.219621,-0.007 0.383041,-0.49488 0.397524,-0.48822 0.397524,0.18282 0,0.38303 0.117699,0.76915 0.261553,0.85806 0.149981,0.0927 0.194338,-0.0135 0.103984,-0.24897 -0.08666,-0.22584 -0.02577,-0.41061 0.135322,-0.41061 0.267715,0 0.319103,0.16708 0.400432,1.30199 0.03088,0.43086 1.385955,1.29571 2.075271,1.3245 0.254662,0.0106 0.463021,-0.15925 0.463021,-0.37754 0,-0.24694 0.249885,-0.39687 0.661459,-0.39687 0.363802,0 0.661458,0.11679 0.661458,0.25954 0,0.14275 -0.297656,0.33425 -0.661458,0.42556 -0.363802,0.0913 -0.661459,0.27217 -0.661459,0.40192 0,0.36312 -0.571967,0.25548 -1.553253,-0.2923 z m 4.992837,0.2923 c 0,-0.12975 -0.297657,-0.31061 -0.661459,-0.40192 -0.917592,-0.2303 -0.829771,-0.6851 0.132292,-0.6851 0.529167,0 0.79375,0.13229 0.79375,0.39687 0,0.50308 0.242842,0.49916 1.285047,-0.0208 0.470512,-0.23472 0.760117,-0.54234 0.661228,-0.70234 -0.104435,-0.16898 -0.05179,-0.20796 0.129511,-0.0959 0.201573,0.12458 0.305464,-0.0499 0.305464,-0.51306 0,-0.478 0.167818,-0.74573 0.526191,-0.83944 0.303746,-0.0794 0.450052,-0.2647 0.346086,-0.43825 -0.101781,-0.16991 0.0039,-0.15158 0.243058,0.0421 0.366775,0.29711 0.46306,0.22191 0.722558,-0.56438 0.164667,-0.49895 0.275853,-1.01039 0.247079,-1.13654 -0.02877,-0.12616 0.01915,-0.40797 0.10649,-0.62625 0.08734,-0.21828 0.211496,-0.635 0.275896,-0.92604 0.0644,-0.29104 0.130902,-0.0192 0.147783,0.60411 0.01993,0.73593 -0.20279,1.59403 -0.635223,2.44739 -0.613228,1.21015 -1.186168,1.70955 -1.186168,1.03393 0,-0.15411 -0.119063,-0.20662 -0.264584,-0.11668 -0.14552,0.0899 -0.264583,0.28258 -0.264583,0.42811 0,0.14552 0.119063,0.19099 0.264583,0.10106 0.503004,-0.31088 0.262473,0.30656 -0.330729,0.84897 -1.085494,0.99255 -2.84427,1.71237 -2.84427,1.16409 z m 51.858336,-0.29327 -24.73855,-0.13638 22.89969,-0.0641 c 16.33309,-0.0457 22.98381,-0.14823 23.19305,-0.35747 0.43215,-0.43214 3.51664,-0.036 3.51664,0.45164 0,0.20399 -0.0298,0.34205 -0.0661,0.30679 -0.0364,-0.0353 -11.19849,-0.12547 -24.80468,-0.20048 z m -0.1323,-1.32292 -21.96041,-0.13688 22.70363,-0.0639 c 15.08456,-0.0424 22.64876,0.0249 22.54012,0.20073 -0.0899,0.14552 -0.42439,0.23585 -0.74322,0.20073 -0.31884,-0.0351 -10.46189,-0.12544 -22.54012,-0.20073 z m -24.97243,-1.91823 c -0.0243,-1.41333 0.0509,-1.78593 0.36046,-1.78593 0.29401,0 0.37847,-0.29135 0.34009,-1.1732 -0.0328,-0.75386 0.0987,-1.34491 0.36808,-1.65364 0.23052,-0.26425 0.35845,-0.64956 0.28429,-0.85624 -0.11649,-0.32466 -0.0796,-0.32466 0.27134,0 0.2234,0.20668 0.35211,0.46508 0.28604,0.57422 -0.0661,0.10914 9.88814,0.19844 22.12048,0.19844 12.23233,0 22.24061,-0.10236 22.24061,-0.22746 0,-0.1251 0.47625,-0.19354 1.05833,-0.15208 0.77494,0.0552 1.05834,-0.0256 1.05834,-0.30171 0,-0.20739 0.23557,-0.37708 0.52349,-0.37708 0.46864,0 0.49043,0.0726 0.20795,0.69254 -0.27795,0.61003 -0.24335,0.75099 0.29044,1.18323 0.56059,0.45393 0.5749,1.23513 0.0163,0.8899 -0.13649,-0.0844 -0.3196,0.0328 -0.4069,0.26026 -0.29978,0.78121 -0.67261,0.41301 -0.58583,-0.57854 l 0.0868,-0.99219 H 138.2692 114.58899 l -0.0782,1.94063 c -0.067,1.66309 -0.13323,1.89496 -0.46303,1.62125 -0.3232,-0.26824 -0.38483,-0.18255 -0.38483,0.53508 0,0.65081 0.0946,0.81815 0.39688,0.70216 0.28219,-0.10829 0.39084,0.0173 0.37598,0.43471 -0.0115,0.32285 -0.0809,0.43818 -0.15434,0.25628 -0.19216,-0.47623 -0.55983,-0.40682 -0.70072,0.13229 -0.0665,0.25466 -0.13481,-0.34065 -0.15169,-1.32292 z m -30.656211,0.85165 c -0.327421,-0.1316 -0.595312,-0.41798 -0.595312,-0.63638 0,-0.24427 -0.152739,-0.33849 -0.396875,-0.2448 -0.383867,0.1473 -0.516515,-0.15095 -0.410528,-0.92306 0.02697,-0.1965 -0.06528,-0.28662 -0.205011,-0.20027 -0.13973,0.0864 -0.335542,-0.16765 -0.435138,-0.56448 -0.0996,-0.39682 -0.161602,-7.15279 -0.137789,-15.01327 0.051,-16.83541 0.0802,-15.48588 -0.332888,-15.38517 -0.181901,0.0443 -0.254072,0.0349 -0.160379,-0.021 0.238568,-0.14231 -0.04235,-1.09984 -0.643353,-2.19291 l -0.509164,-0.92604 0.551299,0.66145 c 1.535505,1.84233 1.477887,1.21241 1.621493,17.72709 0.09416,10.82841 0.220617,15.36606 0.438726,15.7427 0.600542,1.03705 1.698221,1.81965 2.805194,1.99999 l 1.121705,0.18274 -1.058334,0.0163 c -0.582083,0.009 -1.326224,-0.0913 -1.653646,-0.22294 z m 3.50573,0.008 c 0.08994,-0.14552 0.305322,-0.27318 0.478635,-0.28369 0.173313,-0.0105 0.672302,-0.44779 1.108864,-0.97174 l 0.79375,-0.95264 0.132292,-18.80586 0.132292,-18.80586 0.770375,-1.39039 c 0.423707,-0.76471 0.824241,-1.33652 0.890077,-1.27069 0.06584,0.0658 -0.140375,0.54051 -0.458244,1.05484 -0.317869,0.51432 -0.503017,1.05636 -0.41144,1.20454 0.09158,0.14817 0.04041,0.26941 -0.113695,0.26941 -0.194499,0 -0.283066,5.76577 -0.289574,18.85156 -0.0072,14.4618 -0.08555,18.98864 -0.336493,19.44025 -0.386185,0.69499 -1.983071,1.92485 -2.499274,1.92485 -0.198598,0 -0.287502,-0.11906 -0.197565,-0.26458 z m 25.056371,-4.55989 c -0.05,-1.9221 -0.006,-2.09881 0.71796,-2.91042 l 0.77122,-0.86407 4.65321,-0.13229 c 2.55927,-0.0728 4.65301,-0.0569 4.65275,0.0353 -10e-4,0.36058 -1.35282,0.4868 -5.25076,0.49027 -3.81277,0.003 -4.06794,0.0353 -4.19576,0.52401 -0.0748,0.28623 -0.35646,0.59035 -0.62581,0.67584 -0.40949,0.12997 -0.50446,0.48904 -0.57965,2.19158 l -0.0899,2.03614 z M 91.764056,155.55351 c -0.05224,-13.72779 -0.119847,-16.23233 -0.44994,-16.66875 -0.351491,-0.46471 -0.389261,-0.46952 -0.396875,-0.0506 -0.0046,0.25466 -0.127477,0.46302 -0.272998,0.46302 -0.14552,0 -0.26276,-0.32742 -0.260531,-0.7276 0.0022,-0.40018 0.09153,-0.60854 0.198437,-0.46302 0.3945,0.53696 1.120428,0.44182 1.120428,-0.14685 0,-0.70174 0.776934,-2.40231 1.268624,-2.77679 0.29396,-0.22389 0.232933,-0.33787 -0.314428,-0.58727 -0.442042,-0.2014 -0.625579,-0.44914 -0.525658,-0.70953 0.11676,-0.30427 0.273912,-0.33565 0.656243,-0.13103 0.276495,0.14797 0.502719,0.3988 0.502719,0.55739 0,0.17928 0.30025,0.2283 0.79375,0.1296 1.034925,-0.20699 1.005703,0.11909 -0.05572,0.62177 -0.46091,0.21828 -1.083412,0.73294 -1.383336,1.14369 -0.534111,0.73147 -0.548131,1.1039 -0.682274,18.12396 l -0.136959,17.37714 z m 45.446854,12.83882 c -6.91224,-0.0777 -12.6045,-0.16704 -12.64947,-0.19844 -0.045,-0.0314 -0.008,-0.17616 0.0818,-0.32168 0.0899,-0.14552 0.051,-0.26458 -0.0866,-0.26458 -0.13759,0 -0.30167,-0.3509 -0.36461,-0.77978 -0.063,-0.42887 -0.0176,-0.7199 0.10083,-0.64673 0.1184,0.0732 0.24634,-10.44037 0.2843,-23.36345 l 0.069,-23.4965 0.0647,24.00163 c 0.0631,23.42424 0.077,24.00822 0.57647,24.27552 0.33218,0.17777 4.92175,0.27389 13.07798,0.27389 11.07104,0 12.61567,-0.0495 12.98198,-0.41577 0.22867,-0.22868 0.41577,-0.30666 0.41577,-0.1733 0,0.3592 -0.84921,1.02859 -1.45521,1.14707 -0.29104,0.0569 -6.18463,0.0399 -13.09687,-0.0379 z m 16.87011,-1.70274 c -0.0687,-0.35939 -0.0528,-0.60893 0.0353,-0.55451 0.1983,0.12245 0.12152,-48.14719 -0.0778,-48.90941 -0.0791,-0.30268 -0.15574,-0.60986 -0.17018,-0.68262 -0.0144,-0.0728 -0.19641,-0.22751 -0.40435,-0.34388 -0.20795,-0.11637 -0.37808,-0.37261 -0.37808,-0.56943 0,-0.93492 -1.41851,-1.045 -14.72938,-1.14301 -11.88541,-0.0875 -13.08573,-0.0566 -13.89063,0.35796 -0.48457,0.24957 -1.08939,0.69248 -1.34405,0.98425 -0.25466,0.29177 -0.46302,0.40555 -0.46302,0.25283 0,-0.15271 0.42086,-0.64718 0.93524,-1.09881 l 0.93525,-0.82116 h 13.44045 c 7.39224,0 13.52974,0.0893 13.63888,0.19844 0.10914,0.10914 0.2976,0.19843 0.41881,0.19843 0.50759,0 1.80236,1.21266 2.20842,2.06838 0.39735,0.83734 0.43753,3.20839 0.43753,25.819 0,22.22922 -0.11078,26.76293 -0.59239,24.24354 z m -2.64605,-24.48198 c -0.0457,-16.31711 0.0203,-24.57656 0.19573,-24.51808 0.3616,0.12053 0.4941,49.12435 0.13283,49.12435 -0.16754,0 -0.28415,-8.73321 -0.32856,-24.60627 z m -29.83043,-0.19842 c 0.002,-13.49705 0.10641,-24.70164 0.23151,-24.89908 0.15857,-0.25024 0.28228,-0.27028 0.40844,-0.0661 0.0995,0.16105 0.0847,0.2928 -0.0331,0.29278 -0.11773,-3e-5 -0.18035,11.07278 -0.13917,24.60624 0.0511,16.8008 -0.0118,24.60631 -0.19843,24.60631 -0.18611,0 -0.27203,-7.83057 -0.26928,-24.54011 z m 1.32436,-0.50031 c 0.0152,-23.60398 0.0826,-25.79885 0.77845,-25.36877 0.28368,0.17533 0.11218,3.72687 -0.17704,3.66611 -0.11551,-0.0243 -0.17897,10.36393 -0.14101,23.08489 0.047,15.74159 -0.0181,23.12902 -0.2036,23.12902 -0.18524,0 -0.26754,-7.85547 -0.2568,-24.51125 z m 29.69252,1.19008 c -0.0569,-20.40826 -0.0171,-23.20714 0.3322,-23.34118 0.21828,-0.0838 0.39687,-0.037 0.39687,0.10399 0,0.14095 -0.11841,0.25628 -0.26313,0.25628 -0.17191,0 -0.28707,8.00265 -0.3322,23.08489 l -0.0691,23.0849 z m -15.67509,7.99095 c 0,-0.13693 0.10309,-0.31268 0.2291,-0.39056 0.126,-0.0779 0.18981,-0.47185 0.14179,-0.87551 -0.048,-0.40365 -0.0211,-0.51378 0.0599,-0.24473 0.1278,0.42464 0.20133,0.38972 0.55723,-0.26458 0.98703,-1.81463 1.47594,-2.89812 1.47431,-3.26732 -9.6e-4,-0.21828 0.27348,-0.72799 0.60987,-1.13269 0.51448,-0.61897 1.15428,-2.21372 1.15963,-2.89045 8.1e-4,-0.10268 0.30582,-0.63517 0.6778,-1.18331 0.63377,-0.9339 0.64723,-1.01789 0.21402,-1.33466 -0.41729,-0.30513 -0.39297,-0.33805 0.24971,-0.33805 0.39162,0 0.71203,0.0585 0.71203,0.12999 0,0.14133 -2.21389,5.00275 -4.24837,9.32886 -0.70146,1.49159 -1.40176,2.71198 -1.55622,2.71198 -0.15445,0 -0.28082,-0.11204 -0.28082,-0.24897 z m -68.990107,-10.5322 c -2.210475,-0.0477 -3.770312,-0.18773 -3.770312,-0.33859 0,-0.15854 2.133047,-0.25732 5.55625,-0.25732 4.7625,0 5.55625,0.0567 5.55625,0.39687 0,0.31934 -0.348926,0.38549 -1.785938,0.3386 -0.982266,-0.032 -3.482578,-0.0949 -5.55625,-0.13956 z m 69.332027,-2.71258 c -0.0157,-1.01865 0.0184,-1.85208 0.0758,-1.85208 0.0574,0 0.29909,0.44648 0.53711,0.99218 l 0.43277,0.99219 0.35943,-1.32291 c 0.19768,-0.72761 0.36172,-1.948 0.36453,-2.71198 0.003,-0.76399 0.0944,-1.38968 0.20354,-1.39044 0.10914,-7.5e-4 0.22457,-0.46491 0.25652,-1.03145 0.0512,-0.9073 -0.004,-1.01384 -0.46302,-0.89381 -0.28661,0.075 -0.52125,0.21168 -0.52143,0.30385 -1.8e-4,0.0922 -0.31228,0.52476 -0.69355,0.96133 -0.60068,0.68777 -0.66891,0.71426 -0.51102,0.19843 0.11413,-0.37287 0.0709,-0.59531 -0.11581,-0.59531 -0.16391,0 -0.21656,-0.13182 -0.11698,-0.29293 0.11746,-0.19006 0.007,-0.24093 -0.31512,-0.14485 -0.27288,0.0814 -0.79582,0.2192 -1.16209,0.30613 -0.64955,0.15417 -0.66348,0.20655 -0.56639,2.12923 0.0548,1.08414 -0.003,1.97102 -0.12782,1.97083 -0.12504,-1.9e-4 -0.22735,-0.94572 -0.22735,-2.10118 v -2.10084 l 1.5875,-0.38814 c 0.87312,-0.21348 2.09862,-0.46991 2.72334,-0.56983 1.08985,-0.17433 1.1305,-0.15657 1.00406,0.4388 -0.0725,0.34127 -0.2664,1.51346 -0.43094,2.60486 -0.59526,3.94825 -1.31954,6.35 -1.91493,6.35 -0.25375,0 -0.35744,-0.50786 -0.37815,-1.85208 z m -12.58834,-19.84787 c 0.16489,-0.63054 0.60298,-0.972 0.6088,-0.47451 0.002,0.21152 0.0797,0.24334 0.19844,0.0818 0.12733,-0.17332 4.57509,-0.21763 12.89438,-0.12844 l 12.7,0.13615 -12.74724,0.0623 c -10.92074,0.0534 -12.80412,0.11915 -13.14413,0.45916 -0.53658,0.53659 -0.67647,0.49919 -0.51025,-0.13641 z"
         id="path39" /><path
         style="fill:#2e6f3e"
         d="m 79.312207,172.767 c -0.05447,-0.70095 -0.142968,-0.90494 -0.26208,-0.60408 -0.09891,0.24983 -0.144613,-5.28212 -0.101556,-12.29322 0.04306,-7.0111 0.132353,-12.80153 0.198437,-12.86761 0.06608,-0.0661 0.180795,-0.0595 0.254915,0.0146 0.07412,0.0741 0.102758,6.13638 0.06364,13.4717 -0.03912,7.33531 -0.108127,12.86069 -0.153359,12.2786 z m 11.656092,-16.99947 c 0.03271,-9.13144 0.09181,-14.57855 0.131325,-12.10469 0.181984,11.39212 0.186592,28.70748 0.0076,28.70739 -0.10914,-6e-5 -0.171675,-7.47127 -0.138965,-16.6027 z m 23.150051,14.47503 c 0.0778,-0.29744 0.0369,-0.50689 -0.0908,-0.46544 -0.12774,0.0414 -0.52663,-0.13208 -0.88643,-0.38561 -0.51006,-0.35941 -0.55378,-0.46096 -0.19844,-0.46096 0.25066,0 0.45558,0.0893 0.45538,0.19843 -2e-4,0.10914 1.78573,0.1601 3.96875,0.11323 3.61567,-0.0776 3.96912,-0.0445 3.96912,0.37148 0,0.41804 -0.29111,0.44196 -3.43958,0.28261 -2.90306,-0.14693 -3.43959,-0.11445 -3.43959,0.20822 0,0.21026 -0.10796,0.44902 -0.23991,0.53057 -0.13195,0.0816 -0.17626,-0.0951 -0.0985,-0.39253 z m 11.18631,-0.65056 c 0,-0.34659 1.43463,-0.39687 11.32417,-0.39687 8.22457,0 11.408,0.0838 11.63045,0.30629 0.23199,0.23199 0.40246,0.22646 0.70278,-0.0228 0.42506,-0.35277 1.05815,-0.14525 0.80526,0.26394 -0.0904,0.14623 -5.09087,0.2463 -12.30744,0.2463 -10.62825,0 -12.15522,-0.0499 -12.15522,-0.39688 z m 27.18594,-3.5714 c 0.25919,-0.29067 0.33072,-5.33825 0.33072,-23.33672 0,-15.13417 0.0902,-22.96583 0.26459,-22.96583 0.14552,0 0.26458,-0.12609 0.26458,-0.2802 0,-0.15411 -0.11906,-0.20661 -0.26458,-0.11668 -0.14552,0.0899 -0.26459,0.0445 -0.26459,-0.10106 0,-0.55556 0.49958,-0.54127 0.67752,0.0194 0.11336,0.35715 0.069,0.62662 -0.11324,0.68735 -0.22011,0.0734 -0.29969,6.16257 -0.29969,22.93191 0,21.43491 -0.0283,22.85345 -0.46302,23.18238 -0.39391,0.29806 -0.41365,0.295 -0.13229,-0.0205 z m -27.64665,-49.80828 c -0.1435,-0.1819 -0.2573,-0.53266 -0.25288,-0.77946 0.006,-0.34646 0.11462,-0.39168 0.47571,-0.19844 0.27052,0.14478 5.13174,0.26007 11.53142,0.27347 9.48071,0.0199 14.10698,0.19539 13.57729,0.51515 -0.35041,0.21153 -23.29301,0.36015 -23.36238,0.15134 -0.0432,-0.13001 -0.33291,-0.10024 -0.64381,0.0661 -0.72349,0.38721 -1.00231,0.38127 -1.32535,-0.0282 z"
         id="path38" /></g></g></svg>
