<?xml version="1.0" encoding="UTF-8" standalone="no"?>
<!-- Created with Inkscape (http://www.inkscape.org/) -->

<svg
   width="210mm"
   height="297mm"
   viewBox="0 0 210 297"
   version="1.1"
   id="svg1"
   xml:space="preserve"
   xmlns="http://www.w3.org/2000/svg"
   xmlns:svg="http://www.w3.org/2000/svg"><defs
     id="defs1"><linearGradient
       id="swatch1"><stop
         style="stop-color:#000000;stop-opacity:1;"
         offset="0"
         id="stop1" /></linearGradient></defs><g
     id="layer1"><g
       id="g58"
       transform="matrix(2.4183127,0,0,2.6968521,-153.67584,-182.91369)"><path
         style="fill:#55b4e7"
         d="m 80.367742,146.10999 c -0.09241,-0.0924 -0.439674,-0.18376 -0.771701,-0.20299 -0.671493,-0.0389 -0.705707,-0.7681 -0.06949,-1.48108 0.194777,-0.21828 0.348027,-0.49412 0.340555,-0.61297 -0.02659,-0.42286 1.43369,-2.86605 1.796151,-3.00513 0.202824,-0.0778 0.304417,-0.24564 0.225763,-0.37291 -0.206131,-0.33352 0.390221,-1.3445 0.685458,-1.16203 0.136553,0.0844 0.17679,-0.0328 0.08942,-0.26055 -0.228922,-0.59656 0.351264,-1.16771 1.034547,-1.01844 0.419645,0.0917 0.485578,0.0569 0.232671,-0.12278 -0.616178,-0.43774 0.173358,-0.52361 2.998747,-0.32612 2.589202,0.18098 2.606191,0.18638 0.79375,0.25202 -2.68231,0.0971 -3.666983,0.47246 -1.455209,0.55467 1.509671,0.0561 1.5908,0.0836 0.66402,0.22481 -0.775129,0.11812 -1.081875,0.30155 -1.153972,0.69006 -0.05401,0.29104 -0.268741,0.6273 -0.477179,0.74724 -0.222283,0.1279 -0.314491,0.42126 -0.223011,0.70949 0.102475,0.32286 -0.16579,0.91294 -0.782153,1.72042 -0.515967,0.67595 -0.938122,1.34463 -0.938122,1.48595 0,0.14133 -0.315042,0.54893 -0.700093,0.90578 l -0.700094,0.64882 1.427698,0.0168 c 1.228598,0.0144 1.335454,0.0539 0.76624,0.28326 -0.363803,0.14656 -1.215809,0.22831 -1.893348,0.18166 -0.677539,-0.0466 -1.176528,0.004 -1.108865,0.11363 0.149071,0.24044 -0.544749,0.26744 -0.781775,0.0304 z m 4.17342,-10.42736 c -0.204796,-0.33137 0.950233,-2.39009 1.240345,-2.21079 0.121833,0.0753 0.191926,-0.1379 0.155764,-0.47378 -0.04016,-0.373 0.06297,-0.58494 0.264979,-0.54454 0.19588,0.0392 0.33073,-0.21082 0.33073,-0.61314 0,-0.57767 0.08905,-0.65424 0.595312,-0.51183 0.458265,0.1289 0.504457,0.10509 0.200649,-0.10345 -0.776651,-0.53309 0.150724,-0.75962 3.701955,-0.90426 l 3.571875,-0.14548 -2.329533,0.34873 c -2.513882,0.37634 -3.192354,0.65118 -1.74946,0.70869 0.569374,0.0227 0.693498,0.0772 0.335329,0.14721 -0.400201,0.0782 -0.617881,0.37352 -0.7348,0.99675 -0.09138,0.48707 -0.341493,0.95288 -0.555816,1.03512 -0.531249,0.20386 -0.491049,0.63002 0.07334,0.77751 0.254661,0.0666 -0.05292,0.13481 -0.683507,0.15169 -1.3182,0.0353 -1.419538,0.59195 -0.154561,0.84902 1.121028,0.22782 0.357499,0.45483 -2.063488,0.6135 -1.178448,0.0772 -2.108232,0.0261 -2.199116,-0.12095 z m 4.154401,-6.55055 c -0.420564,-0.0643 -0.567229,-0.22 -0.46302,-0.49156 0.08389,-0.21861 0.15252,-0.50679 0.15252,-0.64041 0,-0.13362 0.18562,-0.24294 0.41249,-0.24294 0.226869,0 0.341066,-0.11557 0.25377,-0.25681 -0.266111,-0.43058 0.640323,-1.86674 1.348012,-2.13581 0.665714,-0.2531 4.497945,-0.33027 3.872707,-0.078 -0.181901,0.0734 -0.330729,0.28368 -0.330729,0.46728 0,0.1836 -0.238125,0.54932 -0.529167,0.8127 -0.291041,0.26339 -0.529166,0.63903 -0.529166,0.83476 0,0.19573 -0.148829,0.36774 -0.33073,0.38224 -0.181901,0.0145 -0.03307,0.1217 0.33073,0.23821 0.561916,0.17996 0.492236,0.21581 -0.463021,0.23821 -1.514887,0.0355 -1.428885,0.48308 0.132291,0.68844 0.691224,0.0909 1.435365,0.20789 1.653646,0.25994 0.507846,0.12107 -4.689993,0.0491 -5.510333,-0.0763 z"
         id="path73" /><path
         style="fill:#53ace3"
         d="m 82.671444,144.82286 c 0.377594,-0.34994 0.686535,-0.75188 0.686535,-0.89321 0,-0.14132 0.422155,-0.81 0.938122,-1.48595 0.616363,-0.80748 0.884628,-1.39756 0.782153,-1.72042 -0.09148,-0.28823 7.28e-4,-0.58159 0.223011,-0.70949 0.208438,-0.11994 0.423578,-0.4562 0.478088,-0.74724 0.115066,-0.61437 1.479893,-0.90348 4.060918,-0.86021 1.249024,0.0209 1.347746,0.0482 0.463021,0.12789 -0.618463,0.0557 -1.124479,0.19611 -1.124479,0.31202 0,0.1159 -0.297656,0.53191 -0.661458,0.92446 -0.433119,0.46734 -0.661459,1.02108 -0.661459,1.60408 0,0.4897 -0.148828,0.95076 -0.330729,1.02456 -0.248887,0.10099 -0.232519,0.20366 0.06615,0.41488 0.344125,0.24336 0.336931,0.28121 -0.05412,0.28472 -0.472815,0.004 -1.797964,1.1773 -1.797964,1.59159 0,0.22954 -0.443898,0.33245 -2.737057,0.63456 l -1.017265,0.13402 z m 4.919869,-9.0506 c 1.65613,-0.13152 2.183642,-0.38481 1.212453,-0.58218 -1.264977,-0.25707 -1.163639,-0.81373 0.154561,-0.84902 0.63059,-0.0169 0.938168,-0.0851 0.683507,-0.15169 -0.564392,-0.14749 -0.604592,-0.57365 -0.07334,-0.77751 0.214323,-0.0822 0.463315,-0.54205 0.553314,-1.02178 0.195611,-1.0427 0.738532,-1.20932 3.786435,-1.16202 2.066068,0.0321 1.625647,0.39753 -0.56224,0.46656 -0.545703,0.0172 -0.978088,0.1206 -0.960855,0.22974 0.01723,0.10914 0.01723,0.70445 0,1.32291 l -0.03133,1.12448 H 91.29548 c -0.764352,0 -1.058334,0.11025 -1.058334,0.39688 0,0.28663 0.293982,0.39687 1.058334,0.39687 0.582083,0 1.058333,0.10142 1.058333,0.22537 0,0.22857 -3.70475,0.60238 -5.159375,0.52057 -0.472872,-0.0266 -0.312432,-0.0829 0.396875,-0.13918 z m 5.291667,-7.75051 c -0.363802,-0.11651 -0.512631,-0.2237 -0.33073,-0.23821 0.181901,-0.0145 0.33073,-0.18651 0.33073,-0.38224 0,-0.19573 0.238125,-0.57137 0.529166,-0.83476 0.291042,-0.26338 0.529167,-0.62629 0.529167,-0.80645 0,-0.4409 0.635276,-0.65624 1.807577,-0.61272 0.615752,0.0229 0.752924,0.078 0.375236,0.15069 -0.327422,0.0631 -0.595313,0.24002 -0.595313,0.39324 0,0.17346 -0.148581,0.15527 -0.393744,-0.0482 -0.533613,-0.44286 -0.874056,0.39498 -0.441763,1.08719 0.37643,0.60276 0.392608,0.84684 0.04176,0.63 -0.145521,-0.0899 -0.264583,-0.0574 -0.264583,0.0723 0,0.12972 0.565547,0.35847 1.25677,0.50835 l 1.256771,0.27249 -1.719791,0.0101 c -0.945886,0.006 -2.017448,-0.0853 -2.38125,-0.20178 z"
         id="path72" /><path
         style="fill:#52a7da"
         d="m 83.225688,145.3086 c 1.824004,-0.22145 2.513542,-0.391 2.513542,-0.61806 0,-0.41429 1.325149,-1.58734 1.797964,-1.59159 0.39105,-0.004 0.398244,-0.0414 0.05412,-0.28472 -0.298665,-0.21122 -0.315033,-0.31389 -0.06615,-0.41488 0.181901,-0.0738 0.330729,-0.53486 0.330729,-1.02456 0,-0.583 0.22834,-1.13674 0.661459,-1.60408 0.363802,-0.39255 0.661458,-0.8154 0.661458,-0.93968 0,-0.12427 0.422778,-0.22594 0.939507,-0.22594 h 0.939506 l -0.674923,0.88487 c -0.371208,0.48668 -0.674923,1.00018 -0.674923,1.14112 0,0.14094 -0.349192,0.5908 -0.775981,0.99969 -0.485801,0.46543 -0.842693,1.1383 -0.954378,1.79936 -0.307102,1.81773 -0.702591,2.05993 -3.28938,2.01448 -1.240967,-0.0218 -1.899116,-0.083 -1.462553,-0.13601 z m 7.011458,-10.53997 c 0,-0.28663 0.293982,-0.39688 1.058334,-0.39688 h 1.058333 l 0.03133,-1.12448 c 0.01723,-0.61846 0.01723,-1.21377 0,-1.32291 -0.01723,-0.10914 0.500712,-0.19844 1.150989,-0.19844 1.347609,0 1.388272,0.39533 0.157217,1.52848 -0.502924,0.46293 -0.584915,0.66195 -0.317412,0.77049 0.304501,0.12355 0.304501,0.18192 0,0.37484 -0.261888,0.16592 -0.179507,0.23868 0.300791,0.26567 0.816925,0.0459 -1.36793,0.45285 -2.579688,0.48049 -0.596679,0.0136 -0.859896,-0.10187 -0.859896,-0.37726 z"
         id="path71" /><path
         style="fill:#4ea2d9"
         d="m 86.689531,145.80969 c 0.978596,-1.07004 1.106656,-1.30566 1.285732,-2.3656 0.114081,-0.67524 0.466985,-1.34411 0.956736,-1.81332 0.426789,-0.40889 0.775981,-0.87263 0.775981,-1.03053 0,-0.1579 0.365855,-0.73093 0.813012,-1.27341 l 0.813013,-0.98633 -1.01145,-0.0288 c -0.905418,-0.0258 -0.845029,-0.0629 0.57605,-0.35356 l 1.5875,-0.32473 -1.190625,-0.12938 c -1.097732,-0.11928 -1.066767,-0.13145 0.396875,-0.15598 0.873125,-0.0146 2.123281,0.0687 2.778125,0.18524 l 1.190625,0.21185 -1.058334,0.036 c -0.582083,0.0198 -1.534583,0.12402 -2.116666,0.23156 l -1.058334,0.19552 1.566903,0.13229 c 1.087331,0.0918 1.599616,0.25376 1.673789,0.52917 0.09058,0.33632 0.06686,0.33946 -0.155484,0.0206 -0.386518,-0.55438 -2.114099,0.92986 -2.140064,1.83863 -0.01169,0.409 -0.426605,1.07668 -1.068732,1.71979 -0.577297,0.57817 -1.053547,1.18184 -1.058333,1.34147 -0.0048,0.15964 -0.257852,0.57636 -0.562367,0.92605 l -0.553663,0.63579 0.884392,0.13596 c 1.263214,0.19419 0.360158,0.51847 -2.001764,0.71881 l -1.827824,0.15505 z m 5.664282,-10.34338 c 0,-0.47226 0.163427,-0.56973 0.992187,-0.59176 0.885487,-0.0235 0.921054,-0.0492 0.33073,-0.23821 -0.363802,-0.11651 -0.482865,-0.22553 -0.264584,-0.24226 0.352778,-0.0271 0.352778,-0.0599 0,-0.29572 -0.335204,-0.22407 -0.281238,-0.36758 0.34729,-0.92355 0.409291,-0.36204 0.76205,-0.89567 0.783909,-1.18586 0.05743,-0.76248 1.670846,-0.73354 2.343496,0.042 0.27173,0.3133 0.494055,0.43939 0.494055,0.2802 0,-0.1592 -0.119384,-0.36324 -0.265299,-0.45342 -0.175441,-0.10843 -0.168657,-0.34454 0.02003,-0.6971 0.257298,-0.48077 0.233086,-0.50518 -0.246474,-0.24853 -0.778405,0.41659 -2.071591,0.35206 -2.249768,-0.11226 -0.12222,-0.3185 0.09426,-0.39616 1.096171,-0.39326 1.502467,0.004 2.439092,0.22888 2.439092,0.58472 0,0.14411 -0.178593,0.1935 -0.396875,0.10973 -0.246042,-0.0944 -0.396875,0.001 -0.396875,0.25189 0,0.22231 0.09525,0.34532 0.211658,0.27338 0.116411,-0.0719 0.236966,0.30798 0.2679,0.84428 0.04181,0.72487 -0.01146,0.87325 -0.207606,0.57822 -0.20769,-0.31241 -0.264711,-0.31959 -0.2679,-0.0338 -0.0034,0.30778 -0.07123,0.30778 -0.444814,0 -0.398291,-0.32814 -0.424798,-0.28664 -0.275083,0.43062 0.09112,0.43656 0.100951,0.64492 0.02184,0.46302 -0.199379,-0.45843 -0.71913,-0.4183 -0.542539,0.0419 0.138405,0.36067 -0.928005,0.85291 -1.541579,0.71157 -0.145521,-0.0335 -0.04895,0.15531 0.214609,0.41962 0.457205,0.45852 0.495098,0.45914 0.825884,0.0135 0.267656,-0.36059 0.490161,-0.41204 0.976016,-0.22568 l 0.629325,0.24139 -0.79375,0.31957 c -1.629661,0.65611 -4.101042,0.67765 -4.101042,0.0357 z"
         id="path70" /><path
         style="fill:#eaa532"
         d="m 95.26423,121.17498 c 0,-0.37371 0.690258,-0.83957 0.926659,-0.62541 0.119082,0.10788 0.135901,0.0555 0.03737,-0.11648 -0.200375,-0.34969 0.844301,-1.20085 1.202306,-0.9796 0.125411,0.0775 0.195305,0.002 0.155319,-0.16794 -0.129373,-0.54965 0.661579,-0.8528 1.4436,-0.5533 0.692161,0.26509 0.803233,1.08742 0.146876,1.08742 -0.145521,0 -0.198377,-0.17253 -0.117459,-0.3834 0.09833,-0.25626 0.01998,-0.33461 -0.236276,-0.23628 -0.496058,0.19036 -0.489806,0.52223 0.01347,0.71536 0.218281,0.0838 0.396875,0.28212 0.396875,0.4408 0,0.15867 -0.106587,0.22263 -0.236859,0.14211 -0.130273,-0.0805 -0.30513,0.0315 -0.388571,0.24897 -0.08344,0.21745 -0.28725,0.39536 -0.452907,0.39536 -0.165657,0 -0.232662,-0.1786 -0.1489,-0.39688 0.08376,-0.21828 0.04971,-0.39687 -0.07568,-0.39687 -0.125385,0 -0.299656,0.1868 -0.387268,0.41511 -0.109712,0.28591 -0.33473,0.35944 -0.7229,0.23624 -0.379462,-0.12043 -0.504453,-0.0832 -0.382563,0.11405 0.114358,0.18503 -0.06835,0.29293 -0.496033,0.29293 -0.37239,0 -0.677073,-0.10448 -0.677073,-0.23219 z m 0.595312,-3.80214 c -2.05568,-0.70324 -2.052391,-0.72518 0.221023,-1.47432 1.806634,-0.59533 2.924862,-0.48509 2.474301,0.24393 -0.07872,0.12737 0.02961,0.16529 0.240734,0.0843 0.600489,-0.23043 0.847279,0.45107 0.306531,0.84648 -0.261952,0.19154 -0.569571,0.2906 -0.683598,0.22013 -0.114027,-0.0705 -0.293477,0.0113 -0.398776,0.18164 -0.127637,0.20652 -0.07601,0.23843 0.154889,0.0957 0.229174,-0.14164 0.282477,-0.11071 0.157557,0.0914 -0.251941,0.40765 -0.530804,0.37503 -2.472661,-0.28928 z m 1.514785,-3.19143 c -0.367415,-0.3187 -1.141321,-0.97395 -1.719791,-1.45613 l -1.051765,-0.87668 2.248959,0.18582 c 2.290246,0.18922 2.525958,0.30553 2.814008,1.38848 0.309437,1.16335 -1.235206,1.67466 -2.291411,0.75851 z m 2.317732,-2.32264 c -0.457283,-0.26625 -2.179345,-3.37161 -1.980166,-3.57079 0.423898,-0.4239 3.506717,1.69776 3.520417,2.42282 0.008,0.43541 0.10455,0.93662 0.21405,1.1138 0.2502,0.40483 -1.07343,0.43061 -1.754301,0.0342 z m 2.803481,-1.78114 c -0.74513,-0.39494 -1.44829,-3.65067 -0.97251,-4.50284 0.0579,-0.10367 1.91171,1.91635 2.41397,2.63037 0.43005,0.61135 0.15803,1.84652 -0.36266,1.64671 -0.20493,-0.0786 -0.37261,-0.0211 -0.37261,0.12786 0,0.14896 0.14883,0.3309 0.33073,0.40429 0.1819,0.0734 0.21167,0.13449 0.0661,0.13575 -0.14552,0.001 -0.64189,-0.1977 -1.10306,-0.44214 z"
         id="path69" /><path
         style="fill:#4a99d5"
         d="m 89.046521,146.14797 c 0.145521,-0.0485 0.621771,-0.17913 1.058334,-0.29019 l 0.79375,-0.20192 -0.884393,-0.15195 -0.884392,-0.15195 0.553663,-0.63579 c 0.304515,-0.34969 0.55758,-0.76641 0.562367,-0.92605 0.0048,-0.15963 0.481036,-0.7633 1.058333,-1.34147 0.642127,-0.64311 1.057046,-1.31079 1.068732,-1.71979 0.02605,-0.91169 1.752341,-2.3915 2.14488,-1.83863 0.2165,0.30493 0.240174,0.29172 0.124799,-0.0696 -0.07831,-0.24526 -0.0091,-0.49036 0.153834,-0.54467 0.162921,-0.0543 -0.528377,-0.0681 -1.536218,-0.0307 -1.339295,0.0497 -1.618826,0.009 -1.038689,-0.15163 0.436563,-0.12081 1.389063,-0.25064 2.116667,-0.2885 l 1.322917,-0.0688 -1.058334,-0.1895 -1.058333,-0.18949 1.241156,-0.0375 c 1.049231,-0.0317 2.230038,0.45957 1.221855,0.50839 -0.19049,0.009 -0.0877,0.12103 0.228416,0.24845 0.588161,0.23709 0.609158,0.74405 0.08216,1.98374 -0.123724,0.29104 -0.300947,1.21377 -0.39383,2.05052 -0.09288,0.83674 -0.287894,1.52135 -0.433357,1.52135 -0.145464,0 -0.226194,0.32684 -0.1794,0.7263 0.04679,0.39947 -0.03398,0.72872 -0.179502,0.73166 -0.4335,0.009 -0.944445,0.41488 -0.80528,0.64005 0.07117,0.11515 -0.5992,0.28552 -1.489704,0.37859 -1.649128,0.17237 -4.270928,0.19948 -3.790433,0.0392 z m 11.889599,-10.39776 c 0.14529,-0.25658 0.0235,-0.29873 -0.49035,-0.16975 -0.804482,0.20191 -0.843774,-0.0648 -0.40653,-2.75947 0.38682,-2.38388 0.88839,-2.73225 3.19556,-2.21955 0.8531,0.18958 0.828,0.20537 -0.56224,0.35375 -1.41108,0.1506 -1.39102,0.15742 0.66146,0.22481 2.11154,0.0693 2.02792,0.41712 -0.13229,0.55024 -0.50932,0.0314 -0.71768,0.11151 -0.46302,0.17806 0.64951,0.16974 0.57651,0.57823 -0.21452,1.20046 -0.37265,0.29312 -0.61451,0.69721 -0.53747,0.89797 0.0958,0.24956 -0.0665,0.36502 -0.51309,0.36502 -0.71449,0 -0.82736,0.24913 -0.33565,0.74084 0.24694,0.24694 0.23832,0.39099 -0.0388,0.64823 -0.28594,0.26541 -0.31814,0.26331 -0.16304,-0.0106 z"
         id="path68" /><path
         style="fill:#e49631"
         d="m 101.44899,127.5745 c 0.0973,-0.17323 0.18677,-1.01055 0.19874,-1.8607 0.0348,-2.47267 1.70989,-3.91066 2.30327,-1.97725 0.19236,0.62675 0.20565,1.05487 0.038,1.22256 -0.16769,0.16769 -0.25806,0.15061 -0.25806,-0.0488 0,-0.17685 -0.33606,-0.28334 -0.79323,-0.25135 -0.43627,0.0305 -0.79346,0.18448 -0.79375,0.34212 -8.8e-4,0.48279 0.32944,0.64995 0.69115,0.34976 0.18891,-0.15679 0.47829,-0.20175 0.64306,-0.0999 0.19217,0.11877 0.0796,0.29481 -0.31393,0.49101 -0.33742,0.16823 -0.75089,0.58143 -0.9188,0.91824 -0.16792,0.3368 -0.45562,0.75118 -0.63934,0.92083 -0.255,0.23546 -0.29217,0.23392 -0.15707,-0.007 z m -3.604557,-3.03452 c 0.07648,-0.29247 0.300447,-0.59369 0.4977,-0.66939 0.197252,-0.0757 0.281397,-0.2626 0.186988,-0.41536 -0.09441,-0.15276 -0.05827,-0.20767 0.0803,-0.12202 0.138572,0.0856 0.424859,0.0463 0.636192,-0.0874 0.318743,-0.20164 0.305314,-0.24377 -0.07878,-0.24713 -0.254662,-0.002 -0.463021,-0.12311 -0.463021,-0.26863 0,-0.14552 0.126089,-0.26459 0.280198,-0.26459 0.154109,0 0.226137,-0.0893 0.160063,-0.19843 -0.317044,-0.52369 0.851207,-1.07008 1.179757,-0.55177 0.15972,0.25199 0.22513,0.26085 0.22801,0.0309 0.002,-0.18232 0.1827,-0.25387 0.41518,-0.16466 0.69624,0.26717 0.38672,1.75159 -0.41112,1.97167 -0.36381,0.10035 -0.5424,0.1991 -0.39688,0.21943 0.14552,0.0203 -0.0782,0.22267 -0.497246,0.44963 -0.631999,0.34234 -0.800397,0.35181 -0.988136,0.0556 -0.178596,-0.28182 -0.22716,-0.26546 -0.230358,0.0776 -0.0022,0.2391 -0.169169,0.49808 -0.370979,0.57552 -0.261073,0.10018 -0.326811,-0.0126 -0.227869,-0.39096 z m 7.312907,-3.24464 c -0.21056,-0.54873 -0.8574,-0.72188 -1.47065,-0.39368 -0.46852,0.25074 -0.51415,0.22053 -0.36701,-0.24304 0.22344,-0.70401 -0.82308,-1.50646 -1.3713,-1.05147 -0.3061,0.25403 -0.31091,0.18642 -0.0305,-0.42895 0.29905,-0.65634 0.27219,-0.77628 -0.26443,-1.18106 l -0.59729,-0.45053 0.56325,-0.50972 c 0.36459,-0.32995 0.52216,-0.72466 0.44675,-1.11911 -0.0722,-0.3776 0.0461,-0.70562 0.31112,-0.86244 0.34625,-0.20492 0.36046,-0.29733 0.0747,-0.48568 -0.28267,-0.18631 -0.2652,-0.26626 0.0878,-0.40171 0.6021,-0.23105 0.60558,-0.2297 0.75787,0.29391 0.0806,0.27705 0.11822,0.19735 0.0937,-0.19844 -0.0225,-0.3638 0.0517,-0.81029 0.16493,-0.99219 0.11578,-0.18599 0.0833,-0.33073 -0.0743,-0.33073 -0.15411,0 -0.2802,-0.19317 -0.2802,-0.42927 0,-0.34994 0.0727,-0.36892 0.39351,-0.10269 0.48045,0.39874 1.19399,0.1682 1.19399,-0.38578 0,-0.22284 0.12609,-0.40517 0.2802,-0.40517 0.15411,0 0.22524,0.0893 0.15807,0.19843 -0.0672,0.10914 0.21958,0.22311 0.63723,0.25326 0.41764,0.0301 0.82979,-0.0592 0.91588,-0.19844 0.0861,-0.13929 0.2884,-0.25325 0.44958,-0.25325 0.16119,0 0.21936,0.0737 0.12928,0.16379 -0.23989,0.23989 0.55547,0.95623 0.85569,0.77069 0.14024,-0.0867 0.44436,0.13142 0.67581,0.48466 0.23145,0.35324 0.68111,0.71032 0.99925,0.79351 0.44729,0.11697 0.50702,0.22267 0.26347,0.46622 -0.24355,0.24354 -0.40892,0.23696 -0.72943,-0.029 -0.22797,-0.1892 -0.49746,-0.26102 -0.59887,-0.15961 -0.10141,0.10141 -0.0562,0.2672 0.10045,0.36843 0.96712,0.62493 0.30095,3.75593 -0.79912,3.75593 -0.49836,0 -0.95659,0.8432 -0.96029,1.76704 -0.002,0.5561 -0.11947,1.18968 -0.26053,1.40796 -0.21919,0.33917 -0.25707,0.32955 -0.26054,-0.0661 -0.003,-0.31483 -0.21308,-0.46302 -0.6572,-0.46302 -0.47188,0 -0.61089,0.11015 -0.50086,0.39688 0.0838,0.21828 0.0763,0.39687 -0.0166,0.39687 -0.0929,0 -0.2339,-0.16939 -0.31335,-0.37641 z m 3.4582,-11.01708 c -0.56418,-0.91287 -0.52364,-1.6628 0.13153,-2.43328 1.49882,-1.76261 2.1951,-2.43475 2.03084,-1.96044 -0.0923,0.26656 -0.16785,1.13679 -0.16785,1.93384 0,0.82704 -0.10574,1.38384 -0.2463,1.29696 -0.13546,-0.0837 -0.32108,-0.0312 -0.41249,0.11668 -0.0914,0.14789 -0.0103,0.27252 0.18016,0.27694 0.21275,0.005 0.16694,0.11253 -0.11877,0.27891 -0.25582,0.14897 -0.60164,0.18648 -0.76849,0.0834 -0.18032,-0.11144 -0.23138,-0.071 -0.12588,0.0997 0.0976,0.15795 0.0647,0.35689 -0.0731,0.44207 -0.13784,0.0852 -0.33117,0.0246 -0.42962,-0.13473 z"
         id="path67" /><path
         style="fill:#d88d31"
         d="m 110.35862,127.49259 c -0.0417,-0.21828 -0.0617,-0.48618 -0.0445,-0.59532 0.0172,-0.10914 -0.12178,-0.19843 -0.30892,-0.19843 -1.14555,0 -2.23141,-2.7326 -1.36996,-3.44754 0.33124,-0.2749 1.97479,0.30088 1.97479,0.69182 0,0.0776 -0.14882,0.0571 -0.33073,-0.0456 -0.26458,-0.14938 -0.26458,-0.11546 0,0.16959 0.18191,0.19598 0.33073,0.57063 0.33073,0.83257 0,0.26194 -0.14882,0.47807 -0.33073,0.4803 -0.25044,0.003 -0.24599,0.0578 0.0183,0.22537 0.22527,0.14284 0.31141,0.58705 0.24292,1.25272 -0.0584,0.56727 -0.14024,0.85281 -0.18194,0.63453 z m -3.26074,-7.04596 c 0.1461,-1.4156 0.51725,-2.21446 1.02884,-2.21446 1.10007,0 1.76624,-3.131 0.79912,-3.75593 -0.15665,-0.10123 -0.21057,-0.2583 -0.11982,-0.34906 0.2727,-0.2727 1.29007,0.50255 1.22044,0.92999 -0.11905,0.73084 0.30848,1.12805 0.8056,0.74846 0.2417,-0.18457 0.16006,-0.0216 -0.18144,0.36217 l -0.6209,0.69774 0.72472,0.37972 0.72471,0.37971 -0.82875,0.28891 c -0.56147,0.19573 -0.78068,0.41418 -0.6797,0.67733 0.0907,0.23633 -0.0399,0.43727 -0.3334,0.51317 -0.30256,0.0782 -0.1947,0.13618 0.28926,0.15543 0.42443,0.0169 0.68725,0.11514 0.58404,0.21835 -0.10321,0.10322 -0.68861,0.17088 -1.30087,0.15037 -0.61226,-0.0205 -0.90485,0.0228 -0.65019,0.0963 0.30394,0.0877 0.45248,0.37695 0.43233,0.84182 -0.0182,0.42037 -0.0787,0.52598 -0.14887,0.25985 -0.0687,-0.26046 -0.27755,-0.3872 -0.49847,-0.30242 -0.24475,0.0939 -0.38444,-0.0292 -0.39191,-0.34539 -0.006,-0.27023 -0.174,-0.036 -0.37247,0.52054 -0.54124,1.51771 -0.65864,1.45622 -0.48227,-0.25262 z m 6.31372,-3.14219 c -0.42369,-0.36437 -0.72135,-0.69165 -0.66146,-0.72728 0.0599,-0.0356 0.41538,-0.33377 0.78999,-0.66254 0.69442,-0.60943 0.98569,-0.59581 2.89077,0.13519 0.21828,0.0838 0.50601,0.16257 0.63941,0.17513 0.36555,0.0344 0.4858,0.61175 0.1683,0.80797 -0.1532,0.0947 -0.27855,0.0233 -0.27855,-0.15861 0,-0.20505 -0.12571,-0.16257 -0.33073,0.11173 -0.1819,0.24338 -0.59555,0.48135 -0.91922,0.52882 -0.32367,0.0475 -0.67094,0.16877 -0.7717,0.26953 -0.32626,0.32626 -0.74094,0.19591 -1.52681,-0.47994 z m -0.49471,-2.93906 c -0.0894,-0.0894 0.0301,-0.45678 0.26571,-0.81633 0.36084,-0.55071 0.3703,-0.68957 0.06,-0.88132 -0.56342,-0.34821 -0.29159,-0.43316 1.97258,-0.61644 2.07945,-0.16833 2.08883,-0.16624 1.61264,0.35995 -0.26344,0.29109 -0.64614,0.52926 -0.85046,0.52926 -0.20432,0 -0.3096,0.10013 -0.23397,0.22251 0.37539,0.60738 -2.28839,1.74052 -2.82654,1.20237 z"
         id="path66" /><path
         style="fill:#4486c5"
         d="m 98.703813,144.58026 c 0,-0.35167 -0.124917,-0.68105 -0.277594,-0.73194 -0.179028,-0.0597 -0.206845,-0.51375 -0.07834,-1.27882 0.192598,-1.14667 0.205241,-1.15978 0.378582,-0.39254 l 0.179329,0.79375 0.0313,-0.8852 c 0.01722,-0.48685 0.250055,-1.20123 0.517417,-1.5875 0.780523,-1.12764 0.830723,-1.51595 0.259252,-2.00525 -0.292096,-0.2501 -0.453761,-0.53205 -0.359255,-0.62656 0.09451,-0.0945 0.279432,0.002 0.410946,0.21507 0.27593,0.44647 0.166493,0.43076 3.37013,0.48352 2.25758,0.0372 2.4474,0.0813 2.4474,0.56946 0,0.29105 -0.12329,0.52917 -0.27399,0.52917 -0.15069,0 -0.51193,0.50602 -0.80275,1.12448 -0.71662,1.52394 -1.14224,2.23823 -1.75066,2.93797 -0.28248,0.32489 -0.59158,0.7939 -0.68688,1.04225 -0.3129,0.8154 -3.364889,0.645 -3.364889,-0.18786 z m 4.705517,-8.80073 c 2.64576,-0.12762 2.69567,-0.61403 0.063,-0.61403 -3.1369,0 -3.674018,-0.76423 -0.58572,-0.83339 0.97367,-0.0218 1.45579,-0.088 1.07136,-0.1471 -0.75476,-0.11604 -0.80149,-0.96067 -0.0687,-1.24186 0.76041,-0.29179 0.3846,-0.91908 -0.62138,-1.03721 -0.54571,-0.0641 -0.18827,-0.10103 0.7943,-0.0821 1.6205,0.0312 1.78682,-0.0148 1.78999,-0.49478 0.003,-0.43851 0.0474,-0.46117 0.25998,-0.13229 0.21335,0.33014 0.26029,0.3079 0.27912,-0.13229 l 0.0226,-0.52917 0.21288,0.52917 c 0.11709,0.29104 0.16122,0.61847 0.0981,0.72761 -0.0631,0.10914 0.0151,0.19843 0.17393,0.19843 0.51068,0 0.79115,-1.16979 0.32212,-1.34352 -0.22703,-0.0841 0.33495,-0.12234 1.24885,-0.085 2.02495,0.0828 2.49482,0.37017 0.60518,0.37017 -1.60086,0 -1.6931,0.60214 -0.14869,0.97064 l 0.92196,0.21998 -0.54513,0.58425 c -0.61546,0.65964 -0.70633,1.29098 -0.21439,1.48948 0.1819,0.0734 -0.20505,0.14468 -0.8599,0.1584 -0.79845,0.0167 -1.06904,0.10192 -0.82149,0.25867 0.29659,0.18781 0.2706,0.25897 -0.13229,0.36213 -0.27578,0.0706 -0.0311,0.14221 0.54368,0.15909 2.49665,0.0733 0.26521,0.5481 -3.03284,0.64529 -1.96268,0.0578 -2.58212,0.0576 -1.37654,-5.7e-4 z"
         id="path65" /><path
         style="fill:#427dc1"
         d="m 102.40798,145.74884 1.19062,-0.18511 -1.32291,-0.0565 c -1.08197,-0.0462 -1.21449,-0.10009 -0.72761,-0.29579 0.32743,-0.13161 0.59532,-0.36128 0.59532,-0.51039 0,-0.1491 0.2533,-0.56242 0.56289,-0.91848 0.65692,-0.75552 1.07091,-1.4443 1.79995,-2.99466 0.29082,-0.61846 0.65206,-1.12448 0.80275,-1.12448 0.1507,0 0.27399,-0.22338 0.27399,-0.4964 0,-0.54188 2.78766,-1.00284 3.28285,-0.54285 0.29681,0.27572 -0.2922,1.03925 -0.80171,1.03925 -0.25427,0 -0.36447,0.35145 -0.36447,1.16232 0,0.76169 -0.12991,1.21216 -0.37688,1.30694 -0.20729,0.0795 -0.57804,0.56853 -0.8239,1.08664 -0.24586,0.51811 -0.55251,0.94202 -0.68145,0.94202 -0.12894,0 -0.23444,0.23093 -0.23444,0.51319 0,0.39819 -0.22235,0.53646 -0.99219,0.61698 -0.76708,0.0802 -0.63201,0.12233 0.59531,0.18552 l 1.5875,0.0817 -1.4552,0.20116 c -0.80037,0.11064 -2.05052,0.19506 -2.77813,0.1876 l -1.32292,-0.0136 z m 4.63021,-9.9761 c 1.66721,-0.13659 2.22858,-0.5954 0.78052,-0.63793 -0.57481,-0.0169 -0.81946,-0.0885 -0.54368,-0.15909 0.40289,-0.10316 0.42888,-0.17432 0.13229,-0.36213 -0.24755,-0.15675 0.023,-0.24195 0.82149,-0.25867 0.65485,-0.0137 1.0418,-0.085 0.8599,-0.1584 -0.4917,-0.1984 -0.40117,-0.82962 0.21362,-1.48948 l 0.54436,-0.58425 -0.6105,-0.17206 -0.6105,-0.17206 0.66146,-0.0577 c 0.3638,-0.0317 0.78052,-0.0269 0.92604,0.0107 0.14552,0.0376 0.66337,0.0632 1.15077,0.0568 0.82963,-0.0109 0.879,0.0374 0.77343,0.7567 -0.062,0.42257 -0.0398,0.76831 0.0493,0.76831 0.0891,0 0.16206,0.22966 0.16206,0.51036 0,0.46833 -1.35888,1.02158 -2.08908,0.85053 -0.11996,-0.0281 -0.1427,0.0709 -0.0505,0.22005 0.0922,0.14913 0.60703,0.27476 1.14414,0.27919 2.16226,0.0178 0.0652,0.46771 -2.72759,0.58517 -1.60073,0.0673 -2.31511,0.0736 -1.5875,0.014 z"
         id="path64" /><path
         style="fill:#4379b7"
         d="m 105.3184,145.46416 c -1.0738,-0.0956 -1.34711,-0.17031 -0.72761,-0.19882 0.80058,-0.0369 0.99219,-0.14786 0.99219,-0.57484 0,-0.29104 0.1055,-0.52916 0.23444,-0.52916 0.12894,0 0.43559,-0.42391 0.68145,-0.94202 0.24586,-0.51811 0.61661,-1.0071 0.8239,-1.08664 0.24697,-0.0948 0.37688,-0.54525 0.37688,-1.30694 0,-0.85385 0.10473,-1.16232 0.39463,-1.16232 0.21705,0 0.54334,-0.23812 0.7251,-0.52917 0.23527,-0.37672 0.61702,-0.52916 1.32516,-0.52916 1.11896,0 1.26675,0.3086 0.42887,0.89547 -0.39147,0.2742 -0.58401,0.71858 -0.62483,1.44217 -0.0596,1.05699 -0.20656,1.32152 -1.52133,2.73929 -0.40018,0.43153 -0.7276,0.93946 -0.7276,1.12873 0,0.63072 -0.6459,0.80795 -2.38125,0.65341 z m 9.525,-17.94407 c 0,-0.1304 0.38695,-0.2197 0.85989,-0.19844 0.75279,0.0338 0.87033,-0.052 0.94362,-0.68896 0.046,-0.40018 -0.0395,-0.7276 -0.19014,-0.7276 -0.15061,0 -0.20532,-0.1786 -0.12155,-0.39688 0.10339,-0.26944 0.52551,-0.39687 1.31461,-0.39687 1.29478,0 1.69074,0.99188 0.6993,1.75174 -0.4048,0.31024 -0.41312,0.38826 -0.0662,0.62043 0.28382,0.18991 -0.14956,0.26671 -1.52135,0.26961 -1.05503,0.002 -1.91823,-0.10264 -1.91823,-0.23303 z"
         id="path63" /><path
         style="fill:#3c73b6"
         d="m 107.17048,146.01342 c -0.80036,-0.0981 -1.1516,-0.19774 -0.78052,-0.22146 0.73266,-0.0468 1.30969,-0.48818 1.30969,-1.00173 0,-0.17798 0.32742,-0.67668 0.7276,-1.10821 1.30754,-1.40997 1.46163,-1.6812 1.51749,-2.6712 0.0375,-0.66469 0.28837,-1.21097 0.78347,-1.70608 1.02516,-1.02515 1.61367,-0.84138 1.55383,0.48522 -0.0581,1.2875 0.39785,2.2868 0.48549,1.06409 0.0622,-0.8674 0.14005,-1.6329 0.22883,-2.24896 0.0315,-0.21828 0.1552,0.18837 0.27499,0.90368 0.1648,0.98415 0.12505,1.43297 -0.16341,1.84481 -0.20967,0.29934 -0.38958,0.78565 -0.39981,1.08069 -0.0185,0.53393 -0.0198,0.53397 -0.26933,0.007 -0.17792,-0.37549 -0.2129,-0.10654 -0.12045,0.92604 0.0837,0.93497 0.0439,1.31709 -0.11139,1.06885 -0.20578,-0.32897 -0.32615,-0.30932 -0.81038,0.13229 -0.31902,0.29095 -1.28445,0.64252 -2.19897,0.8008 l -1.63026,0.28215 1.7198,0.27945 c 2.06088,0.33487 0.45416,0.39734 -2.11667,0.0823 z m 8.91729,-10.35745 c -0.25396,-0.14212 -0.39269,-0.37015 -0.30828,-0.50673 0.0844,-0.13658 -0.0222,-0.24832 -0.23697,-0.24832 -0.21474,0 -0.46044,0.14883 -0.546,0.33073 -0.0856,0.1819 -0.11278,0.007 -0.0605,-0.38765 0.0523,-0.3951 0.004,-0.75229 -0.10667,-0.79375 -0.68577,-0.25625 -0.35756,-1.92686 0.41092,-2.09158 0.53975,-0.1157 0.62442,-0.18684 0.26458,-0.22233 -0.33088,-0.0326 -0.39783,-0.10467 -0.17866,-0.19224 0.19277,-0.077 1.05408,0.0161 1.91401,0.20682 l 1.56352,0.34687 -1.25256,1.13753 c -0.6889,0.62564 -1.40757,1.07911 -1.59703,1.00772 -0.18946,-0.0714 -0.27173,-0.0121 -0.18282,0.13174 0.0889,0.14386 0.32948,0.26156 0.53461,0.26156 0.20512,0 0.31204,0.15872 0.2376,0.35272 -0.0996,0.25951 0.0949,0.32953 0.73591,0.265 0.47919,-0.0482 0.69266,-0.0123 0.47438,0.0799 -0.21828,0.0922 -0.57854,0.2605 -0.80058,0.37402 -0.22204,0.11352 -0.6115,0.0901 -0.86546,-0.052 z m 1.93063,-7.63422 c -1.5111,-0.15222 -1.57531,-0.17928 -0.52917,-0.22297 0.89414,-0.0373 1.0918,-0.11584 0.79375,-0.31527 -0.34697,-0.23217 -0.33865,-0.31019 0.0662,-0.62043 0.25466,-0.19518 0.46302,-0.66917 0.46302,-1.05331 0,-0.80927 1.38661,-0.99047 2.81389,-0.3677 0.68537,0.29904 1.14979,1.25677 0.60944,1.25677 -0.12212,0 -0.34865,-0.20836 -0.5034,-0.46302 -0.22813,-0.37541 -0.25034,-0.32581 -0.11738,0.26211 0.12107,0.53535 0.0488,0.76935 -0.27615,0.89404 -0.24208,0.0929 -0.37751,0.33213 -0.30095,0.53163 0.15123,0.3941 -0.0246,0.39982 -3.0192,0.0982 z"
         id="path62" /><path
         style="fill:#386bb3"
         d="m 109.9486,145.98482 c -0.92655,-0.14086 -0.85242,-0.16557 0.59532,-0.19844 1.5717,-0.0357 2.44632,-0.56671 0.93339,-0.56671 h -0.72026 l 0.59668,-0.59531 c 0.51495,-0.51378 0.63486,-0.54096 0.8755,-0.19844 0.2211,0.31472 0.25099,0.27052 0.14439,-0.21356 -0.11099,-0.504 -0.0689,-0.55602 0.24163,-0.29833 0.30494,0.25307 0.37606,0.20589 0.37606,-0.24946 0,-0.32278 -0.16875,-0.56157 -0.39687,-0.56157 -0.24428,0 -0.38508,-0.22889 -0.36618,-0.59531 0.0231,-0.44798 0.0606,-0.48072 0.15169,-0.13229 0.0666,0.25466 0.24522,0.46302 0.39704,0.46302 0.15182,0 0.21819,-0.22121 0.14749,-0.49159 -0.0707,-0.27037 -0.005,-0.71157 0.14503,-0.98045 0.3803,-0.67956 0.67137,0.0733 0.69696,1.80277 0.0102,0.69122 0.13766,1.25677 0.28318,1.25677 0.14552,0 0.26276,0.20836 0.26053,0.46302 -0.003,0.3957 -0.0414,0.40532 -0.26053,0.0662 -0.22104,-0.34203 -0.25704,-0.33504 -0.26054,0.0505 -0.002,0.24607 -0.14151,0.53236 -0.30951,0.63619 -0.18323,0.11324 -0.23388,0.073 -0.12657,-0.10066 0.10855,-0.17564 -0.0261,-0.27401 -0.34251,-0.25018 -0.36956,0.0278 -0.44576,0.13042 -0.26165,0.35225 0.32287,0.38904 -1.23672,0.5793 -2.80027,0.3416 z m 6.41668,-3.94015 c -0.31806,-1.93806 -0.35613,-2.09744 -0.54635,-2.28767 -0.32905,-0.32904 -0.18964,-1.09228 0.22883,-1.25287 0.22584,-0.0867 0.3598,-0.0696 0.29769,0.0378 -0.0621,0.10748 -0.0171,0.43353 0.1,0.72458 0.18584,0.46196 0.21524,0.43676 0.23147,-0.19844 l 0.0186,-0.72761 2.71198,0.0539 2.71198,0.0538 -2.18281,0.0891 -2.18282,0.0891 v 1.04763 c 0,0.86141 -0.0915,1.04763 -0.51467,1.04763 -0.42611,0 -0.52876,0.21626 -0.59656,1.25677 l -0.0819,1.25678 z m 0.99166,-6.48907 0.79375,-0.40834 -0.87126,0.0973 c -0.62313,0.0696 -0.83458,0.002 -0.74247,-0.23837 0.0708,-0.18459 -0.0133,-0.39345 -0.18707,-0.46412 -0.17373,-0.0707 0.10085,-0.15411 0.61017,-0.18542 0.67015,-0.0412 0.75815,-0.089 0.31849,-0.17319 -1.31329,-0.25132 1.45612,-2.35623 2.94434,-2.23786 l 1.23509,0.0982 v 1.16398 1.16398 l -1.25677,0.0264 c -3.17168,0.0666 -2.66498,0.76178 0.56224,0.77142 0.74579,0.002 1.53458,0.11947 1.75286,0.26054 0.27473,0.17754 -0.25459,0.25862 -1.71979,0.26344 -1.16417,0.004 -2.59292,0.0662 -3.175,0.13868 l -1.05833,0.13173 z"
         id="path61" /><path
         style="fill:#3966a9"
         d="m 117.92661,145.28506 c 0.0618,-0.45306 0.023,-0.57735 -0.10299,-0.32997 -0.11115,0.21828 -0.35978,0.42959 -0.55249,0.46957 -0.20307,0.0421 -0.27225,-0.0537 -0.16454,-0.22802 0.10222,-0.16539 0.0605,-0.3782 -0.0928,-0.47291 -0.69256,-0.42803 -0.50428,-4.00198 0.21083,-4.00198 0.44007,0 0.52916,-0.17639 0.52916,-1.04763 v -1.04763 l 2.18282,-0.0891 c 2.06272,-0.0842 2.02548,-0.0921 -0.67708,-0.14299 -3.82078,-0.072 -3.48491,-0.56742 0.42811,-0.63154 l 2.96095,-0.0485 -2.11667,-0.16755 -2.11667,-0.16754 2.4474,-0.0485 c 1.34607,-0.0267 2.44739,0.0592 2.44739,0.19089 0,0.13167 0.50602,0.19551 1.12448,0.14186 l 1.12448,-0.0975 -1.32291,0.3619 c -0.88783,0.24287 -1.10538,0.37223 -0.66146,0.39332 0.63382,0.0301 0.62552,0.0491 -0.19844,0.45532 -0.47294,0.23314 -0.8599,0.54389 -0.8599,0.69055 0,0.14665 -0.25634,0.48897 -0.56965,0.7607 -0.46827,0.40613 -0.49181,0.49405 -0.13229,0.49405 0.24055,0 0.43736,0.17185 0.43736,0.38188 0,0.42478 -1.03592,1.2507 -1.33606,1.06521 -0.10531,-0.0651 -0.33861,0.0589 -0.51844,0.27562 -0.26671,0.32136 -0.24785,0.39396 0.10231,0.39396 0.2361,0 0.42927,0.12447 0.42927,0.27661 0,0.33962 -1.20755,1.57547 -1.53939,1.57547 -0.13229,0 -0.53785,0.29732 -0.90123,0.66071 l -0.66071,0.6607 z m 2.47304,-9.57489 c 2.5419,-0.14946 2.74218,-0.54467 0.27601,-0.54467 -3.15352,0 -3.58758,-0.70204 -0.47445,-0.76737 l 1.25677,-0.0264 v -1.17541 -1.17541 l -1.12448,-0.10128 c -0.74118,-0.0668 -0.47061,-0.11704 0.79375,-0.14751 2.56528,-0.0618 2.50625,-0.57539 -0.0661,-0.57539 -2.71381,0 -2.51787,-0.46976 0.24019,-0.57587 1.22352,-0.0471 2.16899,0.004 2.10106,0.11285 -0.0679,0.10914 0.18116,0.19844 0.55355,0.19844 0.37239,0 0.67707,-0.12325 0.67707,-0.27389 0,-0.17637 0.20987,-0.16157 0.58941,0.0416 0.53723,0.28751 0.54721,0.33025 0.11271,0.48266 -0.65274,0.22897 -0.5923,0.64656 0.11785,0.8142 0.58976,0.13923 0.91682,0.92865 0.49321,1.19045 -0.12495,0.0772 -0.17666,-0.12192 -0.11492,-0.44254 0.0846,-0.43918 0.0373,-0.50795 -0.19186,-0.27883 -0.22912,0.22912 -0.22515,0.47748 0.0161,1.00696 0.37735,0.82818 0.36981,0.83882 -0.93667,1.32231 l -1.01187,0.37447 1.05833,-0.0672 c 0.58209,-0.037 1.05834,0.0514 1.05834,0.19643 0,0.34231 -2.54843,0.60886 -5.55625,0.58116 l -2.38126,-0.0219 z"
         id="path60" /><path
         style="fill:#355aa4"
         d="m 119.20902,146.04114 c -0.9633,-0.40799 3.74042,-0.59729 8.59896,-0.34606 l 4.63021,0.23941 -5.42396,0.0424 c -2.98318,0.0233 -5.84068,0.0977 -6.35,0.16538 -0.50932,0.0677 -1.16417,0.0222 -1.45521,-0.10111 z m -0.39687,-0.79515 c 0,-0.16913 0.20804,-0.38735 0.46232,-0.48492 1.14701,-0.44015 2.09162,-1.92265 1.22507,-1.92265 -0.35016,0 -0.36902,-0.0726 -0.10231,-0.39396 0.17983,-0.21668 0.41313,-0.34071 0.51844,-0.27562 0.30014,0.18549 1.33606,-0.64043 1.33606,-1.06521 0,-0.21003 -0.19681,-0.38188 -0.43736,-0.38188 -0.35952,0 -0.33598,-0.0879 0.13229,-0.49405 0.31331,-0.27173 0.56965,-0.61405 0.56965,-0.7607 0,-0.14666 0.38696,-0.45741 0.8599,-0.69055 0.82396,-0.40618 0.83226,-0.42521 0.19844,-0.45532 -0.4231,-0.0201 -0.18474,-0.15056 0.66146,-0.36202 l 1.32291,-0.33059 -1.19062,-0.12695 c -0.85065,-0.0907 -0.56734,-0.14015 0.99218,-0.17318 2.81206,-0.0596 3.27858,0.66003 0.52917,0.81622 -1.62083,0.0921 -1.61265,0.095 0.41249,0.14491 1.32219,0.0326 2.00726,-0.0443 1.90262,-0.2136 -0.0899,-0.14552 0.009,-0.26458 0.22066,-0.26458 0.2113,0 0.45271,0.17859 0.53647,0.39687 0.0838,0.21828 0.0366,0.39688 -0.10477,0.39688 -0.14138,0 -0.46128,0.47137 -0.71087,1.04749 -0.28442,0.6565 -0.65447,1.07623 -0.9914,1.12448 -0.42871,0.0614 -0.55412,0.30577 -0.6192,1.20655 -0.14369,1.98885 -1.66096,3.23527 -3.94281,3.23897 -0.98803,0.002 -2.2429,0.0767 -2.78861,0.16691 -0.67147,0.11099 -0.99218,0.0646 -0.99218,-0.1435 z"
         id="path59" /><path
         style="fill:#345299"
         d="m 126.61736,146.02379 5.82083,-0.14266 -6.21771,-0.26065 c -5.02295,-0.21057 -5.77519,-0.28683 -3.91476,-0.39688 2.78629,-0.16481 4.0783,-1.16109 4.23114,-3.26266 0.0639,-0.8784 0.19147,-1.12279 0.61809,-1.18388 0.33693,-0.0482 0.70698,-0.46798 0.9914,-1.12448 0.24959,-0.57612 0.56949,-1.04749 0.71087,-1.04749 0.14139,0 0.18104,-0.19813 0.0881,-0.44028 -0.1175,-0.30619 -0.0697,-0.37894 0.15691,-0.23888 0.33997,0.2101 0.93922,1.45947 0.86512,1.80364 -0.0235,0.10914 0.0696,0.19843 0.20696,0.19843 0.51421,0 3.28353,5.34866 3.00122,5.79655 -0.22985,0.36465 -1.07818,0.42255 -6.32225,0.43154 l -6.05678,0.0104 z"
         id="path58" /></g></g></svg>
