<?xml version="1.0" encoding="UTF-8" standalone="no"?>
<!-- Created with Inkscape (http://www.inkscape.org/) -->

<svg
   width="210mm"
   height="297mm"
   viewBox="0 0 210 297"
   version="1.1"
   id="svg1"
   xml:space="preserve"
   xmlns="http://www.w3.org/2000/svg"
   xmlns:svg="http://www.w3.org/2000/svg"><defs
     id="defs1"><linearGradient
       id="swatch1"><stop
         style="stop-color:#000000;stop-opacity:1;"
         offset="0"
         id="stop1" /></linearGradient></defs><g
     id="layer1"><g
       id="g204"
       transform="matrix(1.6115083,0,0,1.6376686,-10.093134,-55.070088)"><path
         style="fill:#fbf5fc"
         d="m 76.792773,102.6046 c -0.09306,-0.15058 0.07065,-0.34991 0.363802,-0.44295 0.293154,-0.093 0.536795,-0.36951 0.541423,-0.61436 l 0.0084,-0.44519 0.38846,0.51359 c 0.213653,0.28247 0.386637,0.63966 0.384409,0.79375 -0.0022,0.15409 -0.121291,0.10156 -0.264584,-0.11672 l -0.260531,-0.39687 -0.260532,0.39687 c -0.143293,0.21828 -0.264178,0.27782 -0.268635,0.13229 -0.0045,-0.14552 -0.11046,-0.10304 -0.235562,0.0944 l -0.227459,0.35897 z"
         id="path219" /><path
         style="fill:#fbfcf4"
         d="m 58.838021,162.68611 c -0.982266,-0.0509 -1.785938,-0.1949 -1.785938,-0.31997 0,-0.12507 0.744141,-0.16199 1.653646,-0.082 0.909505,0.0799 1.891771,0.23971 2.182813,0.35502 0.291041,0.1153 0.350573,0.19387 0.132291,0.1746 -0.218281,-0.0193 -1.200547,-0.0767 -2.182812,-0.12761 z m -7.996994,-2.19582 c 0.0936,-0.15144 0.398278,-0.20294 0.677073,-0.11446 0.278795,0.0885 0.5069,0.0375 0.5069,-0.11322 0,-0.15076 0.199654,-0.1975 0.443676,-0.10386 l 0.443676,0.17026 -0.509822,0.19972 c -0.280402,0.10984 -0.784739,0.20809 -1.120749,0.21831 l -0.610927,0.0186 z m 21.841869,-13.87986 c 0.0024,-0.29104 0.16629,-1.30307 0.364271,-2.24896 l 0.359966,-1.71979 -0.142592,1.85209 c -0.07842,1.01864 -0.242347,2.03067 -0.364271,2.24895 l -0.221679,0.39688 z m 10.959812,-28.97187 c -0.08994,-0.14552 -0.374776,-0.26459 -0.632976,-0.26459 -0.2582,0 -0.469454,-0.16287 -0.469454,-0.36193 v -0.36193 l 0.94809,0.54202 c 0.52145,0.29812 0.9977,0.58005 1.058333,0.62652 0.06063,0.0465 -0.08117,0.0845 -0.315114,0.0845 -0.233946,0 -0.498942,-0.11906 -0.588879,-0.26458 z M 59.16875,103.13057 c 0,-0.75186 0.09137,-1.36701 0.203041,-1.36701 0.111672,0 0.184795,0.54203 0.162495,1.20451 -0.0223,0.66249 -0.113668,1.27765 -0.203041,1.36702 -0.08937,0.0894 -0.162495,-0.45266 -0.162495,-1.20452 z m 19.516646,0.98825 0.325235,-0.42286 -0.501965,-0.45427 -0.501965,-0.45427 -0.181337,0.29341 c -0.09973,0.16137 -0.02226,0.49655 0.172171,0.74484 l 0.353507,0.45143 -0.463021,-0.36313 c -0.254662,-0.19972 -0.463021,-0.52714 -0.463021,-0.7276 0,-0.20047 0.126089,-0.36448 0.280198,-0.36448 0.154109,0 0.206614,-0.11906 0.116677,-0.26458 -0.08994,-0.14552 -0.0337,-0.26459 0.124981,-0.26459 0.158676,0 0.356772,0.17791 0.440214,0.39536 0.08344,0.21744 0.261248,0.32766 0.395126,0.24492 0.133878,-0.0828 0.210699,0.007 0.170714,0.19995 l -0.0727,0.3504 0.44307,-0.0732 c 0.243688,-0.0402 0.529975,0.0674 0.636193,0.23931 l 0.193123,0.31248 -0.322136,-0.19909 -0.322136,-0.19909 -0.57408,0.48894 -0.574081,0.48894 z m -1.789563,-2.06012 c 0,-0.19347 -0.160005,-0.29036 -0.355567,-0.21531 l -0.355567,0.13644 0.121239,-0.63422 c 0.06668,-0.34882 0.226686,-0.56905 0.355567,-0.4894 0.128881,0.0797 0.238547,0.34616 0.243704,0.59223 l 0.0094,0.44741 0.340244,-0.61322 0.340244,-0.61321 0.377984,0.46556 c 0.207892,0.25607 0.237303,0.38119 0.06536,0.27806 l -0.312626,-0.1875 -0.414978,0.59246 c -0.228238,0.32586 -0.414979,0.43417 -0.414979,0.2407 z M 87.74375,101.25 c 0,-0.28245 -0.119063,-0.58713 -0.264583,-0.67707 -0.145521,-0.0899 -0.264584,-0.31524 -0.264584,-0.50068 0,-0.185443 0.156487,-0.337166 0.347749,-0.337166 h 0.347749 l 0.05984,1.014236 c 0.03292,0.55783 -0.0045,1.01424 -0.08317,1.01424 -0.07866,0 -0.14301,-0.2311 -0.14301,-0.51356 z M 76.366667,96.207306 c 0.125204,-0.436562 0.140705,-0.79375 0.03445,-0.79375 -0.106259,0 -0.343126,0.148828 -0.526373,0.330729 l -0.333175,0.33073 0.176274,-0.463021 c 0.09695,-0.254662 0.345077,-0.463021 0.551391,-0.463021 0.206314,0 0.494563,-0.314169 0.640554,-0.698153 0.14599,-0.383984 0.319566,-0.644023 0.385725,-0.577865 0.06616,0.06616 0.0067,0.469624 -0.132161,0.89659 -0.138846,0.426967 -0.317638,1.103725 -0.397314,1.503907 -0.07968,0.400182 -0.25335,0.727604 -0.38594,0.727604 h -0.241073 z"
         id="path218" /><path
         style="fill:#eaf8e6"
         d="m 65.616636,158.38439 c 0,-1.52797 0.04373,-2.15305 0.09718,-1.38906 0.05345,0.76398 0.05345,2.01414 0,2.77812 -0.05345,0.76399 -0.09718,0.13891 -0.09718,-1.38906 z"
         id="path217" /><path
         style="fill:#d7edcc"
         d="m 81.311683,165.07949 c 0.173145,-0.1234 0.362886,-0.8766 0.421646,-1.67379 l 0.106837,-1.44943 -0.02477,1.56659 -0.02477,1.5666 -0.396875,0.10719 -0.396875,0.10719 z m 0.428637,-12.38364 c 0.0015,-0.87313 0.05088,-1.19842 0.109765,-0.72287 0.05889,0.47555 0.05767,1.18993 -0.0027,1.5875 -0.06037,0.39758 -0.10855,0.008 -0.107065,-0.86463 z"
         id="path216" /><path
         style="fill:#94c358"
         d="m 65.352053,158.38439 c 0,-1.52797 0.04373,-2.15305 0.09718,-1.38906 0.05345,0.76398 0.05345,2.01414 0,2.77812 -0.05345,0.76399 -0.09718,0.13891 -0.09718,-1.38906 z"
         id="path215" /><path
         style="fill:#89c244"
         d="m 35.956496,147.20574 c 0.0068,-0.1819 -0.0065,-0.67088 -0.0294,-1.08664 l -0.04168,-0.75591 -0.410617,0.15757 -0.410617,0.15757 0.161648,-0.26155 c 0.08891,-0.14386 0.333216,-0.26156 0.542909,-0.26156 H 36.15 v 0.80937 0.80936 l 0.29098,-0.17983 0.290981,-0.17984 -0.30029,0.5611 c -0.165159,0.3086 -0.342402,0.56109 -0.393874,0.56109 -0.05147,0 -0.08806,-0.14882 -0.0813,-0.33073 z m 3.404536,-5.82083 c 0.01982,-1.34607 0.07391,-2.20927 0.120211,-1.91823 0.0463,0.29104 0.123273,1.39237 0.171055,2.4474 0.04778,1.05502 -0.0063,1.91823 -0.120212,1.91823 -0.113897,0 -0.190872,-1.10133 -0.171054,-2.4474 z m 38.166315,-3.48716 c 0.0323,-0.22007 0.160635,-0.49287 0.285192,-0.60622 0.124557,-0.11335 0.14082,-0.0573 0.03614,0.12463 -0.104679,0.1819 -0.131518,0.33073 -0.05964,0.33073 0.07188,0 0.448193,-0.12072 0.836261,-0.26826 l 0.705579,-0.26826 -0.150884,-0.3932 -0.150884,-0.3932 h 0.39788 0.39788 l -0.259447,0.48478 c -0.142696,0.26663 -0.414776,0.60925 -0.604622,0.76137 -0.189845,0.15213 -0.60325,0.3556 -0.918676,0.45217 l -0.573502,0.17558 z m -37.887571,-2.94496 c -0.190676,-0.216 -0.271949,-0.62819 -0.180608,-0.91598 0.09134,-0.28779 0.252042,-0.52325 0.357113,-0.52325 0.10507,0 0.186344,0.32742 0.180607,0.7276 l -0.01043,0.72761 0.350396,-0.0727 c 0.192717,-0.04 0.274988,0.0493 0.182823,0.19844 -0.09217,0.14913 -0.249844,0.26661 -0.350396,0.26108 -0.100553,-0.006 -0.33883,-0.18679 -0.529505,-0.40279 z m 6.719057,-4.84261 c -0.07594,-0.12288 0.185615,-0.37804 0.581234,-0.56702 l 0.719308,-0.34362 -0.661458,-0.17027 -0.661459,-0.17028 0.48268,-0.1855 0.48268,-0.1855 0.359474,0.35948 0.359475,0.35947 -0.761931,0.56332 c -0.419062,0.30983 -0.824063,0.46279 -0.900003,0.33992 z m 13.443587,-9.51624 c 0.10522,-0.17025 0.352955,-0.30955 0.550521,-0.30955 0.197567,0 0.419601,-0.14883 0.493409,-0.33073 l 0.134197,-0.33073 0.218581,0.30406 c 0.120219,0.16723 0.516237,0.36188 0.880039,0.43255 l 0.661458,0.1285 -1.058333,-0.013 c -0.582084,-0.007 -1.286225,0.0863 -1.564758,0.20772 l -0.506424,0.22073 z m 1.942228,-4.59392 0.15301,-0.61042 -0.58209,0.51433 -0.58209,0.51433 0.171985,-0.44818 c 0.09459,-0.24651 0.248544,-0.45811 0.342115,-0.47024 0.09357,-0.0121 0.42651,-0.0509 0.739863,-0.0862 l 0.569732,-0.0641 -0.198126,0.53558 c -0.108969,0.29458 -0.326214,0.57829 -0.482767,0.63047 l -0.284642,0.0949 z m -2.056724,-1.15163 c -0.186654,-0.2249 -0.493732,-0.34968 -0.682396,-0.27728 l -0.343026,0.13163 0.266146,-0.58261 0.266146,-0.58262 0.781649,-0.0282 0.781649,-0.0282 -0.275233,0.33163 c -0.151377,0.1824 -0.538745,0.26813 -0.860816,0.19051 l -0.585585,-0.14112 0.541235,0.52524 c 0.297678,0.28888 0.714397,0.5934 0.926041,0.67671 l 0.384808,0.15148 -0.430624,0.0209 c -0.236844,0.0115 -0.583341,-0.16313 -0.769994,-0.38803 z m 23.702416,-0.89424 c -0.0837,-0.13543 0.08766,-0.32237 0.380818,-0.41542 0.293155,-0.093 0.771134,-0.0936 1.062175,-0.001 0.291042,0.0924 0.529167,0.29357 0.529167,0.44711 v 0.27915 l -0.379962,-0.31534 -0.379962,-0.31534 -0.530023,0.28365 -0.530022,0.28366 z m 2.879303,-8.47414 c 0,-0.27643 0.09876,-0.44156 0.219477,-0.36696 0.120712,0.0746 0.398273,-0.0127 0.616803,-0.19411 0.218529,-0.18136 0.32965,-0.50611 0.246936,-0.72166 l -0.150389,-0.3919 0.402931,0.3344 c 0.221613,0.18392 0.402932,0.43889 0.402932,0.56659 0,0.1277 -0.141154,0.23219 -0.313676,0.23219 -0.172522,0 -0.563728,0.23491 -0.869345,0.52202 l -0.555669,0.52202 z M 60.386201,98.631962 c -0.07518,-0.121647 -0.165791,-0.653221 -0.201354,-1.181274 -0.03556,-0.528054 0.01892,-1.04368 0.12108,-1.145837 0.102157,-0.102156 0.192767,-0.01707 0.201356,0.189087 0.0086,0.206155 0.04978,0.821311 0.09153,1.367014 0.04175,0.545703 0.04175,0.992188 -2e-6,0.992188 -0.04175,0 -0.137427,-0.09953 -0.21261,-0.221178 z M 59.309532,97.379338 58.800813,96.434704 59.175556,96.2031 c 0.206109,-0.127383 0.434275,-0.172073 0.507036,-0.09931 0.07276,0.07276 -0.04285,0.24488 -0.256921,0.382489 l -0.389213,0.250197 0.295069,0.198437 c 0.162287,0.109141 0.37867,0.466329 0.48085,0.79375 0.10218,0.327422 0.145303,0.595313 0.09583,0.595313 -0.04947,0 -0.318877,-0.425086 -0.598673,-0.944635 z M 59.9625,94.619806 c 0,-0.145521 0.0893,-0.272184 0.198438,-0.281473 0.10914,-0.0093 0.572622,-0.05397 1.029959,-0.0993 0.457336,-0.04532 0.993118,0.02884 1.190625,0.164817 l 0.359103,0.247224 -1.124479,-0.08877 c -0.618464,-0.04882 -1.124479,0.0037 -1.124479,0.116656 0,0.112986 -0.119063,0.20543 -0.264584,0.20543 -0.14552,0 -0.264583,-0.119063 -0.264583,-0.264584 z"
         id="path214" /><path
         style="fill:#85c144"
         d="m 63.617137,161.11913 0.611929,-0.13006 -0.08276,-2.75811 -0.08276,-2.7581 0.529166,0.005 0.529167,0.005 -0.320462,0.20365 -0.320462,0.20366 -0.07641,2.63656 -0.07641,2.63657 -0.661458,0.0433 -0.661459,0.0433 z M 41.970833,133.76984 v -0.52087 h 0.520863 0.520863 l -0.144445,0.37642 c -0.07944,0.20703 -0.313833,0.44142 -0.520863,0.52086 l -0.376418,0.14445 z m 38.89375,-2.68997 c 0,-0.11668 0.350161,-0.21215 0.778135,-0.21215 0.427975,0 0.844432,0.10727 0.925462,0.23838 0.08103,0.13111 -0.269131,0.22658 -0.778135,0.21215 -0.509004,-0.0144 -0.925462,-0.1217 -0.925462,-0.23838 z m 2.999033,-25.24826 c 0.703583,-0.21615 1.417958,-0.33632 1.5875,-0.26704 0.169543,0.0693 0.04037,0.13536 -0.287054,0.14685 -0.327421,0.0115 -0.595312,0.13995 -0.595312,0.28547 0,0.14552 -0.446484,0.25629 -0.992188,0.24615 l -0.992187,-0.0184 z"
         id="path213" /><path
         style="fill:#84bc49"
         d="m 72.566359,151.32363 -0.493016,-0.65894 0.302762,-0.57192 0.302762,-0.57192 -0.137491,0.47688 c -0.07562,0.26229 0.05589,0.77202 0.29224,1.13274 0.236352,0.36072 0.383837,0.70001 0.327745,0.75397 -0.05609,0.054 -0.323843,-0.1984 -0.595002,-0.56081 z m -0.790038,-8.40889 c -0.08197,-0.21362 -0.03518,-0.45877 0.103984,-0.54478 0.139166,-0.086 0.256649,-0.47678 0.261074,-0.86837 l 0.008,-0.71199 0.277437,0.47687 0.277438,0.47688 -0.315084,0.37965 c -0.173296,0.20881 -0.245969,0.55976 -0.161495,0.7799 0.08447,0.22013 0.051,0.40024 -0.07438,0.40024 -0.125385,0 -0.295042,-0.17478 -0.377016,-0.3884 z m 7.368471,-6.75535 -0.163522,-0.26458 h 0.624157 c 0.343286,0 0.767031,-0.14288 0.941656,-0.3175 0.174625,-0.17463 0.3175,-0.21752 0.3175,-0.0953 0,0.1222 -0.208359,0.38036 -0.463021,0.57367 -0.254661,0.19332 -0.604822,0.35527 -0.778135,0.3599 -0.173312,0.005 -0.388699,-0.11065 -0.478635,-0.25617 z m -37.634884,-3.19737 c 0.255814,-0.14897 0.583236,-0.19785 0.727604,-0.10863 0.144368,0.0892 0.262488,-0.009 0.262488,-0.21786 0,-0.20905 -0.181471,-0.5307 -0.403269,-0.71478 -0.221798,-0.18408 -0.356246,-0.38171 -0.298774,-0.43918 0.05747,-0.0575 0.410007,0.0347 0.783411,0.20484 l 0.678917,0.30934 -0.410572,0.62661 -0.410572,0.62661 -0.697175,-0.008 -0.697174,-0.008 z M 60.138889,98.941334 C 60.041875,98.84432 59.9625,98.495637 59.9625,98.166483 c 0,-0.329154 -0.192768,-0.79123 -0.428373,-1.026835 -0.235605,-0.235606 -0.384246,-0.4725 -0.330313,-0.526433 0.05393,-0.05393 0.289866,0.04219 0.524296,0.213611 0.23443,0.17142 0.478226,0.756998 0.541768,1.301284 0.06354,0.544287 0.09975,0.989613 0.08047,0.989613 -0.01929,0 -0.114441,-0.07937 -0.211455,-0.176389 z m 13.66041,-2.044925 c 0.0296,-0.63964 0.135627,-1.113496 0.235606,-1.053013 0.09998,0.06048 0.17524,0.583823 0.167247,1.16298 -0.008,0.579158 -0.114015,1.053014 -0.235605,1.053014 -0.12159,0 -0.196852,-0.523342 -0.167248,-1.162981 z"
         id="path212" /><path
         style="fill:#85be45"
         d="m 62.512653,161.4271 -0.152295,-0.39688 -0.735908,0.004 -0.735908,0.004 0.396875,0.25648 0.396875,0.25648 -0.315115,0.004 c -0.173312,0.002 -0.377778,-0.0973 -0.454367,-0.22127 -0.07659,-0.12392 -0.944084,-0.23478 -1.927766,-0.24635 l -1.788514,-0.021 -0.09482,-0.28446 c -0.05215,-0.15646 -0.233481,-0.20673 -0.402953,-0.11171 l -0.308131,0.17275 0.330729,-0.35631 c 0.181901,-0.19598 0.330729,-0.57282 0.330729,-0.83743 v -0.48111 l -1.312817,0.0465 -1.312818,0.0465 0.154122,0.24938 c 0.08477,0.13715 -0.09054,0.11843 -0.38958,-0.0416 -0.299036,-0.16004 -1.027779,-0.29098 -1.619429,-0.29098 h -1.075728 l -0.03133,-0.46302 c -0.01723,-0.25466 -0.01236,-0.56692 0.01082,-0.69392 0.02318,-0.12699 -0.138162,-0.1617 -0.358545,-0.0771 -0.220384,0.0846 -0.493144,0.01 -0.606133,-0.16598 -0.112989,-0.17586 -0.421979,-0.33764 -0.686645,-0.35952 l -0.481211,-0.0398 0.166157,0.43665 0.166157,0.43666 -0.333176,-0.33073 c -0.183246,-0.1819 -0.510713,-0.33073 -0.727703,-0.33073 h -0.394528 l 0.51359,0.40118 0.513591,0.40117 -0.719308,-0.30757 c -0.395619,-0.16917 -0.644891,-0.42798 -0.553939,-0.57515 l 0.165369,-0.26757 -0.552345,0.14444 -0.552345,0.14444 -0.547362,-0.50994 c -0.301049,-0.28047 -0.547362,-0.74343 -0.547362,-1.02881 v -0.51886 l -0.463021,0.004 -0.46302,0.004 0.353095,0.22382 0.353096,0.22383 -0.485387,0.12593 c -0.266963,0.0693 -0.634958,0.0756 -0.817765,0.0141 -0.182808,-0.0615 -0.265078,-0.22072 -0.182823,-0.35381 0.08225,-0.13309 0.02052,-0.24199 -0.137192,-0.24199 -0.157711,0 -0.399915,-0.29765 -0.538233,-0.66145 -0.138317,-0.36381 -0.433026,-0.66146 -0.654909,-0.66146 -0.221883,0 -0.403424,-0.11907 -0.403424,-0.26459 0,-0.14552 -0.126089,-0.26458 -0.280198,-0.26458 -0.154109,0 -0.201181,0.12785 -0.104605,0.28412 l 0.175593,0.28411 -0.490707,-0.2648 c -0.26989,-0.14564 -0.676971,-0.32081 -0.904625,-0.38926 l -0.413918,-0.12446 0.05881,-0.84943 0.05881,-0.84943 -0.27266,0.27265 -0.272659,0.27266 -0.629002,-0.28659 c -0.345951,-0.15763 -0.629002,-0.4531 -0.629002,-0.65661 v -0.37002 l -0.330729,0.18672 -0.330729,0.18672 0.330729,-0.35631 c 0.181901,-0.19598 0.330729,-0.45905 0.330729,-0.58462 0,-0.12556 -0.256823,-0.19105 -0.570718,-0.14552 l -0.570719,0.0828 -0.110883,-0.39688 -0.110882,-0.39687 0.280675,0.39687 c 0.154371,0.21829 0.291345,0.27782 0.304387,0.1323 0.01304,-0.14553 0.07476,-0.53973 0.137141,-0.87601 l 0.113429,-0.61142 -0.247099,0.15272 c -0.135905,0.084 -0.329741,0.019 -0.430746,-0.14443 l -0.183647,-0.29715 -0.227459,0.35898 -0.227459,0.35897 -0.02959,-0.52916 c -0.01628,-0.29105 -0.02468,-1.09176 -0.01868,-1.77937 0.006,-0.6876 -0.103508,-1.32091 -0.243358,-1.40734 -0.139851,-0.0864 -0.185774,-0.26799 -0.102052,-0.40345 0.08372,-0.13547 0.02613,-0.2463 -0.127976,-0.2463 -0.154109,0 -0.280198,0.1318 -0.280198,0.29289 0,0.16109 -0.178594,0.22436 -0.396875,0.14059 -0.218281,-0.0838 -0.396875,-0.037 -0.396875,0.10399 0,0.14095 0.119062,0.25628 0.264583,0.25628 0.145521,0 0.26385,0.26789 0.262954,0.59531 l -0.0016,0.59531 -0.385136,-0.73836 c -0.211824,-0.4061 -0.411079,-1.12047 -0.442789,-1.5875 -0.03171,-0.46703 -0.03626,-1.41468 -0.01011,-2.10591 l 0.04754,-1.25677 h 0.661458 c 0.363802,0 0.661458,-0.11223 0.661458,-0.24939 0,-0.13717 -0.238125,-0.20353 -0.529166,-0.14748 l -0.529167,0.1019 v -0.39729 -0.3973 l 0.302945,0.18723 0.302945,0.18723 -0.13517,-0.7071 c -0.07434,-0.3889 -0.02913,-0.77264 0.100485,-0.85274 0.129611,-0.0801 0.218606,-0.0475 0.197768,0.0725 -0.02084,0.11996 -0.02379,0.51151 -0.0066,0.87011 l 0.03133,0.65201 0.451682,-0.45168 0.451681,-0.45168 -0.31939,-0.31939 c -0.175664,-0.17566 -0.311021,-0.50394 -0.300793,-0.72949 l 0.0186,-0.41011 0.248829,0.52917 0.24883,0.52917 -0.143253,-0.97156 c -0.07879,-0.53436 -0.02876,-1.04231 0.111167,-1.12879 0.139931,-0.0865 0.330405,-0.0343 0.423276,0.11597 0.09287,0.15027 0.268947,0.21136 0.391281,0.13575 0.122333,-0.0756 0.418605,-0.0622 0.658382,0.0298 l 0.435957,0.16729 -0.147443,0.38423 c -0.08109,0.21133 0.04398,0.64245 0.277932,0.95804 l 0.425375,0.57382 -0.171451,-0.74977 -0.171451,-0.74978 0.293857,0.18162 0.293857,0.18161 -0.165123,1.09733 c -0.09082,0.60353 -0.235133,1.45451 -0.3207,1.89107 l -0.155577,0.79375 -0.208277,-0.52916 -0.208277,-0.52917 0.04729,1.05322 0.04729,1.05322 0.719544,0.71592 0.719544,0.71592 -0.719544,0.10945 -0.719544,0.10944 0.859895,0.0396 0.859896,0.0396 0.0041,0.33073 0.0041,0.33073 0.285491,-0.39688 0.28549,-0.39687 -0.187268,0.52916 c -0.102997,0.29104 -0.235735,0.76729 -0.294973,1.05834 l -0.107704,0.52916 0.251418,-0.52916 0.251417,-0.52917 0.0186,0.46302 c 0.01023,0.25466 0.107893,0.44892 0.217033,0.43169 0.109141,-0.0172 0.406797,-0.0172 0.661459,0 0.254661,0.0172 0.463021,0.21695 0.463021,0.44382 v 0.41249 l 0.330729,-0.1987 0.330729,-0.19869 -0.363126,0.44766 -0.363126,0.44767 0.495418,0.0186 0.495417,0.0186 -0.529166,0.22739 -0.529167,0.22739 0.992187,0.0186 0.992188,0.0186 0.0186,0.72761 0.0186,0.7276 0.200345,-0.5116 0.200346,-0.51161 0.180365,0.29184 c 0.0992,0.16051 -0.0044,0.47659 -0.230208,0.70241 l -0.410572,0.41057 0.94699,-0.0356 c 0.520844,-0.0196 1.069946,0.0874 1.220226,0.23764 0.15028,0.15028 0.315407,0.49715 0.366949,0.77083 0.05154,0.27368 0.104645,0.55714 0.118007,0.6299 0.01336,0.0728 0.127765,-0.031 0.254227,-0.23069 l 0.229932,-0.36298 0.758204,0.29842 0.758204,0.29841 -0.79375,-0.13751 -0.79375,-0.13751 0.440944,0.26901 c 0.242519,0.14796 0.659238,0.24979 0.926042,0.2263 0.266804,-0.0235 1.050645,-0.0238 1.741869,-7.9e-4 l 1.25677,0.0419 v 0.79375 c 0,0.43656 0.104484,0.79375 0.232187,0.79375 0.127702,0 0.380406,-0.17859 0.561563,-0.39687 0.181158,-0.21829 0.523158,-0.38851 0.760001,-0.37828 l 0.430624,0.0186 -0.529166,0.22739 -0.529167,0.22739 0.79375,0.0534 0.79375,0.0534 -0.926042,0.19871 -0.926041,0.19871 1.817454,-0.0585 c 0.9996,-0.0322 2.100928,-0.004 2.447396,0.0619 0.346468,0.0662 0.629941,0.29036 0.629941,0.49805 0,0.2077 0.148828,0.3583 0.330729,0.33468 0.181902,-0.0236 0.628386,-0.0119 0.992188,0.0259 l 0.661458,0.0689 -1.058333,0.18949 -1.058333,0.18949 0.838256,0.0375 c 0.461041,0.0206 1.046119,0.11732 1.300174,0.21481 l 0.461918,0.17725 -0.19131,-0.30955 c -0.10522,-0.17025 -0.116247,-0.30954 -0.0245,-0.30954 0.09174,0 0.35995,0.19314 0.596016,0.42921 l 0.429212,0.42921 1.491996,-0.15594 c 0.820597,-0.0858 1.676584,-0.22678 1.902193,-0.31336 l 0.410198,-0.1574 0.04347,2.92685 0.04347,2.92684 -0.872417,0.008 -0.872418,0.008 0.51359,0.38846 0.513591,0.38846 h -0.419137 c -0.230526,0 -0.487671,-0.17859 -0.571433,-0.39687 z m 1.925715,0.28769 c -0.06063,-0.06 -0.07305,-1.42926 -0.02759,-3.0427 0.04546,-1.61344 0.194286,-2.93353 0.330729,-2.93353 h 0.248077 v 3.04271 c 0,1.67349 -0.09922,3.0427 -0.220486,3.0427 -0.121267,0 -0.270095,-0.0491 -0.33073,-0.10918 z m 6.640684,-16.36113 c 0.0022,-0.61846 0.119467,-1.30307 0.260531,-1.52135 0.141065,-0.21828 0.267468,-0.33735 0.280896,-0.26459 0.01343,0.0728 0.0588,0.54901 0.100833,1.05834 0.04203,0.50932 0.02484,1.1344 -0.03819,1.38906 -0.06304,0.25466 -0.22565,0.46302 -0.361364,0.46302 -0.135715,0 -0.244931,-0.50602 -0.242702,-1.12448 z m 0.181104,-2.59026 c -0.07677,-0.29358 -0.298669,-0.5006 -0.493101,-0.46004 -0.194432,0.0406 -0.325542,-0.0697 -0.291355,-0.24503 0.03419,-0.17532 -0.287645,-0.70175 -0.715182,-1.16984 -0.427537,-0.46809 -0.696427,-0.97949 -0.597532,-1.13644 l 0.179808,-0.28537 0.09175,0.46302 c 0.05047,0.25466 0.17232,0.46302 0.270791,0.46302 0.09847,0 0.179037,-0.30086 0.179037,-0.66857 v -0.66858 l -1.680012,0.0462 -1.680013,0.0462 -0.235437,-0.36982 c -0.129491,-0.20341 -0.180894,-0.51866 -0.114229,-0.70056 0.06666,-0.1819 -0.05365,-0.33073 -0.267363,-0.33073 -0.213714,0 -0.388571,-0.11906 -0.388571,-0.26458 0,-0.14552 -0.267891,-0.26641 -0.595312,-0.26864 -0.327422,-0.002 -0.758426,-0.10738 -0.957786,-0.23367 l -0.362473,-0.22962 0.494764,-0.31547 0.494765,-0.31547 -0.449546,0.13879 -0.449546,0.13879 0.146541,-0.38188 c 0.0806,-0.21003 0.271524,-0.30463 0.424281,-0.21022 l 0.277739,0.17165 -0.199439,-0.3227 -0.199439,-0.3227 -0.547764,0.48026 -0.547763,0.48025 0.172409,-0.47229 0.172409,-0.47229 -0.590566,0.0504 c -0.324811,0.0277 -0.917988,0.0319 -1.31817,0.009 l -0.727604,-0.0411 v -1.60311 -1.60312 l -0.330729,0.18682 c -0.181901,0.10275 -0.06782,-0.0688 0.25352,-0.38126 0.321337,-0.31244 0.767822,-0.56808 0.992188,-0.56808 0.224366,0 0.407938,0.10029 0.407938,0.22287 0,0.12258 0.496136,0.21188 1.102525,0.19844 l 1.102525,-0.0244 0.110148,-0.33073 c 0.06058,-0.18191 -0.06844,-0.33073 -0.286726,-0.33073 -0.218281,0 -0.436563,0.11524 -0.48507,0.2561 l -0.08819,0.25611 -0.396875,-0.24819 -0.396875,-0.24819 0.813777,-0.16406 0.813778,-0.16405 0.0362,-1.37584 0.0362,-1.37584 -0.836114,-0.0637 c -0.459863,-0.035 -0.887,-0.11459 -0.949195,-0.17679 -0.06219,-0.0622 -0.113081,-0.41787 -0.113081,-0.79039 0,-0.37252 -0.122575,-0.75306 -0.27239,-0.84565 l -0.272391,-0.16835 0.206306,0.33381 0.206305,0.33381 -0.595434,-0.18898 -0.595434,-0.18898 0.179168,0.28989 0.179167,0.2899 -0.402251,-0.15436 c -0.221239,-0.0849 -0.37625,-0.28648 -0.344471,-0.44796 0.03178,-0.16148 -0.08113,-0.29902 -0.250901,-0.30563 -0.169774,-0.007 -0.397977,-0.10133 -0.507118,-0.21047 -0.109141,-0.10914 -0.06327,-0.19843 0.101939,-0.19843 h 0.300377 l -0.168951,-0.44028 -0.168951,-0.44028 0.309547,0.19131 c 0.17025,0.10522 0.309546,0.066 0.309546,-0.0872 0,-0.15319 -0.267891,-0.2286 -0.595312,-0.16757 -0.327422,0.061 -0.691637,0.11982 -0.809365,0.13064 -0.117729,0.0108 -0.140468,0.13872 -0.05053,0.28424 0.08994,0.14552 0.02751,0.26458 -0.138726,0.26458 -0.166235,0 -0.24833,-0.14882 -0.182431,-0.33073 0.0659,-0.1819 -0.07301,-0.55955 -0.308681,-0.83923 -0.235672,-0.27967 -0.279668,-0.42147 -0.09777,-0.31511 0.181902,0.10636 0.33073,0.0772 0.33073,-0.0648 0,-0.14199 -0.148828,-0.31821 -0.33073,-0.3916 l -0.330729,-0.13346 0.330729,-0.0209 c 0.181902,-0.0115 0.328906,-0.22924 0.326678,-0.4839 l -0.0041,-0.46302 -0.194386,0.26787 c -0.106913,0.14733 -0.521808,0.28356 -0.92199,0.30274 l -0.727605,0.0349 -0.02637,-1.22878 -0.02637,-1.22878 -0.211836,0.66146 -0.211836,0.66146 -0.02637,-0.72761 c -0.0145,-0.40018 0.09269,-0.7276 0.23821,-0.7276 0.145521,0 0.264583,-0.29766 0.264583,-0.66146 v -0.66146 h 0.926042 0.926042 v 0.54478 0.54479 l 0.282392,-0.17453 c 0.155496,-0.0961 0.347702,0.0752 0.427733,0.38126 l 0.145342,0.55579 h 0.498308 c 0.274069,0 0.498308,-0.11907 0.498308,-0.26459 0,-0.14552 0.126089,-0.26458 0.280198,-0.26458 0.154109,0 0.210892,0.11214 0.126184,0.2492 l -0.154015,0.2492 0.733712,-0.0557 0.733713,-0.0557 0.07768,-2.06837 0.07769,-2.06837 -0.321085,0.19844 -0.321085,0.19844 0.177254,-0.44027 c 0.09749,-0.24216 0.237909,-0.58911 0.312042,-0.77101 l 0.134786,-0.33073 -0.922618,-0.0313 -0.922618,-0.0313 0.167253,0.27062 0.167254,0.27062 -0.309779,-0.19145 c -0.170379,-0.1053 -0.24128,-0.30229 -0.157558,-0.43776 0.08372,-0.13546 -0.0048,-0.2463 -0.196622,-0.2463 -0.191865,0 -0.494806,-0.23372 -0.673202,-0.51937 l -0.324356,-0.51938 0.350613,0.13454 c 0.192837,0.074 0.487363,-0.0302 0.654501,-0.23162 l 0.303887,-0.36616 -0.933844,-0.0351 c -0.513614,-0.0193 -0.874651,0.0607 -0.802303,0.17773 0.07235,0.11706 -0.03658,0.21284 -0.242056,0.21284 -0.205479,0 -0.312277,-0.0992 -0.23733,-0.22049 0.07495,-0.12127 -0.04935,-0.22049 -0.276222,-0.22049 -0.226869,0 -0.41249,0.12757 -0.41249,0.28349 0,0.15591 -0.175845,0.10763 -0.390766,-0.10729 -0.214922,-0.21492 -0.418214,-0.75097 -0.45176,-1.19123 -0.03355,-0.44025 -0.125592,-0.79459 -0.204546,-0.78742 -0.07895,0.007 -0.470975,-0.001 -0.871157,-0.0183 L 55.2,111.55314 55.1959,110.03179 c -0.0022,-0.83675 -0.117916,-1.69995 -0.257084,-1.91823 l -0.253033,-0.39688 0.146705,1.05833 0.146705,1.05834 -0.254467,-0.36067 -0.254468,-0.36067 -0.155681,0.36067 c -0.08563,0.19837 -0.08679,-0.0858 -0.0026,-0.63152 l 0.153099,-0.99219 h -0.573825 -0.573825 l 0.08136,-1.12448 c 0.04475,-0.61846 0.200421,-1.14049 0.345942,-1.16007 0.14552,-0.0196 0.5197,-0.11942 0.83151,-0.22187 l 0.566926,-0.18628 0.149684,-0.74842 0.149684,-0.74842 0.592137,0.15485 0.592138,0.15485 -0.514998,0.22213 -0.514998,0.22214 0.813134,-0.0816 0.813134,-0.0816 -0.109081,0.57062 -0.109081,0.57062 1.087239,0.43503 c 0.597981,0.23926 1.449973,0.43502 1.893316,0.43502 h 0.806078 l -0.103254,-2.18281 c -0.05679,-1.20055 -0.204043,-2.4107 -0.327229,-2.68924 l -0.223974,-0.50642 0.309547,0.19131 0.309546,0.19131 -0.0313,-1.0078 -0.0313,-1.007805 -0.201975,0.793745 -0.201975,0.79375 -0.03131,-0.859891 c -0.01722,-0.472943 0.07264,-0.859896 0.199687,-0.859896 0.127045,0 0.201152,-0.565547 0.164684,-1.256771 -0.03647,-0.691224 -0.08467,-1.375833 -0.107114,-1.521354 -0.02244,-0.145521 -0.231632,-0.02646 -0.464862,0.264583 l -0.424055,0.529167 0.197904,-0.529167 c 0.108848,-0.291041 0.263931,-0.760915 0.34463,-1.044164 l 0.146724,-0.514998 0.201536,0.514998 0.201536,0.514998 0.0186,-0.463021 0.0186,-0.463021 H 61.55 62.34375 l 0.0041,-0.330729 0.0041,-0.330729 0.230951,0.364626 c 0.127022,0.200544 0.365266,0.281614 0.529431,0.180155 0.164164,-0.101459 0.242244,-0.275463 0.173511,-0.386675 -0.06873,-0.111212 0.03704,-0.202204 0.235042,-0.202204 0.198006,0 0.299093,0.15875 0.224637,0.352778 l -0.135373,0.352778 h 1.218932 c 0.670413,0 1.218933,-0.119063 1.218933,-0.264583 0,-0.145521 -0.02977,-0.311615 -0.06615,-0.369097 -0.03638,-0.05748 0.160667,-0.355139 0.437882,-0.661459 0.277215,-0.306319 0.678747,-0.556944 0.892293,-0.556944 h 0.388264 l -0.363126,-0.447664 -0.363126,-0.447664 0.317454,0.190491 0.317455,0.190491 0.278626,-0.520619 c 0.153245,-0.28634 0.240386,-1.00405 0.193647,-1.594911 l -0.08498,-1.074291 0.679525,-0.0041 c 0.373738,-0.0022 0.812494,-0.09153 0.975012,-0.198437 0.162518,-0.106913 0.28158,-0.492042 0.264583,-0.855845 l -0.0309,-0.661458 0.717657,-0.0121 c 0.394712,-0.0067 0.790627,-0.08507 0.879812,-0.174256 0.08919,-0.08919 0.531774,-0.05615 0.983532,0.07341 0.451757,0.129563 0.904452,0.369986 1.005988,0.534275 0.101536,0.164288 0.125786,0.523651 0.05389,0.798584 l -0.130721,0.499878 h 0.9569 0.9569 l 0.02219,1.389062 c 0.0122,0.763985 0.04197,2.014179 0.06615,2.778211 l 0.04396,1.389147 -0.491328,-8.5e-5 -0.491329,-8.5e-5 0.16359,0.426309 0.16359,0.426308 -0.632251,-0.158685 -0.632252,-0.158685 0.01121,2.389421 c 0.0062,1.314181 0.110738,2.450928 0.232386,2.526118 0.121648,0.0752 0.221178,-0.28003 0.221178,-0.789348 0,-0.509323 0.09149,-0.982584 0.203307,-1.051692 0.111818,-0.06911 0.158055,0.348856 0.102747,0.92881 l -0.100558,1.05446 0.492564,-0.0845 0.492565,-0.0845 0.08828,0.79375 c 0.04855,0.43656 0.283339,1.01092 0.521742,1.27635 l 0.43346,0.48259 -0.373736,-0.0857 -0.373737,-0.0857 -0.09608,0.52917 -0.09608,0.52916 0.274755,-0.39687 0.274755,-0.39688 0.0041,0.33073 c 0.0022,0.1819 0.28713,0.33073 0.633114,0.33073 0.345983,0 0.792468,0.20145 0.992187,0.44767 l 0.363126,0.44766 -0.330729,-0.19869 -0.330729,-0.1987 v 0.94166 c 0,0.51791 0.126089,0.94165 0.280198,0.94165 0.154109,0 0.212898,-0.10889 0.130643,-0.24198 -0.08226,-0.13309 1.5e-5,-0.30229 0.182823,-0.37599 l 0.332377,-0.134 -0.330729,-0.0209 c -0.182062,-0.0115 -0.33089,-0.13117 -0.33089,-0.26588 0,-0.13472 0.465824,-0.046 1.035164,0.19714 l 1.035163,0.44208 -0.307559,0.19568 -0.30756,0.19568 0.463021,0.004 c 0.254662,0.002 0.463021,-0.10447 0.463021,-0.23712 0,-0.13264 0.148828,-0.21859 0.330729,-0.191 0.181901,0.0276 0.461225,0.13182 0.62072,0.23161 0.159494,0.0998 1.191622,0.15341 2.293617,0.11916 l 2.003627,-0.0623 0.570227,-0.51604 0.570227,-0.51605 -0.08572,0.38945 c -0.04715,0.2142 -0.204782,0.47692 -0.350303,0.58383 l -0.264583,0.19439 0.284608,0.004 c 0.156535,0.002 0.564242,-0.2936 0.906017,-0.65741 0.341774,-0.3638 0.779247,-0.66145 0.972162,-0.66145 0.192915,0 0.350754,-0.23813 0.350754,-0.52917 0,-0.29104 0.09399,-0.52917 0.208868,-0.52917 0.114877,0 0.204174,0.32742 0.198437,0.72761 l -0.01043,0.7276 0.33073,-0.0661 c 0.181901,-0.0364 0.330729,0.10871 0.330729,0.32242 v 0.38857 l -0.396875,-0.15229 -0.396875,-0.1523 v 0.71807 0.71808 l 0.396875,-0.1523 c 0.218281,-0.0838 0.396875,-0.037 0.396875,0.10399 0,0.14095 -0.09894,0.25628 -0.219874,0.25628 -0.120931,0 -0.377003,0.29359 -0.569049,0.65244 l -0.349175,0.65243 0.370611,0.45669 0.370612,0.45668 -0.330729,-0.19869 c -0.181902,-0.10929 -0.328906,-0.10238 -0.326678,0.0153 0.0022,0.11773 0.113164,0.38653 0.246525,0.59733 l 0.242473,0.38327 -0.657031,0.60891 c -0.361368,0.33491 -0.821948,0.60892 -1.023512,0.60892 H 86.45436 l -0.08291,0.8599 -0.08291,0.85989 -1.984375,0.15077 c -1.091407,0.0829 -1.74625,0.17405 -1.455209,0.20249 l 0.529167,0.0517 -0.365061,0.23122 -0.365062,0.23122 0.12251,0.83471 c 0.06738,0.45909 0.0049,0.9074 -0.13884,0.99623 -0.143742,0.0888 -0.184106,0.0365 -0.0897,-0.11621 0.09441,-0.15276 -0.0233,-0.35255 -0.261572,-0.44399 -0.238274,-0.0914 -0.495559,-0.10391 -0.571745,-0.0277 -0.07618,0.0762 0.02023,0.13852 0.214259,0.13852 0.194027,0 0.27628,0.0765 0.182782,0.16999 -0.0935,0.0935 -0.354343,0.017 -0.579657,-0.16999 -0.225315,-0.18699 -0.474567,-0.27509 -0.553893,-0.19576 -0.07933,0.0793 0.0079,0.3879 0.193929,0.68571 l 0.33816,0.54148 0.384138,-0.31728 0.384137,-0.31728 -0.367068,0.58945 -0.367069,0.58944 -0.288973,-0.53995 -0.288973,-0.53995 -0.06146,2.39653 -0.06146,2.39653 1.060948,-0.0416 c 0.58352,-0.0229 1.001716,-0.13741 0.929323,-0.25455 -0.07239,-0.11713 -0.484194,-0.14245 -0.915114,-0.0563 l -0.783491,0.1567 v -0.26763 c 0,-0.14719 0.346858,-0.31853 0.770797,-0.38075 l 0.770796,-0.11313 0.345946,0.47997 c 0.19027,0.26399 0.624934,0.47998 0.96592,0.47998 h 0.619975 l -0.08307,-0.8599 -0.08307,-0.8599 0.79375,-0.0778 0.79375,-0.0778 0.529167,0.42815 c 0.291042,0.23549 0.371191,0.34711 0.17811,0.24806 l -0.351056,-0.18009 0.129537,0.82193 c 0.07125,0.45206 0.02086,0.82193 -0.111964,0.82193 -0.132826,0 -0.241502,0.19133 -0.241502,0.42518 v 0.42518 l 0.396875,-0.15229 c 0.218281,-0.0838 0.396875,-0.0437 0.396875,0.089 0,0.1327 -0.237368,0.40754 -0.527484,0.61074 -0.290115,0.20321 -0.465832,0.43112 -0.390481,0.50647 0.07535,0.0754 -0.04719,0.28987 -0.272323,0.47671 l -0.409326,0.33971 0.183213,-0.50044 0.183213,-0.50045 -0.574031,0.50403 c -0.315717,0.27722 -0.574031,0.61166 -0.574031,0.74322 0,0.13155 0.148828,0.1638 0.330729,0.0717 0.181901,-0.0921 0.124221,0.002 -0.128179,0.20899 -0.252399,0.20708 -0.375091,0.46032 -0.272648,0.56277 0.102443,0.10244 -0.01847,0.1077 -0.268696,0.0117 -0.250226,-0.096 -0.456779,-0.31067 -0.459008,-0.477 -0.0022,-0.16633 -0.12129,-0.12383 -0.264583,0.0944 l -0.260532,0.39688 -0.260531,-0.39688 -0.260532,-0.39687 -0.03452,0.52917 c -0.01899,0.29104 -0.01333,0.73752 0.01258,0.99218 0.0259,0.25466 -0.08647,0.46302 -0.24973,0.46302 h -0.29683 l 0.198696,0.33073 0.198695,0.33073 -0.490691,-0.39687 -0.49069,-0.39688 -0.111863,0.33238 c -0.06153,0.18281 -0.220757,0.26508 -0.353848,0.18282 -0.133092,-0.0823 -0.241986,0.0361 -0.241986,0.26294 0,0.22687 -0.235424,0.64791 -0.523165,0.93565 -0.287741,0.28774 -0.686919,0.46033 -0.887063,0.38353 l -0.363897,-0.13964 -0.05231,1.97644 -0.05231,1.97644 0.608646,-0.15692 c 0.334755,-0.0863 0.766302,-0.34462 0.958995,-0.57403 0.192692,-0.22941 0.274963,-0.26828 0.182823,-0.0864 l -0.167528,0.33073 h 1.017252 1.017252 l 0.0551,0.59531 c 0.0303,0.32742 0.06239,1.03523 0.0713,1.5729 l 0.0162,0.97759 -0.477621,0.47762 -0.477622,0.47762 -1.389649,-0.0636 -1.389649,-0.0636 0.03793,0.72507 c 0.02086,0.3988 0.02113,0.86642 5.87e-4,1.03917 l -0.03734,0.3141 -0.909252,-0.14755 -0.909253,-0.14755 0.02358,0.82937 c 0.01297,0.45615 -0.05832,0.91127 -0.158431,1.01138 -0.100107,0.10011 -0.624289,0.15647 -1.16485,0.12525 l -0.982837,-0.0568 0.396875,0.26385 0.396875,0.26385 -0.447406,0.004 c -0.246073,0.002 -0.52099,-0.11501 -0.610927,-0.26053 -0.08994,-0.14552 -0.424385,-0.25621 -0.743219,-0.24599 l -0.579698,0.0186 0.509822,0.19972 0.509822,0.19972 -0.471128,0.18079 -0.471127,0.18079 0.144016,0.3753 c 0.07921,0.20641 -0.0087,0.50203 -0.19533,0.65693 -0.18664,0.1549 -0.417688,0.20329 -0.51344,0.10754 -0.09575,-0.0958 -0.175916,-0.005 -0.178145,0.20073 l -0.0041,0.37483 -0.25648,-0.39688 -0.256481,-0.39687 -0.0041,0.71199 c -0.0022,0.39159 -0.125056,0.78677 -0.272951,0.87818 -0.147894,0.0914 -0.205484,0.26879 -0.127976,0.3942 0.07751,0.12541 0.03346,0.29444 -0.09789,0.37562 -0.13135,0.0812 -0.301633,-0.0926 -0.378407,-0.38619 z m 0.564998,-1.21809 -0.09322,-0.49113 -0.791488,-0.0577 c -0.435318,-0.0317 -0.64266,0.008 -0.460759,0.0882 0.181902,0.0802 0.33073,0.26007 0.33073,0.3996 0,0.13954 0.148828,0.41732 0.330729,0.61729 0.181901,0.19997 0.431192,0.26713 0.553979,0.14923 0.122788,-0.1179 0.181301,-0.43536 0.130029,-0.70548 z m -32.708578,-4.26477 c -0.176408,-0.0588 -0.322566,-0.36488 -0.324794,-0.68018 l -0.0041,-0.57326 -0.25648,0.39687 -0.25648,0.39688 -0.0041,-0.74322 c -0.0022,-0.40877 0.102535,-0.67735 0.232808,-0.59683 0.130272,0.0805 0.305129,-0.0315 0.388571,-0.24897 0.08344,-0.21745 0.283016,-0.39536 0.443498,-0.39536 0.160482,0 0.470569,0.17879 0.689082,0.3973 0.218513,0.21851 0.440896,0.7418 0.494184,1.16286 l 0.09689,0.76555 -0.589214,0.11264 c -0.324068,0.0619 -0.733549,0.0645 -0.909958,0.006 z m 1.531341,-2.16387 c 0,-0.15411 -0.148828,-0.25043 -0.330729,-0.21405 l -0.33073,0.0661 -0.01463,-0.79375 c -0.008,-0.43657 0.03232,-0.88883 0.0897,-1.00504 0.05738,-0.11621 0.295183,-0.0567 0.528443,0.13229 l 0.424109,0.34358 -0.198696,-0.33073 c -0.109282,-0.1819 -0.132137,-0.33073 -0.05079,-0.33073 0.08135,0 0.376826,0.22892 0.656616,0.50871 l 0.50871,0.50871 -0.367945,0.14119 c -0.202369,0.0777 -0.438315,0.0273 -0.524324,-0.11183 -0.08601,-0.13917 -0.268416,-0.25303 -0.405348,-0.25303 -0.136933,0 -0.247145,0.20836 -0.244917,0.46302 l 0.0041,0.46302 0.256481,-0.39687 c 0.141064,-0.21828 0.267413,-0.33735 0.280775,-0.26459 0.01336,0.0728 0.06411,0.34018 0.112778,0.59427 0.04866,0.25408 -0.01998,0.529 -0.152536,0.61092 -0.132559,0.0819 -0.241017,0.0229 -0.241017,-0.13124 z m 3.878022,-3.25786 0.177535,-0.28726 -0.393121,0.15085 -0.393121,0.15086 -0.313983,-0.50277 -0.313983,-0.50277 h 0.266825 c 0.146754,0 0.266826,0.12609 0.266826,0.2802 0,0.15411 0.130274,0.19969 0.289499,0.10128 0.159224,-0.0984 0.235955,-0.45902 0.170512,-0.80136 l -0.118986,-0.62244 0.254561,0.15733 c 0.140009,0.0865 0.718122,0.004 1.284696,-0.18265 0.566574,-0.18698 1.030134,-0.45456 1.030134,-0.5946 0,-0.14005 0.18364,-0.10223 0.408089,0.0841 l 0.408088,0.33868 0.306287,-0.30628 0.306286,-0.30629 h -0.292729 c -0.161002,0 -0.232902,-0.22878 -0.159779,-0.50841 l 0.132951,-0.5084 0.702174,0.0933 c 0.386196,0.0513 0.791472,0.1015 0.900612,0.11153 0.109141,0.01 0.198438,0.37542 0.198438,0.81198 v 0.79375 l -0.330729,0.03 c -0.181901,0.0165 -0.718839,0.026 -1.193195,0.0211 -0.474356,-0.005 -0.794751,0.1007 -0.711989,0.23461 0.08276,0.13391 0.01165,0.24348 -0.15803,0.24348 -0.169678,0 -0.239972,-0.1786 -0.15621,-0.39688 0.08376,-0.21828 0.04547,-0.39687 -0.08508,-0.39687 -0.13056,0 -0.424479,0.1871 -0.653155,0.41577 -0.228675,0.22868 -0.415774,0.67882 -0.415774,1.00033 v 0.58455 l -0.79559,0.3003 -0.79559,0.3003 z m 7.895936,-3.89588 c -0.582083,-0.0861 -1.196992,-0.24233 -1.366464,-0.34728 -0.169472,-0.10494 -0.352596,-0.0574 -0.406942,0.10563 -0.05435,0.16303 -0.299505,0.25307 -0.544798,0.20008 l -0.445987,-0.0963 0.227526,-0.36381 c 0.125139,-0.20009 0.538722,-0.3638 0.919074,-0.3638 h 0.691549 v -0.3873 -0.3873 l 1.59097,0.0896 1.590969,0.0896 -0.13273,-0.34447 -0.132731,-0.34447 0.280094,0.1731 c 0.154052,0.0952 0.373355,0.42522 0.487339,0.73335 l 0.207245,0.56023 -0.556515,0.28679 c -0.306084,0.15774 -0.735109,0.34664 -0.953391,0.41978 -0.218281,0.0731 -0.873125,0.0626 -1.455208,-0.0235 z"
         id="path211" /><path
         style="fill:#86c23d"
         d="m 65.08747,158.38439 c 0,-1.52797 0.04373,-2.15305 0.09718,-1.38906 0.05345,0.76398 0.05345,2.01414 0,2.77812 -0.05345,0.76399 -0.09718,0.13891 -0.09718,-1.38906 z"
         id="path210" /><path
         style="fill:#529337"
         d="m 78.506075,100.62346 c -0.01251,-0.26325 -0.112039,-0.4235 -0.221179,-0.35612 -0.109141,0.0674 -0.215984,-0.16976 -0.237431,-0.526984 l -0.03899,-0.649505 0.361308,0.476457 0.361307,0.476452 0.0084,-0.374822 c 0.0046,-0.206154 0.06401,-0.319232 0.131957,-0.251283 0.06795,0.06795 0.01865,0.474745 -0.10955,0.903995 l -0.233092,0.78045 z"
         id="path209" /><path
         style="fill:#518c38"
         d="m 81.12905,94.55366 c 6.4e-5,-0.10914 0.555742,-0.198437 1.234839,-0.198437 0.679097,0 1.16331,0.07141 1.076028,0.158694 -0.08728,0.08728 -0.642959,0.176578 -1.234838,0.198437 -0.59188,0.02186 -1.076093,-0.04955 -1.076029,-0.158694 z m 6.260388,-11.09417 0.571731,-0.276586 0.751186,0.273604 0.751187,0.273605 -1.322917,0.003 -1.322917,0.003 z"
         id="path208" /><path
         style="fill:#4d9132"
         d="m 86.049962,100.26437 c 0.09873,-0.412374 0.349205,-1.047428 0.556614,-1.41123 l 0.377107,-0.661459 -0.167662,0.529167 c -0.09221,0.291042 -0.234234,0.859066 -0.315599,1.262277 -0.08137,0.403215 -0.256393,0.800135 -0.388951,0.882065 l -0.241014,0.14895 z m 9.127952,-11.100186 c 0.135471,-0.162936 0.862092,-0.310121 1.614713,-0.327077 l 1.368401,-0.03083 -0.247701,0.23654 c -0.136236,0.130097 -0.862857,0.277281 -1.614713,0.327077 l -1.367011,0.09054 z"
         id="path207" /><path
         style="fill:#4d8d33"
         d="m 82.609766,102.66036 c -0.07759,-0.2022 -0.29364,-0.36581 -0.480108,-0.36359 l -0.339033,0.004 0.396875,0.25648 0.396875,0.25648 -0.595312,0.004 c -0.327422,0.002 -0.595313,-0.12959 -0.595313,-0.29293 v -0.29698 l -0.342427,0.28419 -0.342426,0.28419 -0.782053,-0.63915 c -0.430129,-0.35154 -0.633224,-0.64344 -0.451323,-0.64867 0.181901,-0.005 0.330729,0.10955 0.330729,0.25507 0,0.14552 0.119062,0.26458 0.264583,0.26458 0.145521,0 0.264584,-0.0963 0.264584,-0.21401 0,-0.11771 -0.176332,-0.44513 -0.391847,-0.72761 l -0.391847,-0.51359 -0.26556,0.39688 -0.26556,0.39687 -0.0041,-0.99219 c -0.0022,-0.545699 -0.130141,-0.992184 -0.28425,-0.992184 -0.154109,0 -0.195244,0.137459 -0.09141,0.305464 l 0.188787,0.305464 -0.333809,-0.206306 -0.33381,-0.206306 0.17797,0.628448 0.177969,0.62844 -0.241503,-0.3471 c -0.132827,-0.1909 -0.199082,-0.964809 -0.147233,-1.719789 l 0.09427,-1.37269 -0.248377,0.529167 -0.248378,0.529167 -0.0186,-0.444122 c -0.01023,-0.244268 0.168502,-0.631221 0.397177,-0.859896 0.228676,-0.228676 0.437893,-0.415774 0.464928,-0.415774 0.02703,0 0.0057,0.565547 -0.0475,1.256771 -0.05316,0.691224 -0.02557,1.188628 0.06133,1.105344 0.08689,-0.08329 0.215743,-1.02675 0.286339,-2.096589 0.0706,-1.06984 0.2505,-2.067307 0.399788,-2.216594 l 0.271432,-0.271432 v 0.3175 0.3175 h 1.603115 c 0.881713,0 1.541794,-0.09922 1.466847,-0.220486 -0.07495,-0.121268 0.03185,-0.220486 0.237329,-0.220486 0.205479,0 0.312277,0.09922 0.23733,0.220486 -0.07495,0.121267 0.01959,0.219752 0.210076,0.218856 0.190489,-8.97e-4 0.67175,-0.171384 1.069468,-0.37886 l 0.723123,-0.377229 0.177653,0.287448 0.177653,0.287448 -0.287182,-0.177488 c -0.157949,-0.09762 -0.361966,-0.05648 -0.45337,0.09141 -0.0914,0.147894 -0.01033,0.282633 0.180155,0.299419 0.190489,0.01679 0.524938,0.04655 0.743219,0.06615 l 0.396875,0.03563 0.08156,0.705235 0.08156,0.705235 -0.346144,0.116687 c -0.19038,0.06418 -0.142164,0.08654 0.107147,0.04968 0.249311,-0.03685 0.573613,0.07797 0.720672,0.255168 0.147058,0.177194 0.240732,0.689083 0.208165,1.137532 -0.03257,0.448448 -0.145495,0.762266 -0.250951,0.697373 -0.105457,-0.06489 -0.333831,0.446312 -0.507499,1.136009 l -0.315761,1.254 -0.174464,-0.49736 -0.174463,-0.49736 -0.211006,0.34142 -0.211006,0.34141 -0.232251,-0.35898 -0.232251,-0.35897 0.07454,0.52916 c 0.041,0.29105 0.163702,0.67198 0.272676,0.84653 l 0.198136,0.31736 -0.959566,0.18002 -0.959567,0.18001 0.313122,0.19352 0.313122,0.19352 -0.534446,0.13977 -0.534445,0.13976 z M 94.496796,95.611994 93.812,95.016681 93.75444,94.157311 c -0.03166,-0.472653 -0.14686,-0.859606 -0.256001,-0.859896 -0.10914,-2.89e-4 -0.196614,-0.44701 -0.194385,-0.992713 l 0.0041,-0.992188 0.277602,0.396876 0.277602,0.396875 -0.09407,-0.973629 c -0.05174,-0.535495 0.0081,-0.910469 0.133029,-0.833274 0.124904,0.07719 0.284438,-0.07999 0.35452,-0.349289 l 0.127423,-0.489642 1.742456,0.0903 1.742456,0.0903 0.178436,-0.288716 0.178436,-0.288716 0.456649,0.33391 0.456648,0.333909 0.02252,1.5843 0.02252,1.584301 0.282526,-0.661459 0.282525,-0.661458 0.102349,0.750141 0.102348,0.750141 -0.400162,0.308192 c -0.22009,0.169506 -0.437336,0.66538 -0.48277,1.101943 l -0.08261,0.79375 -0.79375,-0.02515 c -0.436563,-0.01383 -0.585391,0.02421 -0.330729,0.08455 0.254661,0.06033 0.46302,0.213455 0.46302,0.340267 0,0.126811 -0.137458,0.31552 -0.305463,0.419353 l -0.305464,0.188787 0.188787,-0.305464 c 0.103833,-0.168005 0.08254,-0.305463 -0.04731,-0.305463 -0.129856,0 -0.326234,0.0893 -0.436397,0.198437 -0.110163,0.109141 -0.457429,0.198438 -0.771702,0.198438 -0.314273,0 -0.749999,-0.178594 -0.96828,-0.396875 -0.218281,-0.218282 -0.635,-0.431124 -0.926042,-0.472984 l -0.529166,-0.07611 0.661458,0.533246 c 0.363802,0.293285 0.578801,0.535893 0.477775,0.539129 -0.101026,0.0032 -0.491841,-0.262007 -0.868479,-0.589429 z m -5.267239,-7.658423 c -0.271135,-0.151734 -1.002744,-0.206008 -1.6258,-0.120609 l -1.132828,0.155271 -0.149036,-0.38838 c -0.08197,-0.213609 -0.0805,-0.566974 0.0033,-0.785255 0.08376,-0.218281 0.03042,-0.396875 -0.118547,-0.396875 -0.148963,0 -0.330896,0.148828 -0.404294,0.330729 L 85.6689,87.079181 85.64801,86.61616 c -0.01149,-0.254661 0.08703,-0.463021 0.218925,-0.463021 0.131898,0 0.176817,-0.240898 0.09982,-0.53533 l -0.139992,-0.53533 -0.339397,0.464153 -0.339397,0.464153 0.137539,-0.719489 c 0.07565,-0.395719 0.241623,-0.655162 0.368837,-0.576539 0.127213,0.07862 0.160392,-0.04183 0.07373,-0.267667 -0.08666,-0.22584 -0.03569,-0.410617 0.113274,-0.410617 0.148963,0 0.330895,0.148828 0.404294,0.330729 0.0734,0.181901 0.156951,0.03307 0.185672,-0.330729 0.02872,-0.363802 0.03955,-0.746471 0.02406,-0.850374 -0.01549,-0.103904 0.153441,-0.119229 0.375397,-0.03406 0.221955,0.08517 0.625426,-0.04593 0.8966,-0.291341 l 0.493045,-0.4462 0.178226,0.288375 c 0.09802,0.158606 0.08008,0.260176 -0.03988,0.225711 -0.119957,-0.03446 -0.475907,0.103988 -0.791,0.307673 l -0.572896,0.370337 0.684647,0.355199 c 0.376556,0.19536 0.753422,0.250403 0.83748,0.122319 0.08406,-0.128084 0.331425,-0.300865 0.549707,-0.383956 l 0.396875,-0.151077 -0.529167,-0.04363 -0.529167,-0.04363 0.787409,-0.234954 0.787409,-0.234954 0.270924,0.273371 0.270925,0.273371 -0.442615,-0.168444 -0.442615,-0.168444 0.056,0.351206 c 0.0308,0.193163 0.196589,0.589331 0.368423,0.880373 l 0.312425,0.529166 0.008,-0.610927 0.008,-0.610927 0.265555,0.164121 c 0.146055,0.09027 0.191306,0.484247 0.100557,0.875511 -0.09075,0.391264 -0.335621,0.848192 -0.544161,1.015395 l -0.379165,0.304006 0.344753,0.116092 c 0.189614,0.06385 0.500149,-0.07295 0.690078,-0.304006 l 0.345325,-0.420098 -0.243426,0.529167 c -0.133885,0.291041 -0.208914,0.680971 -0.166732,0.86651 0.04218,0.185539 0.01617,0.215305 -0.0578,0.06615 -0.07397,-0.149159 -0.303168,-0.271198 -0.509323,-0.271198 -0.206154,0 -0.374826,0.185621 -0.374826,0.41249 0,0.226869 0.119062,0.338905 0.264583,0.248968 0.145521,-0.08994 0.264583,-0.05201 0.264583,0.08428 0,0.136291 -0.150087,0.372363 -0.333527,0.524605 l -0.333527,0.276803 z"
         id="path206" /><path
         style="fill:#448132"
         d="m 80.864583,164.21453 c 0,-0.28592 -0.230297,-0.64311 -0.511772,-0.79375 -0.281475,-0.15064 -0.59187,-0.27389 -0.689766,-0.27389 -0.0979,0 -0.108403,0.18135 -0.02335,0.403 l 0.154645,0.403 -0.589358,-0.30655 c -0.324147,-0.1686 -0.648889,-0.36892 -0.72165,-0.44515 -0.07276,-0.0762 0.07607,-0.0639 0.33073,0.0275 0.254661,0.0914 0.46302,0.0508 0.46302,-0.0901 0,-0.14096 -0.133945,-0.25628 -0.297656,-0.25628 H 78.68177 l 0.164995,-0.8599 0.164995,-0.85989 -0.231182,0.35904 -0.231181,0.35904 -0.542289,-0.17211 -0.542288,-0.17212 -0.117236,0.47453 c -0.06448,0.26099 -0.09664,0.16472 -0.07148,-0.21394 l 0.04576,-0.68847 -1.426354,0.0333 -1.426354,0.0333 -0.23728,-0.44336 -0.23728,-0.44337 0.590722,0.13939 0.590723,0.13939 -0.529167,-0.42153 c -0.291042,-0.23184 -0.804084,-0.42531 -1.140094,-0.42994 l -0.610927,-0.008 0.163521,-0.26459 c 0.08994,-0.14552 -0.05782,-0.26458 -0.328343,-0.26458 -0.270526,0 -0.63474,0.14288 -0.809365,0.3175 l -0.3175,0.3175 v -0.3175 c 0,-0.17462 -0.148828,-0.28773 -0.33073,-0.25135 l -0.330729,0.0661 0.0623,-0.59123 0.06231,-0.59124 -0.655789,-0.16459 c -0.360683,-0.0905 -0.588852,-0.2729 -0.507042,-0.40527 0.08181,-0.13237 0.259581,-0.17217 0.395046,-0.0884 0.135466,0.0837 0.246301,0.033 0.246301,-0.11279 0,-0.14575 0.238125,-0.21914 0.529167,-0.16309 l 0.529167,0.1019 v -0.34861 -0.34861 h 0.666407 0.666407 l -0.289532,0.34887 -0.289533,0.34886 0.549167,-0.0414 0.549167,-0.0414 v -0.60516 c 0,-0.33283 -0.148828,-0.60877 -0.330729,-0.6132 l -0.330729,-0.008 0.440944,-0.25733 c 0.242519,-0.14153 0.659237,-0.23811 0.926041,-0.21462 0.266804,0.0235 0.693457,0.0239 0.948119,8e-4 l 0.463021,-0.0419 0.03069,-0.59531 0.03069,-0.59531 0.121,0.46302 c 0.06655,0.25466 0.238359,0.46302 0.381798,0.46302 0.143438,0 0.187213,-0.11906 0.09728,-0.26458 -0.08994,-0.14552 0.01218,-0.26459 0.22692,-0.26459 0.214743,0 0.450495,0.14883 0.523893,0.33073 l 0.133452,0.33073 0.02089,-0.31183 c 0.01149,-0.1715 -0.166211,-0.49893 -0.394886,-0.7276 l -0.415774,-0.41578 h 0.415774 c 0.228675,0 0.417597,-0.14882 0.419825,-0.33073 l 0.0041,-0.33072 0.202538,0.31865 c 0.111396,0.17526 0.458512,0.29937 0.771368,0.27581 0.312857,-0.0236 0.505505,-0.14532 0.428106,-0.27055 -0.0774,-0.12523 -0.313459,-0.16141 -0.524578,-0.0804 -0.21112,0.081 -0.315958,0.0374 -0.232973,-0.0968 0.08299,-0.13427 0.550282,-0.17932 1.038438,-0.1001 l 0.887557,0.14403 0.189484,-0.30659 0.189484,-0.30659 0.358383,0.29743 0.358382,0.29743 -0.04137,-0.54917 c -0.02275,-0.30204 -0.214468,-0.54917 -0.426035,-0.54917 -0.211568,0 -0.302225,-0.0824 -0.201461,-0.1832 0.100764,-0.10077 0.418264,-0.21908 0.705556,-0.26293 l 0.522348,-0.0797 v 0.92438 c 0,0.50841 -0.119063,0.92438 -0.264583,0.92438 -0.145521,0 -0.264584,0.34261 -0.264584,0.76135 0,0.41875 0.178594,0.90958 0.396875,1.09073 l 0.396875,0.32938 v -0.29698 c 0,-0.16334 -0.09922,-0.29698 -0.220486,-0.29698 -0.121267,0 -0.220486,-0.17859 -0.220486,-0.39687 0,-0.21829 0.02147,-0.39688 0.04771,-0.39688 0.02624,0 0.322271,0.23813 0.657845,0.52917 0.335574,0.29104 0.718005,0.52916 0.849848,0.52916 0.131843,0 0.16613,-0.11906 0.07619,-0.26458 -0.08994,-0.14552 0.02913,-0.26458 0.264584,-0.26458 h 0.428104 l -0.202773,0.33073 -0.202774,0.33073 0.65018,-0.43703 c 0.357598,-0.24037 0.634977,-0.61932 0.616396,-0.84211 l -0.03378,-0.40508 1.001061,-0.16913 c 0.550584,-0.093 1.69688,-0.10574 2.547325,-0.0283 l 1.546263,0.14085 -0.529167,-0.2355 c -0.291042,-0.12952 -0.373312,-0.24387 -0.182823,-0.2541 0.19049,-0.0102 0.27276,-0.13766 0.182823,-0.28318 l -0.163521,-0.26458 h 0.692688 0.692688 l -0.188787,-0.30546 -0.188787,-0.30547 0.294701,0.18214 c 0.162086,0.10017 0.567435,0.0293 0.900776,-0.15756 0.333342,-0.18683 0.665607,-0.39922 0.738367,-0.47198 0.07276,-0.0728 0.28997,-0.16501 0.482687,-0.205 l 0.350396,-0.0727 -0.193332,0.31282 -0.193331,0.31282 0.636686,-0.19533 c 0.350177,-0.10744 0.916396,-0.26139 1.258264,-0.34213 l 0.621579,-0.1468 0.264153,-0.75775 0.264153,-0.75775 1.098643,0.13146 1.098644,0.13146 -0.396875,-0.25983 -0.396875,-0.25984 0.374826,-0.004 c 0.206155,-0.002 0.298329,-0.0806 0.204831,-0.17404 -0.0935,-0.0935 -0.331622,-0.0359 -0.529166,0.12809 l -0.359172,0.29808 v -0.38103 c 0,-0.20957 0.09212,-0.3241 0.204714,-0.25452 0.112592,0.0696 0.42017,-0.099 0.683506,-0.37462 0.263337,-0.27563 1.044341,-0.58322 1.735565,-0.68354 0.691224,-0.10032 1.25677,-0.30805 1.25677,-0.46162 0,-0.15358 -0.230435,-0.21897 -0.512078,-0.14532 l -0.51208,0.13391 -0.132672,-0.34574 c -0.07297,-0.19016 0.04459,-0.41376 0.261237,-0.4969 l 0.393911,-0.15115 -0.165655,0.32769 c -0.09111,0.18024 0.0051,0.11934 0.213864,-0.13532 0.208735,-0.25466 0.604513,-0.46484 0.879513,-0.46707 l 0.5,-0.004 -0.38424,-0.24308 c -0.21134,-0.13369 -0.50899,-0.16854 -0.66146,-0.0774 -0.152467,0.0911 -0.113808,-0.0358 0.0859,-0.28204 0.19972,-0.24621 0.4151,-0.44766 0.47863,-0.44766 0.0635,0 0.0299,0.14883 -0.0748,0.33073 l -0.19033,0.33073 0.24086,-0.22049 c 0.13247,-0.12127 0.25574,-0.32963 0.27393,-0.46302 0.0182,-0.1334 0.048,-0.40998 0.0661,-0.61464 l 0.0331,-0.37211 0.50266,0.13145 0.50267,0.13145 -0.0397,-0.65999 c -0.0218,-0.363 -0.12757,-0.60571 -0.23505,-0.53936 -0.10747,0.0664 -0.12187,-0.071 -0.032,-0.30518 0.0899,-0.2342 0.32663,-0.36318 0.52613,-0.28662 l 0.36274,0.13919 -0.0186,-0.7193 -0.0186,-0.7193 -0.22445,0.52917 -0.22445,0.52916 0.0446,-0.83412 c 0.0245,-0.45876 0.13355,-0.77938 0.24225,-0.71248 0.1087,0.0669 0.0789,-0.19058 -0.0662,-0.57217 -0.14508,-0.38159 -0.26378,-0.74558 -0.26378,-0.80887 0,-0.0633 0.14108,-0.0853 0.31352,-0.0489 0.17244,0.0364 0.3439,-0.26128 0.38102,-0.66146 0.0371,-0.40018 -0.0217,-0.7276 -0.13066,-0.7276 -0.10898,0 -0.42927,-0.18743 -0.71175,-0.4165 -0.28247,-0.22907 -0.36476,-0.34111 -0.18286,-0.24897 0.1819,0.0921 0.33073,0.0931 0.33073,0.002 0,-0.0909 -0.12325,-0.3956 -0.27389,-0.67707 -0.15064,-0.28148 -0.46104,-0.51178 -0.68977,-0.51178 h -0.41587 l 0.15757,-0.41061 c 0.0867,-0.22584 0.0484,-0.34318 -0.0849,-0.26074 -0.13338,0.0824 -0.31029,-0.0602 -0.39315,-0.31699 -0.0829,-0.25678 -0.51418,-0.85382 -0.958499,-1.32676 -0.444318,-0.47294 -0.920879,-0.8599 -1.059024,-0.8599 -0.138145,0 -0.251173,-0.13364 -0.251173,-0.29698 v -0.29698 l 0.396875,0.32938 0.396875,0.32938 v -0.38027 c 0,-0.20915 -0.415955,-0.57862 -0.924345,-0.82106 -0.50839,-0.24243 -0.895343,-0.35378 -0.859896,-0.24744 0.03545,0.10634 -0.05461,0.21531 -0.200134,0.24214 -0.145521,0.0268 -0.23255,-0.10914 -0.193397,-0.30217 0.03915,-0.19303 -0.07991,-0.34506 -0.264583,-0.33784 -0.184674,0.007 -0.551156,-0.006 -0.814406,-0.0286 -0.263249,-0.0229 -0.403851,-0.16268 -0.312447,-0.31058 0.0914,-0.14789 0.277025,-0.2004 0.41249,-0.11668 0.135466,0.0837 0.246301,0.0389 0.246301,-0.0997 0,-0.13854 -0.189338,-0.32455 -0.420751,-0.41335 -0.231414,-0.0888 -0.549303,-0.082 -0.706422,0.0151 l -0.285669,0.17656 0.16895,-0.44028 0.168951,-0.44028 h -0.40414 -0.404186 l 0.179836,0.29098 0.179836,0.29098 -0.49495,-0.25523 c -0.272223,-0.14037 -0.643778,-0.20186 -0.82568,-0.13664 -0.181901,0.0652 -0.330729,0.0134 -0.330729,-0.11512 0,-0.12855 0.148828,-0.4032 0.330729,-0.61035 0.181902,-0.20714 0.07903,-0.16762 -0.228613,0.0878 l -0.559343,0.46446 -0.394349,-0.60377 -0.39435,-0.60376 0.207492,-0.52917 c 0.11412,-0.29104 0.21586,-0.42529 0.226088,-0.29833 0.01023,0.12696 0.182099,0.0951 0.381936,-0.0707 0.199837,-0.16585 0.560063,-0.22606 0.800503,-0.13379 l 0.437163,0.16775 -0.282379,0.34025 -0.28238,0.34024 0.341773,0.1151 c 0.187974,0.0633 0.486814,-0.0739 0.664087,-0.305 l 0.322314,-0.42009 0.0084,0.70708 0.0084,0.70709 0.943521,0.31139 c 0.518937,0.17126 1.155956,0.25583 1.415597,0.18794 0.259642,-0.0679 0.757792,0.0979 1.107,0.36854 l 0.634924,0.49199 -0.926042,-0.17487 -0.926041,-0.17487 0.368432,0.44789 c 0.202638,0.24634 0.429808,0.38652 0.504823,0.3115 0.07501,-0.075 0.297597,-0.003 0.494629,0.16093 0.197032,0.16352 0.761112,0.31131 1.253512,0.32843 0.492401,0.0171 1.132901,0.24625 1.423341,0.50918 l 0.52807,0.47805 -0.12956,0.49543 -0.12956,0.49544 0.87547,0.0848 0.87546,0.0848 0.16682,0.66146 c 0.0918,0.3638 0.0598,0.80098 -0.071,0.9715 l -0.2378,0.31005 0.78581,-0.12384 0.7858,-0.12385 0.19635,0.3177 0.19635,0.3177 -0.30546,-0.18879 c -0.16801,-0.10383 -0.30547,-0.0627 -0.30547,0.0914 0,0.15411 0.25271,0.2802 0.56157,0.2802 h 0.56156 l -0.32938,0.39688 -0.32937,0.39687 0.26372,0.33073 c 0.14504,0.1819 0.22069,0.62838 0.1681,0.99219 l -0.0956,0.66146 0.29819,-0.50567 0.29818,-0.50567 -0.29617,-0.47425 -0.29618,-0.47426 0.24012,-0.1484 c 0.13206,-0.0816 0.3318,0.12122 0.44387,0.45076 0.11207,0.32953 0.18018,0.68845 0.15134,0.79759 -0.0288,0.10914 0.0894,0.19844 0.26274,0.19844 0.17333,0 0.084,0.1748 -0.19844,0.38846 l -0.51359,0.38846 0.7276,0.008 0.72761,0.008 0.0313,0.59531 c 0.0172,0.32742 0.0186,0.68048 0.003,0.78457 -0.0155,0.10409 0.0891,0.49785 0.23245,0.87502 l 0.26072,0.68575 -0.26378,-0.16302 c -0.14508,-0.0897 -0.26378,0.0891 -0.26378,0.39737 0,0.30822 0.10727,0.4941 0.23838,0.41307 0.1311,-0.081 0.22657,0.26913 0.21214,0.77813 -0.0144,0.50901 -0.1262,0.92546 -0.24839,0.92546 -0.12219,0 -0.19914,0.26789 -0.171,0.59532 0.0281,0.32742 0.0327,0.80367 0.01,1.05833 -0.0226,0.25466 -0.21975,0.46302 -0.43803,0.46302 -0.21828,0 -0.3987,0.14883 -0.40092,0.33073 l -0.004,0.33073 -0.25648,-0.39688 c -0.14106,-0.21828 -0.2583,-0.29975 -0.26053,-0.18104 -0.002,0.11871 0.12726,0.46119 0.28775,0.76107 l 0.29181,0.54524 -0.29293,0.64291 c -0.16111,0.3536 -0.40297,0.5749 -0.53747,0.49178 -0.1345,-0.0831 -0.28565,0.11852 -0.33589,0.4481 -0.0502,0.32958 -0.23734,0.56947 -0.41579,0.53309 -0.17845,-0.0364 -0.32445,0.0609 -0.32445,0.21627 v 0.28241 l -0.52916,-0.16795 -0.52917,-0.16795 v 0.28241 c 0,0.15533 0.14883,0.28424 0.33073,0.28647 l 0.33073,0.004 -0.35105,0.22256 c -0.19308,0.1224 -0.31214,0.448 -0.26458,0.72355 l 0.0865,0.50099 -0.52917,0.038 c -0.29104,0.0209 -0.66876,0.0507 -0.83937,0.0661 -0.17062,0.0155 -0.44719,0.44318 -0.61462,0.95048 -0.16742,0.5073 -0.43317,1.00194 -0.59056,1.09921 l -0.28616,0.17686 0.17008,-0.27521 0.17009,-0.27521 -0.604551,-0.11556 -0.604555,-0.11557 -0.05536,0.66894 c -0.03045,0.36791 -0.191198,0.79326 -0.357218,0.94521 l -0.301855,0.27627 0.194066,-0.39688 c 0.106737,-0.21828 -0.06472,-0.0992 -0.381019,0.26458 -0.316297,0.36381 -0.498196,0.51263 -0.404219,0.33073 l 0.170866,-0.33073 h -0.544782 -0.544781 v 0.39688 c 0,0.21828 -0.12609,0.39687 -0.280199,0.39687 -0.154109,0 -0.206093,-0.1199 -0.115521,-0.26645 0.09057,-0.14655 -0.02947,-0.34095 -0.266753,-0.43201 -0.237287,-0.0911 -0.572255,-0.0236 -0.744374,0.14984 l -0.312945,0.31539 0.406324,-0.15452 0.406325,-0.15451 v 0.52106 0.52106 l -0.329523,-0.27348 -0.329523,-0.27348 0.106444,0.55272 c 0.05855,0.30399 0.02398,0.56183 -0.0768,0.57296 -0.100785,0.0111 -0.409452,0.0627 -0.685926,0.1147 -0.276474,0.0519 -0.602073,0.2512 -0.723553,0.44278 l -0.220872,0.34832 -0.02494,-0.52917 c -0.01372,-0.29104 -0.08499,-0.38034 -0.158392,-0.19844 -0.0734,0.18191 -0.391421,0.33256 -0.706716,0.33479 -0.315295,0.002 -0.737346,0.10797 -0.93789,0.235 -0.200544,0.12702 -0.282815,0.36332 -0.182823,0.52511 l 0.181804,0.29417 h -0.529167 c -0.291041,0 -0.594409,0.10556 -0.67415,0.23459 -0.07974,0.12902 -0.580407,0.31627 -1.11259,0.41611 l -0.967605,0.18152 -0.205777,-0.33295 -0.205777,-0.33295 -0.379162,0.31467 -0.379163,0.31468 -0.819816,-0.16396 -0.819816,-0.16397 -0.471882,0.47189 -0.471883,0.47188 1.716842,-0.15911 1.716841,-0.1591 -1.719791,0.51313 c -0.945886,0.28222 -2.633867,0.53695 -3.751071,0.56606 l -2.031278,0.0529 0.02174,0.76458 c 0.01196,0.42052 -0.14553,0.88353 -0.349971,1.02892 l -0.37171,0.26434 0.43695,-0.13894 0.43695,-0.13895 0.15475,0.57701 c 0.08511,0.31735 0.156375,0.72583 0.158362,0.90773 0.002,0.1819 -0.11545,0.33073 -0.26097,0.33073 -0.145521,0 -0.264584,-0.23394 -0.264584,-0.51986 z m 9.657292,-10.53055 c 0.145521,-0.10691 0.433448,-0.40932 0.639839,-0.67202 l 0.375255,-0.47763 -0.705984,0.32166 c -0.388292,0.17692 -0.705985,0.42865 -0.705985,0.5594 0,0.13075 -0.119062,0.16415 -0.264583,0.0742 -0.145521,-0.0899 -0.264584,-0.0374 -0.264584,0.11668 0,0.1541 0.148828,0.27837 0.33073,0.27614 0.181901,-0.002 0.449791,-0.0915 0.595312,-0.19844 z m 12.320215,-16.2336 0.30029,-0.5611 -0.29098,0.17984 -0.29098,0.17983 v -0.41249 c 0,-0.22687 -0.1318,-0.41249 -0.29289,-0.41249 -0.16109,0 -0.22063,0.18834 -0.1323,0.41852 0.0883,0.23018 0.1606,0.58737 0.1606,0.79375 0,0.20638 0.0554,0.37523 0.12299,0.37523 0.0676,0 0.25811,-0.25249 0.42327,-0.56109 z m -13.51084,-8.93056 c 0,-0.15832 -0.289041,-0.36039 -0.642314,-0.44906 -0.353272,-0.0887 -0.711463,-0.34141 -0.79598,-0.56166 l -0.153667,-0.40045 -0.46079,0.17542 -0.460791,0.17542 0.319516,-0.32196 0.319516,-0.32196 0.446253,0.37035 0.446254,0.37036 -0.177877,-0.56044 -0.177876,-0.56044 0.480308,-0.1256 c 0.26417,-0.0691 0.743759,-0.0281 1.065753,0.091 0.321995,0.11911 0.585445,0.33947 0.585445,0.48968 0,0.15021 0.193172,0.27311 0.429272,0.27311 h 0.429272 l -0.329377,0.39687 c -0.181158,0.21828 -0.244587,0.39688 -0.140954,0.39688 0.103633,0 0.425834,-0.26789 0.716002,-0.59532 l 0.527578,-0.59531 -0.185953,0.52917 c -0.102273,0.29104 -0.191614,0.67799 -0.198535,0.85989 -0.0069,0.18191 -0.280657,0.33073 -0.608304,0.33073 -0.327647,0 -0.784053,0.0723 -1.014236,0.1606 -0.230183,0.0883 -0.418515,0.0311 -0.418515,-0.12725 z"
         id="path205" /><path
         style="fill:#427d32"
         d="m 78.314769,162.7095 c 0.01995,-0.23743 -0.112636,-0.48423 -0.294636,-0.54843 l -0.33091,-0.11673 0.157431,0.48513 0.15743,0.48513 -0.28549,-0.39688 c -0.15702,-0.21828 -0.287314,-0.55372 -0.289542,-0.74543 l -0.0041,-0.34856 0.562199,0.17844 0.562199,0.17843 0.227499,-0.35904 0.2275,-0.35904 0.0041,0.31511 c 0.0022,0.17331 -0.109811,0.38549 -0.248976,0.47149 -0.139165,0.086 -0.19058,0.31912 -0.114254,0.51802 0.07633,0.1989 0.02504,0.43193 -0.113974,0.51785 -0.139012,0.0859 -0.236426,-0.0381 -0.216475,-0.27549 z"
         id="path204" /></g></g></svg>
