<?xml version="1.0" encoding="UTF-8" standalone="no"?>
<!-- Created with Inkscape (http://www.inkscape.org/) -->

<svg
   width="210mm"
   height="297mm"
   viewBox="0 0 210 297"
   version="1.1"
   id="svg1"
   xml:space="preserve"
   xmlns="http://www.w3.org/2000/svg"
   xmlns:svg="http://www.w3.org/2000/svg"><defs
     id="defs1"><linearGradient
       id="swatch1"><stop
         style="stop-color:#000000;stop-opacity:1;"
         offset="0"
         id="stop1" /></linearGradient></defs><g
     id="layer1"><g
       id="g219"
       transform="matrix(2.9790211,0,0,5.9878465,-223.89136,-645.45231)"><path
         style="fill:#f1f6fa"
         d="m 91.344955,137.49935 c 3.35e-4,-2.32833 0.04081,-3.24541 0.08995,-2.03796 0.04914,1.20746 0.04886,3.11246 -6.09e-4,4.23333 -0.04947,1.12088 -0.08967,0.13296 -0.08934,-2.19537 z m 16.561645,1.32292 c 0,-1.57648 0.0571,-2.80926 0.12681,-2.73952 0.0697,0.0697 0.14168,1.28764 0.15986,2.70645 0.0182,1.41881 -0.0389,2.65159 -0.1268,2.73952 -0.0879,0.0879 -0.15987,-1.12998 -0.15987,-2.70645 z"
         id="path244" /><path
         style="fill:#e3edf7"
         d="m 97.428414,137.89622 c 0,-2.11005 0.04109,-2.97325 0.09131,-1.91822 0.05022,1.05502 0.05022,2.78143 0,3.83645 -0.05022,1.05503 -0.09131,0.19183 -0.09131,-1.91823 z"
         id="path243" /><path
         style="fill:#dbe9f5"
         d="m 88.168672,137.23477 c 3.71e-4,-2.18282 0.04135,-3.04058 0.09107,-1.90614 0.04972,1.13444 0.04941,2.92038 -6.74e-4,3.96875 -0.05009,1.04837 -0.09076,0.1202 -0.09039,-2.06261 z M 102.15192,133.733 c 0.69122,-0.0545 1.82231,-0.0545 2.51354,0 0.69122,0.0545 0.12568,0.0991 -1.25677,0.0991 -1.38245,0 -1.948,-0.0446 -1.25677,-0.0991 z m 7.54062,7.5e-4 c 0.61846,-0.0557 1.6305,-0.0557 2.24896,0 0.61846,0.0557 0.11245,0.10128 -1.12448,0.10128 -1.23693,0 -1.74294,-0.0456 -1.12448,-0.10128 z"
         id="path242" /><path
         style="fill:#d2e4f3"
         d="m 111.28891,141.6696 c 0.76886,-0.0536 1.95949,-0.0531 2.64583,0.001 0.68635,0.0543 0.0573,0.0982 -1.39793,0.0975 -1.45521,-6.9e-4 -2.01676,-0.0451 -1.2479,-0.0987 z"
         id="path241" /><path
         style="fill:#cee1f2"
         d="m 138.43266,138.2931 c 5.9e-4,-1.60073 0.0442,-2.22146 0.0968,-1.3794 0.0527,0.84206 0.0522,2.15174 -0.001,2.91041 -0.0533,0.75868 -0.0964,0.0697 -0.0958,-1.53101 z"
         id="path240" /><path
         style="fill:#c8ddf1"
         d="m 100.60341,137.89622 c 0,-2.11005 0.0411,-2.97325 0.0913,-1.91822 0.0502,1.05502 0.0502,2.78143 0,3.83645 -0.0502,1.05503 -0.0913,0.19183 -0.0913,-1.91823 z"
         id="path239" /><path
         style="fill:#c1d9ee"
         d="m 105.09282,139.08685 c 6.9e-4,-1.45521 0.0451,-2.01676 0.0987,-1.2479 0.0536,0.76886 0.053,1.95949 -10e-4,2.64583 -0.0543,0.68635 -0.0982,0.0573 -0.0975,-1.39793 z m -17.228403,-8.79516 c 0.982265,-0.0509 2.589609,-0.0509 3.571875,0 0.982265,0.0509 0.178593,0.0926 -1.785938,0.0926 -1.964531,0 -2.768203,-0.0417 -1.785937,-0.0926 z"
         id="path238" /><path
         style="fill:#b8d4ed"
         d="m 92.136748,137.89622 c 0,-2.11005 0.04109,-2.97325 0.09131,-1.91822 0.05022,1.05502 0.05022,2.78143 0,3.83645 -0.05022,1.05503 -0.09131,0.19183 -0.09131,-1.91823 z m 2.629644,1.85209 c 0,-1.09141 0.0467,-1.53789 0.103786,-0.99219 0.05708,0.5457 0.05708,1.43867 0,1.98438 -0.05708,0.5457 -0.103786,0.0992 -0.103786,-0.99219 z"
         id="path237" /><path
         style="fill:#a5c7e8"
         d="m 137.3805,137.89622 c 0,-2.11005 0.0411,-2.97325 0.0913,-1.91822 0.0502,1.05502 0.0502,2.78143 0,3.83645 -0.0502,1.05503 -0.0913,0.19183 -0.0913,-1.91823 z m -34.13976,0.66146 c 6.9e-4,-1.45521 0.0451,-2.01676 0.0987,-1.2479 0.0536,0.76886 0.0531,1.95949 -10e-4,2.64583 -0.0543,0.68635 -0.0982,0.0573 -0.0975,-1.39793 z m 4.49666,0.13229 c 0,-1.38244 0.0446,-1.94799 0.0991,-1.25677 0.0545,0.69123 0.0545,1.82232 0,2.51355 -0.0545,0.69122 -0.0991,0.12567 -0.0991,-1.25678 z m -21.85262,-5.748 c 0.475549,-0.0589 1.189924,-0.0577 1.5875,0.003 0.397576,0.0604 0.0085,0.10855 -0.864634,0.10707 -0.873125,-0.001 -1.198415,-0.0509 -0.722866,-0.10977 z m 6.35,0 c 0.475549,-0.0589 1.189924,-0.0577 1.5875,0.003 0.397576,0.0604 0.0085,0.10855 -0.864634,0.10707 -0.873125,-0.001 -1.198415,-0.0509 -0.722866,-0.10977 z"
         id="path236" /><path
         style="fill:#9cc2e5"
         d="m 91.080371,137.49935 c 3.35e-4,-2.32833 0.04081,-3.24541 0.08995,-2.03796 0.04914,1.20746 0.04886,3.11246 -6.09e-4,4.23333 -0.04947,1.12088 -0.08968,0.13296 -0.08934,-2.19537 z"
         id="path235" /><path
         style="fill:#93bde4"
         d="m 136.31491,138.95456 c 0,-1.52797 0.0437,-2.15305 0.0972,-1.38906 0.0534,0.76398 0.0534,2.01414 0,2.77812 -0.0534,0.76398 -0.0972,0.13891 -0.0972,-1.38906 z m -21.16792,-0.39688 c 6.9e-4,-1.45521 0.0451,-2.01676 0.0987,-1.2479 0.0536,0.76886 0.0531,1.95949 -10e-4,2.64583 -0.0543,0.68635 -0.0982,0.0573 -0.0975,-1.39793 z"
         id="path234" /><path
         style="fill:#89b7e1"
         d="m 100.0735,138.02852 c 4.1e-4,-2.0373 0.0419,-2.83576 0.0923,-1.77437 0.0503,1.0614 0.05,2.72827 -7.5e-4,3.70417 -0.0508,0.9759 -0.092,0.10749 -0.0915,-1.9298 z"
         id="path233" /><path
         style="fill:#7db0de"
         d="m 128.91897,136.17643 c 2.6e-4,-2.76489 0.0395,-3.86004 0.0871,-2.43365 0.0477,1.42639 0.0475,3.68857 -4.6e-4,5.02708 -0.0479,1.33851 -0.0869,0.17147 -0.0867,-2.59343 z"
         id="path232" /><path
         style="fill:#74aadc"
         d="m 102.15192,133.99758 c 0.69122,-0.0545 1.82231,-0.0545 2.51354,0 0.69122,0.0545 0.12568,0.0991 -1.25677,0.0991 -1.38245,0 -1.948,-0.0446 -1.25677,-0.0991 z m 7.8122,4.1e-4 c 0.62231,-0.0559 1.57481,-0.0551 2.11666,0.002 0.54186,0.0569 0.0327,0.10259 -1.13147,0.10163 -1.16416,-9.7e-4 -1.6075,-0.0475 -0.98519,-0.10337 z"
         id="path231" /><path
         style="fill:#65a1d8"
         d="m 88.434538,137.49935 c 3.35e-4,-2.32833 0.04081,-3.24541 0.08995,-2.03796 0.04914,1.20746 0.04886,3.11246 -6.09e-4,4.23333 -0.04947,1.12088 -0.08967,0.13296 -0.08934,-2.19537 z"
         id="path230" /><path
         style="fill:#619ed7"
         d="m 138.17011,138.55768 c 5.2e-4,-1.74625 0.0434,-2.42619 0.0952,-1.51098 0.0518,0.9152 0.0514,2.34395 -9.5e-4,3.175 -0.0523,0.83104 -0.0947,0.0822 -0.0942,-1.66402 z"
         id="path229" /><path
         style="fill:#5799d5"
         d="m 105.3574,139.08685 c 6.9e-4,-1.45521 0.0451,-2.01676 0.0987,-1.2479 0.0536,0.76886 0.053,1.95949 -0.001,2.64583 -0.0543,0.68635 -0.0982,0.0573 -0.0975,-1.39793 z"
         id="path228" /><path
         style="fill:#4c92d2"
         d="m 100.86481,137.89622 c 0,-1.81901 0.0423,-2.56315 0.0939,-1.65364 0.0517,0.9095 0.0517,2.39779 0,3.30729 -0.0517,0.90951 -0.0939,0.16536 -0.0939,-1.65365 z m 28.84791,-1.71979 c 2.6e-4,-2.76489 0.0395,-3.86004 0.0871,-2.43365 0.0477,1.42639 0.0475,3.68857 -4.6e-4,5.02708 -0.0479,1.33851 -0.0869,0.17147 -0.0867,-2.59343 z"
         id="path227" /><path
         style="fill:#448dd0"
         d="m 97.690655,137.76393 c 4.63e-4,-1.89177 0.04261,-2.63096 0.09365,-1.64264 0.05105,0.98832 0.05067,2.53613 -8.42e-4,3.43958 -0.05151,0.90346 -0.09327,0.0948 -0.09281,-1.79694 z M 85.88478,132.67739 c 0.475549,-0.0589 1.189924,-0.0577 1.5875,0.003 0.397576,0.0604 0.0085,0.10855 -0.864634,0.10706 -0.873125,-0.001 -1.198415,-0.0509 -0.722866,-0.10976 z m 6.080678,3.5e-4 c 0.472943,-0.0587 1.246849,-0.0587 1.719792,0 0.472943,0.0587 0.08599,0.10671 -0.859896,0.10671 -0.945885,0 -1.332838,-0.048 -0.859896,-0.10671 z"
         id="path226" /><path
         style="fill:#408acf"
         d="m 92.400581,137.76393 c 4.13e-4,-2.03729 0.04194,-2.83575 0.09229,-1.77436 0.05035,1.06139 0.05001,2.72827 -7.51e-4,3.70417 -0.05076,0.9759 -0.09196,0.10748 -0.09154,-1.92981 z"
         id="path225" /><path
         style="fill:#3c88ce"
         d="m 137.6419,137.89622 c 0,-1.81901 0.0423,-2.56315 0.0939,-1.65364 0.0517,0.9095 0.0517,2.39779 0,3.30729 -0.0517,0.90951 -0.0939,0.16536 -0.0939,-1.65365 z"
         id="path224" /><path
         style="fill:#3986ce"
         d="m 99.808914,137.76393 c 4.13e-4,-2.03729 0.04194,-2.83575 0.09229,-1.77436 0.05035,1.06139 0.05001,2.72827 -7.5e-4,3.70417 -0.05076,0.9759 -0.09196,0.10748 -0.09154,-1.92981 z m 15.074746,0.92604 c 0,-1.52796 0.0437,-2.15304 0.0972,-1.38906 0.0534,0.76399 0.0534,2.01414 0,2.77813 -0.0534,0.76398 -0.0972,0.1389 -0.0972,-1.38907 z m 21.16541,0.1323 c 6.9e-4,-1.45521 0.0451,-2.01677 0.0987,-1.24791 0.0536,0.76887 0.0531,1.95949 -0.001,2.64584 -0.0543,0.68634 -0.0982,0.0573 -0.0975,-1.39793 z m -33.07166,-0.39688 c 0,-1.52797 0.0437,-2.15305 0.0972,-1.38906 0.0534,0.76398 0.0534,2.01414 0,2.77812 -0.0534,0.76399 -0.0972,0.13891 -0.0972,-1.38906 z"
         id="path223" /><path
         style="fill:#3182cc"
         d="m 111.14775,141.40591 c 0.69122,-0.0545 1.82232,-0.0545 2.51354,0 0.69122,0.0545 0.12568,0.0991 -1.25677,0.0991 -1.38245,0 -1.94799,-0.0446 -1.25677,-0.0991 z"
         id="path222" /><path
         style="fill:#2e80cb"
         d="m 88.140004,130.55602 c 0.988317,-0.051 2.53613,-0.0507 3.439583,8.4e-4 0.903453,0.0515 0.09483,0.0933 -1.796941,0.0928 -1.891771,-4.6e-4 -2.63096,-0.0426 -1.642642,-0.0936 z"
         id="path221" /><path
         style="fill:#2d7fcb"
         d="m 118.31306,141.36032 1.80751,-0.1568 0.37531,-0.51359 c 0.20642,-0.28248 0.37531,-0.64294 0.37531,-0.80103 0,-0.15809 -0.17356,-0.53522 -0.38569,-0.83808 -0.21213,-0.30285 -1.0158,-0.8187 -1.78594,-1.14632 -0.77013,-0.32763 -1.60861,-0.77963 -1.86327,-1.00445 -0.25466,-0.22481 -0.46302,-0.74074 -0.46302,-1.1465 v -0.73774 l 0.58804,-0.41187 0.58804,-0.41188 1.59477,0.0416 1.59477,0.0416 -1.71979,0.15681 c -0.94588,0.0862 -1.86862,0.25313 -2.05052,0.37086 -0.1819,0.11772 -0.3289,0.47491 -0.32668,0.79375 0.002,0.31883 0.0972,0.72639 0.21113,0.90569 0.11389,0.1793 1.04819,0.73534 2.0762,1.23565 1.02802,0.5003 1.94505,1.10748 2.03783,1.34928 0.0928,0.24181 0.16871,0.65939 0.16871,0.92797 0,0.26858 -0.31371,0.73509 -0.69714,1.03669 l -0.69714,0.54837 -1.61796,-0.0416 -1.61797,-0.0416 z m 4.84914,-0.30328 -0.69076,-0.54336 -0.29823,-1.10755 c -0.16403,-0.60916 -0.23079,-1.59964 -0.14835,-2.20108 0.0824,-0.60143 0.28643,-1.39321 0.45332,-1.7595 0.16689,-0.36628 0.59357,-0.79817 0.94817,-0.95973 0.35461,-0.16157 1.12454,-0.29376 1.71097,-0.29376 h 1.06624 l 0.7734,0.7734 0.77339,0.77339 v 2.15737 2.15738 l -0.77339,0.77339 -0.7734,0.7734 h -1.1753 -1.17529 z m 3.32098,-0.0819 c 0.24894,-0.18913 0.57636,-0.66934 0.7276,-1.06714 0.15125,-0.3978 0.27499,-1.37627 0.27499,-2.17439 0,-0.79812 -0.17419,-1.78797 -0.38709,-2.19967 -0.2129,-0.4117 -0.57982,-0.82251 -0.81539,-0.9129 -0.23556,-0.0904 -0.90022,-0.16436 -1.47702,-0.16436 h -1.04872 l -0.64943,0.64943 -0.64943,0.64943 v 2.14072 2.14072 l 0.64943,0.64944 0.64943,0.64943 1.13651,-0.008 c 0.62507,-0.005 1.34018,-0.16316 1.58912,-0.35229 z m 5.03021,0.21341 -0.58804,-0.41187 v -1.13462 -1.13461 l 0.48386,-0.43789 c 0.26612,-0.24083 0.56377,-0.43788 0.66146,-0.43788 0.0977,0 -0.0605,0.23813 -0.35157,0.52917 -0.29104,0.29104 -0.52916,0.85986 -0.52916,1.26404 0,0.40419 0.18062,0.99275 0.40137,1.30793 l 0.40138,0.57304 1.11998,0.10106 1.11997,0.10106 -1.0656,0.0462 -1.06561,0.0462 z m -42.921369,-4.21833 v -4.36562 h -1.719792 -1.719791 v -0.60854 c 0,-0.3347 0.142875,-0.75142 0.3175,-0.92605 l 0.3175,-0.3175 h 3.995208 3.995208 l 0.3175,0.3175 c 0.174625,0.17463 0.3175,0.59135 0.3175,0.92605 v 0.60854 h -1.719792 -1.719791 v 4.36562 4.36563 h -1.190625 -1.190625 z m 3.96875,0.79375 v -3.57187 h 0.926041 0.926042 v 0.39687 c 0,0.21828 0.09525,0.39688 0.211667,0.39688 0.116416,0 0.324776,-0.10568 0.463021,-0.23485 0.138244,-0.12916 0.519244,-0.31578 0.846666,-0.4147 l 0.595313,-0.17986 v 0.94387 0.94387 h -0.350755 c -0.192915,0 -0.609633,0.27557 -0.926041,0.61237 l -0.575288,0.61236 v 2.03347 2.03347 h -1.058333 -1.058333 z m 5.291666,0 v -3.57187 h 0.926042 0.926042 v 3.57187 3.57188 h -0.926042 -0.926042 z m 3.175003,0 v -3.57187 h 2.3688 c 1.30284,0 2.65893,0.13219 3.01353,0.29376 0.3546,0.16156 0.77692,0.58389 0.93849,0.93849 0.16157,0.3546 0.29376,1.82975 0.29376,3.27811 v 2.63339 h -1.05833 -1.05834 v -2.59292 -2.59292 l -0.3175,-0.3175 c -0.17462,-0.17462 -0.76993,-0.3175 -1.32291,-0.3175 h -1.00542 v 2.91042 2.91042 h -0.92604 -0.92604 z m 8.08479,2.98384 c -0.22653,-0.32342 -0.41188,-0.95177 -0.41188,-1.39634 0,-0.44456 0.18535,-1.07291 0.41188,-1.39633 l 0.41188,-0.58804 h 1.5808 1.5808 l 0.14436,-0.3762 c 0.0794,-0.20691 0.0119,-0.62363 -0.1499,-0.92604 l -0.29427,-0.54985 h -1.39298 c -0.76614,0 -1.53586,-0.14287 -1.71048,-0.3175 -0.17463,-0.17462 -0.3175,-0.47228 -0.3175,-0.66145 v -0.34396 h 2.21327 2.21328 l 0.69714,0.54837 0.69714,0.54837 v 3.0235 3.02351 h -2.63083 -2.63083 z m 3.77335,-1.47953 0.0842,-0.87694 -1.00803,0.0832 -1.00802,0.0832 -0.0907,0.47848 c -0.0499,0.26316 -0.0219,0.65772 0.0621,0.87679 l 0.15285,0.39832 0.86171,-0.083 0.86172,-0.083 z m 16.18769,-3.09181 v -5.15937 h 0.26458 0.26459 v 5.15937 5.15938 h -0.26459 -0.26458 z m 6.35,4.88977 -0.39688,-0.25146 0.33073,-0.004 0.33073,-0.004 v -1.5743 -1.57429 l -1.52135,-0.0955 -1.52136,-0.0955 1.52136,-0.05 1.52135,-0.05 -0.004,-0.99219 c -0.002,-0.5457 -0.11682,-1.17078 -0.25466,-1.38906 l -0.2506,-0.39688 -1.79587,-0.1568 -1.79586,-0.15681 1.62434,-0.0416 1.62433,-0.0416 0.56868,0.46302 0.56869,0.46302 -0.0763,3.09978 -0.0764,3.09978 z m 2.48564,-3.30227 c 4.2e-4,-2.03729 0.042,-2.83575 0.0923,-1.77436 0.0504,1.06139 0.05,2.72827 -7.5e-4,3.70417 -0.0508,0.9759 -0.092,0.10748 -0.0916,-1.92981 z"
         id="path220" /><path
         style="fill:#d0341d"
         d="m 97.443536,131.95513 c -0.357188,-0.35719 -0.649432,-0.87692 -0.649432,-1.15495 0,-0.27803 0.246767,-0.81922 0.54837,-1.20265 l 0.54837,-0.69714 h 0.887635 0.887635 l 0.548366,0.69714 c 0.30161,0.38343 0.54837,0.90315 0.54837,1.15494 0,0.2518 -0.24676,0.77152 -0.54837,1.15495 l -0.548366,0.69714 h -0.786573 -0.786573 z"
         id="path219" /></g></g></svg>
